<?xml version="1.0"?>
<svg xmlns="http://www.w3.org/2000/svg" xmlns:xlink="http://www.w3.org/1999/xlink" version="1.1" id="Capa_1" x="0px" y="0px" viewBox="0 0 511.652 511.652" style="enable-background:new 0 0 511.652 511.652;" xml:space="preserve" width="512px" height="512px" class=""><g><path style="fill:#48B9A5;" d="M232.36,432l2.133-3.2c0,0,9.6-10.667,17.067-11.733c7.467-1.067,8.533,7.467,8.533,7.467  l5.333,34.133l1.067,20.267l-5.333-6.4l-13.867-20.267C246.226,452.267,231.293,438.4,232.36,432z" data-original="#48B9A5"/><g>
	<path style="fill:#425A6B;" d="M233.426,428.8c0,0,1.067,9.6,8.533,17.067c7.467,6.4,12.8,18.133,12.8,18.133   s3.2,8.533,10.667,11.733c7.467,3.2,2.133,3.2,2.133,3.2s-10.667-2.133-13.867-10.667c-4.267-8.533-9.6-14.933-12.8-18.133   C237.693,446.933,222.76,434.133,233.426,428.8z" data-original="#425A6B"/>
	<path style="fill:#425A6B;" d="M262.226,483.2l-2.133,3.2c0,0-2.133,4.267,0,6.4c2.133,2.133,6.4,5.333,8.533,6.4   c2.133,2.133,2.133,6.4,10.667,8.533c8.533,3.2,24.533,6.4,26.667,1.067c2.133-4.267,0-7.467,0-7.467L262.226,483.2z" data-original="#425A6B"/>
</g><path style="fill:#67C5B8;" d="M260.093,464c0,0,1.067,8.533,1.067,12.8s-1.067,9.6,1.067,12.8c2.133,3.2,6.4,5.333,7.467,6.4  c1.067,2.133,4.267,5.333,13.867,6.4c8.533,1.067,19.2,2.133,23.467,0c0,0-3.2-6.4-7.467-11.733c-3.2-5.333-7.467-9.6-8.533-14.933  c-1.067-6.4-5.333-18.133-5.333-18.133L260.093,464z" data-original="#67C5B8"/><path style="fill:#425A6B;" d="M320.893,249.6l-67.2-2.133c0,0-12.8,4.267-14.933,12.8c-2.133,8.533,2.133,27.733,5.333,58.667  c3.2,30.933-2.133,49.067-2.133,49.067l38.4-2.133l7.467-54.4c0,0,0,0,4.267,7.467s6.4,30.933,3.2,35.2  c-3.2,4.267-37.333,49.067-37.333,49.067s-5.333,8.533-5.333,18.133s22.4,16,22.4,16S289.96,412.8,298.493,403.2  c8.533-9.6,21.333-25.6,27.733-33.067c7.467-7.467,9.6-17.067,9.6-22.4s-2.133-53.333-2.133-62.933c0-9.6-5.333-28.8-5.333-28.8  L320.893,249.6" data-original="#425A6B"/><path style="fill:#344A5E;" d="M277.16,371.2C277.16,371.2,277.16,372.267,277.16,371.2c0,1.067,0,1.067,0,2.133v1.067v1.067  c0,1.067,0,1.067,0,2.133c0,1.067,0,2.133,0,4.267c0,1.067,0,3.2,0,5.333c0,2.133,0,3.2,0,5.333c0,1.067,0,2.133,0,3.2  s0,2.133,0,3.2c0,0,0,0,0,1.067v1.067v1.067v1.067c0,1.067,0,2.133,0,3.2c0,2.133,0,4.267,0,6.4c0,1.067,0,2.133,0,3.2  s0,2.133,0,3.2c0,4.267,0,7.467,0,10.667s0,5.333-1.067,7.467c0,1.067,0,1.067,0,2.133v1.067c0,0,0,0,0-1.067c0,0,0-1.067,0-2.133  c0-1.067,0-2.133,0-3.2s0-2.133-1.067-4.267c0-1.067,0-3.2-1.067-5.333c0-2.133,0-3.2-1.067-5.333c0-1.067,0-2.133,0-3.2  s0-2.133,0-3.2c0-2.133,0-4.267-1.067-6.4c0-1.067,0-2.133,0-3.2v-1.067v-1.067V400v-1.067c0-2.133,0-4.267,0-6.4  c0-2.133,0-4.267,1.067-5.333c0-2.133,1.067-3.2,1.067-5.333c0-1.067,1.067-3.2,1.067-4.267c0-1.067,0-1.067,0-2.133V374.4v-1.067  C277.16,372.267,277.16,372.267,277.16,371.2C277.16,372.267,277.16,371.2,277.16,371.2z" data-original="#344A5E"/><path style="fill:#425A6B;" d="M269.693,354.133l11.733,9.6c0,0-4.267,3.2-3.2,7.467c0,4.267-3.2,20.267-2.133,28.8  s2.133,30.933,2.133,36.267c0,0,6.4,13.867,7.467,21.333c0,0-10.667,11.733-19.2,9.6c-8.533-2.133-10.667-7.467-10.667-7.467  s-2.133-10.667-3.2-17.067c-2.133-6.4,0-19.2-3.2-26.667c-3.2-6.4-8.533-40.533-5.333-51.2  C246.226,356.267,269.693,354.133,269.693,354.133" data-original="#425A6B"/><ellipse style="fill:#F5B54C;" cx="300.626" cy="78.933" rx="2.133" ry="4.267" data-original="#F5B54C"/><path style="fill:#FFD15C;" d="M218.493,132.267c0,0-12.8,12.8-23.467,16c-9.6,2.133-16,2.133-17.067,4.267  c-1.067,2.133-2.133,11.733-8.533,23.467c-6.4,11.733-9.6,29.867-7.467,33.067c0,0,9.6,7.467,9.6,12.8s1.067,4.267,2.133,6.4  c1.067,2.133,2.133,9.6-4.267,8.533c0,0-2.133-4.267-2.133-7.467c0-2.133-2.133-3.2-2.133-3.2s1.067,12.8,2.133,14.933  c0,2.133,2.133,7.467,2.133,7.467s3.2,4.267,3.2,5.333c0,0,3.2,1.067,3.2,3.2c0,0,0,1.067-1.067,1.067  c-1.067,0-5.333-1.067-5.333-1.067s-3.2,2.133-9.6-3.2c0,0-1.067,2.133-3.2,1.067l-2.133-4.267c0,0-2.133-7.467-2.133-12.8  c0-6.4-3.2-20.267-3.2-20.267s-2.133-8.533,0-13.867c1.067-5.333,0-23.467,2.133-35.2s7.467-23.467,7.467-25.6  c0-2.133,2.133-2.133,3.2-3.2c1.067-1.067,30.933-23.467,30.933-23.467L218.493,132.267z" data-original="#FFD15C"/><path style="fill:#F5B54C;" d="M355.026,154.667c0,0,1.067-6.4,6.4-4.267l-1.067,3.2c0,0,0,1.067,1.067,2.133  c1.067,1.067,0,3.2,0,3.2c-1.067,1.067-2.133,2.133-2.133,2.133v6.4l-8.533-3.2l-4.267-5.333  C345.426,158.933,353.96,158.933,355.026,154.667z" data-original="#F5B54C"/><path style="fill:#F3F3F3;" d="M360.36,149.333l-1.067,3.2C358.226,152.533,360.36,149.333,360.36,149.333z" data-original="#F3F3F3" class=""/><path style="fill:#F5B54C;" d="M340.093,132.267l2.133,2.133c0,0,0,8.533,2.133,12.8c2.133,4.267,2.133,4.267,2.133,4.267  L331.56,169.6c0,0-7.467-2.133-8.533-8.533c-2.133-6.4-3.2-13.867-3.2-13.867C317.693,141.867,334.76,124.8,340.093,132.267z" data-original="#F5B54C"/><path style="fill:#425A6B;" d="M377.426,109.867l-3.2,20.267l-16,19.2c-3.2,1.067-4.267,4.267-4.267,4.267l0,0l-2.133,3.2  l-4.267,5.333l-27.733,34.133l2.133-23.467c11.733-7.467,32-34.133,52.267-59.733L377.426,109.867z" data-original="#425A6B"/><g>
	<ellipse style="fill:#FFD15C;" cx="266.493" cy="70.4" rx="3.2" ry="4.267" data-original="#FFD15C"/>
	<path style="fill:#FFD15C;" d="M309.16,45.867c0,2.133,1.067,13.867-1.067,18.133c-1.067,4.267-2.133,6.4-3.2,9.6   c0,3.2-5.333,4.267-5.333,4.267l3.2,12.8l1.067,6.4l-4.267,17.067c-1.067,19.2-4.267,18.133-10.667,5.333l-17.067-19.2   l-10.667-19.2c0,0,6.4-11.733,4.267-19.2c-2.133-7.467-4.267-9.6-4.267-9.6l-3.2-18.133c0,0,38.4-16,48-2.133   c0,0,1.067,5.333,1.067,7.467C309.16,42.667,309.16,44.8,309.16,45.867z" data-original="#FFD15C"/>
</g><path style="fill:#13A892" d="M342.226,134.4c0,0-1.067-1.067-4.267,2.133c-2.133,2.133-5.333,2.133-7.467,3.2  c-1.067,0-2.133,0-2.133,0s-2.133,7.467-3.2,9.6c-1.067,2.133-2.133,26.667-2.133,30.933s2.133,35.2,2.133,40.533  c0,5.333,0,21.333,3.2,26.667s1.067,8.533,1.067,8.533c0,1.067-23.467,3.2-33.067,1.067c-8.533-2.133-57.6,2.133-57.6,2.133  s-2.133-24.533-1.067-44.8c1.067-21.333-5.333-53.333-5.333-53.333l-5.333-24.533c0,0-7.467,4.267-9.6,4.267  c-1.067,0-11.733-11.733-13.867-12.8c-2.133-1.067-11.733-12.8-11.733-12.8s7.467-6.4,13.867-9.6c6.4-3.2,12.8-11.733,17.067-13.867  c5.333-2.133,8.533-7.467,13.867-9.6c5.333-3.2,20.267-7.467,20.267-7.467l6.4,2.133l13.867,21.333l10.667,6.4  c0,0,5.333,4.267,6.4,7.467c1.067,3.2,2.133,9.6,2.133,9.6l4.267-7.467l5.333-22.4v-12.8c0,0,13.867,2.133,19.2,4.267  c5.333,2.133,10.667,9.6,10.667,13.867s4.267,25.6,5.333,29.867C341.16,132.267,342.226,134.4,342.226,134.4z" data-original="#F26F5A" class="active-path" data-old_color="#13a892"/><polygon style="fill:#F3F3F3;" points="296.36,178.133 289.96,259.2 195.026,247.467 196.093,235.733 202.493,164.267 " data-original="#F3F3F3" class=""/><polygon style="fill:#E8EAE8;" points="195.026,247.467 202.493,164.267 140.626,178.133 134.226,252.8 " data-original="#E8EAE8"/><polygon style="fill:#CED6E0;" points="195.026,247.467 195.026,247.467 195.026,247.467 134.226,252.8 215.293,261.333   289.96,259.2 " data-original="#CED6E0"/><path style="fill:#F05640" d="M295.293,125.867V137.6l5.333-1.067c0,0-2.133-23.467,4.267-32C312.36,96,312.36,96,312.36,96  l-9.6,4.267C302.76,100.267,295.293,115.2,295.293,125.867z" data-original="#F05640" class=""/><path style="fill:#425A6B;" d="M259.026,43.733c0,0,10.667-5.333,11.733,8.533h3.2c0,0-3.2-17.067,7.467-18.133  C292.093,33.067,296.36,32,296.36,32l-6.4-10.667C288.893,20.267,252.626,25.6,259.026,43.733z" data-original="#425A6B"/><path style="fill:#F5B54C;" d="M304.893,97.067c-11.733-4.267-28.8-14.933-37.333-35.2c0,0,17.067,18.133,33.067,16l3.2,12.8  L304.893,97.067z" data-original="#F5B54C"/><path style="fill:#F05640" d="M310.226,99.2l1.067,1.067c0,0-5.333,5.333-9.6,9.6c-2.133,2.133-4.267,5.333-4.267,6.4l0,0  c-2.133,4.267-2.133,9.6-2.133,9.6s0-4.267,1.067-8.533c0-2.133,1.067-4.267,2.133-6.4c2.133-7.467,4.267-16,4.267-21.333  c0-2.133,0-6.4-1.067-8.533l0,0c0-1.067,0-2.133,0-2.133c1.067,0,3.2-1.067,4.267-3.2c2.133,4.267,7.467,12.8,9.6,16  c3.2,4.267,3.2,8.533,3.2,8.533h-8.533V99.2z" data-original="#F05640" class=""/><path style="fill:#48B9A5;" d="M310.226,32c0,0,7.467,3.2,8.533,4.267c2.133,1.067,5.333,1.067,6.4-1.067c0,0,0-1.067-1.067-2.133  c-1.067-1.067-3.2-2.133-5.333-3.2C315.56,29.867,312.36,30.933,310.226,32z" data-original="#48B9A5"/><path style="fill:#67C5B8;" d="M272.893,24.533v8.533c0,0,6.4,2.133,8.533,4.267c2.133,2.133,9.6,6.4,17.067,3.2  C305.96,37.333,309.16,32,315.56,32c6.4,0,9.6,3.2,9.6,3.2s0-2.133-2.133-3.2s-11.733-5.333-11.733-5.333l-10.667-3.2  L272.893,24.533z" data-original="#67C5B8"/><path style="fill:#48B9A5;" d="M257.96,39.467c0,0,11.733-3.2,16-5.333s26.667-9.6,37.333-7.467c0,0-4.267-7.467-5.333-12.8  C303.826,7.467,293.16,0,286.76,0s-17.067,3.2-23.467,9.6C256.893,17.067,257.96,39.467,257.96,39.467z" data-original="#48B9A5"/><ellipse transform="matrix(-0.3988 -0.917 0.917 -0.3988 326.6386 307.8025)" style="fill:#FFD15C;" cx="264.214" cy="46.833" rx="9.6" ry="5.333" data-original="#FFD15C"/><g>
	<path style="fill:#F05640" d="M267.56,66.133c0,0-2.133,6.4-1.067,9.6c1.067,3.2,10.667,21.333,12.8,22.4   c2.133,1.067,11.733,5.333,13.867,9.6c2.133,4.267,3.2,13.867,3.2,13.867s-2.133-9.6-4.267-12.8c-2.133-2.133-5.333-4.267-9.6-6.4   c-4.267-2.133-6.4-3.2-6.4-3.2s-10.667,2.133-14.933,1.067c0,0-2.133-8.533-2.133-10.667s-1.067-16-1.067-16s6.4-4.267,7.467-7.467   C266.493,64,267.56,64,267.56,64V66.133z" data-original="#F05640" class=""/>
	<path style="fill:#F05640" d="M330.493,139.733c-1.067,0-2.133,0-2.133,0s2.133-10.667,2.133-14.933   c0-4.267-1.067-10.667-1.067-10.667s1.067,7.467,2.133,10.667C331.56,126.933,330.493,134.4,330.493,139.733z" data-original="#F05640" class=""/>
</g><path style="fill:#F3F3F3;" d="M324.093,167.467l-1.067,22.4l48-57.6l3.2-19.2c0,0-41.6,50.133-43.733,51.2  C327.293,165.333,324.093,167.467,324.093,167.467z" data-original="#F3F3F3" class=""/><path style="fill:#FFD15C;" d="M341.16,160c0,0,1.067-3.2,4.267-2.133c0,0,2.133,1.067,2.133,2.133c0,0,2.133,2.133,3.2,2.133  c1.067,1.067,2.133,1.067,2.133,1.067l4.267,1.067c0,0,2.133,5.333-2.133,7.467l-1.067,1.067c0,1.067,0,4.267-3.2,4.267  c0,0-1.067,0-1.067,1.067s-2.133,2.133-3.2,2.133s-1.067,1.067-1.067,1.067s-1.067,2.133-3.2,1.067c-3.2-1.067-6.4-4.267-6.4-4.267  s-2.133-1.067-1.067-3.2c0-2.133,0-6.4,0-6.4s1.067-1.067,2.133-1.067c0,0-1.067-4.267,3.2-4.267  C337.96,163.2,336.893,158.933,341.16,160z" data-original="#FFD15C"/><g>
	<path style="fill:#F5B54C;" d="M341.16,160c0,1.067,1.067,2.133,1.067,3.2l0,0l1.067,1.067c0,0,1.067,0,1.067,1.067   c0,0,1.067,0,1.067,1.067c0,0,1.067,0,1.067,1.067c0,0,1.067,0,1.067,1.067c0,0,1.067,0,1.067,1.067   c1.067,0,1.067,1.067,2.133,2.133c-1.067,0-1.067-1.067-2.133-1.067c0,0-1.067,0-1.067-1.067c0,0-1.067,0-1.067-1.067   c0,0-1.067,0-1.067-1.067c0,0-1.067,0-1.067-1.067c0,0-1.067,0-1.067-1.067l-1.067-1.067l0,0l0,0   C342.226,162.133,341.16,161.067,341.16,160z" data-original="#F5B54C"/>
	<path style="fill:#F5B54C;" d="M337.96,163.2c0,1.067,0,1.067,0,2.133s0,1.067,0,2.133l0,0l1.067,1.067l1.067,1.067l1.067,1.067   l1.067,1.067c1.067,1.067,1.067,1.067,2.133,2.133c1.067,1.067,1.067,1.067,1.067,2.133c-1.067,0-1.067-1.067-2.133-1.067   c-1.067,0-1.067-1.067-2.133-2.133l-1.067-1.067l-1.067-1.067l-1.067-1.067l-1.067-1.067l0,0l0,0c0-1.067,0-1.067,0-2.133   C337.96,164.267,337.96,164.267,337.96,163.2z" data-original="#F5B54C"/>
	<path style="fill:#F5B54C;" d="M334.76,167.467c0,1.067,1.067,2.133,1.067,3.2l0,0l1.067,1.067c0,0,0,0,1.067,1.067   c0,0,0,0,1.067,1.067c0,0,0,0,1.067,1.067c0,0,0,0,1.067,1.067c0,0,0,0,1.067,1.067c0,0,1.067,1.067,1.067,2.133   c-1.067,0-1.067-1.067-1.067-1.067s0,0-1.067-1.067c0,0,0,0-1.067-1.067c0,0,0,0-1.067-1.067c0,0,0,0-1.067-1.067   c0,0,0,0-1.067-1.067l-1.067-2.133l0,0l0,0C334.76,169.6,334.76,168.533,334.76,167.467z" data-original="#F5B54C"/>
</g><g>
	<path style="fill:#FFD15C;" d="M358.226,161.067v5.333l-2.133-1.067l-1.067-2.133c0,0,2.133,1.067,3.2,0   C358.226,162.133,358.226,161.067,358.226,161.067z" data-original="#FFD15C"/>
	<path style="fill:#FFD15C;" d="M172.626,252.8c0-1.067-3.2-4.267-3.2-5.333c0,0-2.133-5.333-2.133-7.467   c0-2.133-2.133-14.933-2.133-14.933s2.133,1.067,2.133,3.2c0,2.133,2.133,7.467,2.133,7.467c6.4,1.067,5.333-6.4,4.267-8.533   c-1.067-2.133-2.133-1.067-2.133-6.4c0-5.333-9.6-12.8-9.6-12.8c-2.133-3.2,1.067-21.333,7.467-33.067   c2.133-4.267,4.267-8.533,5.333-12.8h-24.533c0,1.067-1.067,2.133-1.067,4.267c-2.133,11.733-1.067,29.867-2.133,35.2   c-1.067,5.333,0,13.867,0,13.867s3.2,13.867,3.2,20.267s2.133,12.8,2.133,12.8l2.133,4.267c2.133,2.133,3.2-1.067,3.2-1.067   c6.4,5.333,9.6,3.2,9.6,3.2S171.56,256,172.626,256c1.067,0,1.067-1.067,1.067-1.067C174.76,253.867,172.626,252.8,172.626,252.8z" data-original="#FFD15C"/>
</g></g> </svg>
