<?xml version="1.0"?>
<svg xmlns="http://www.w3.org/2000/svg" xmlns:xlink="http://www.w3.org/1999/xlink" version="1.1" id="Capa_1" x="0px" y="0px" viewBox="0 0 511.381 511.381" style="enable-background:new 0 0 511.381 511.381;" xml:space="preserve" width="512px" height="512px"><g><path style="fill:#425A6B;" d="M372.353,428.181c0,0-3.2,26.667-8.533,53.333c-6.4,26.667-6.4,29.867-6.4,29.867h-153.6l5.333-64  l23.467-120.533l44.8-18.133L372.353,428.181z" data-original="#425A6B"/><path style="fill:#FFD15C;" d="M357.42,511.381h-153.6l0,0l5.333-64l23.467-120.533l43.733-19.2l0,0l94.933,119.467l0,0  c0,0-3.2,26.667-8.533,53.333C357.42,507.114,357.42,511.381,357.42,511.381L357.42,511.381L357.42,511.381z M203.82,511.381h153.6  c0-1.067,1.067-6.4,6.4-29.867c5.333-25.6,8.533-52.267,8.533-53.333l-96-119.467l-43.733,18.133l-22.4,120.533L203.82,511.381z" data-original="#FFD15C"/><path style="fill:#F26F5A;" d="M252.887,147.647l-3.2-6.4c0,0-8.533,0-14.933,3.2c-6.4,3.2-14.933,23.467-14.933,34.133  c-1.067,10.667,0,19.2-1.067,25.6c-1.067,6.4-7.467,27.733-7.467,27.733s-14.933,62.933-13.867,71.467  c2.133,7.467,12.8,18.133,17.067,18.133s10.667-4.267,20.267-7.467c9.6-3.2,9.6-3.2,9.6-3.2l-7.467-117.333L252.887,147.647z" data-original="#F26F5A"/><path style="fill:#425A6B;" d="M220.887,286.314c0,0,10.667,7.467,9.6,14.933c-1.067,7.467-5.333,12.8-9.6,13.867  c-4.267,2.133-7.467,3.2-13.867-2.133c-5.333-4.267-10.667-16-10.667-16S212.353,282.047,220.887,286.314z" data-original="#425A6B"/><path style="fill:#F05640;" d="M233.687,337.514v1.067l-3.2,20.267c0,0-6.4,48-9.6,58.667c-3.2,10.667-10.667,44.8-17.067,25.6  c0,0,6.4-36.267,8.533-51.2c2.133-14.933,8.533-41.6,10.667-49.067c2.133-6.4,8.533-27.733,9.6-34.133  c1.067-6.4-3.2-52.267-5.333-62.933s-2.133-40.533,0-50.133c2.133-10.667,7.467-50.133,21.333-54.4l27.733-3.2l-23.467,35.2  c0,0-20.267,46.933-19.2,69.333c1.067,22.4,3.2,61.867,3.2,67.2C236.887,314.047,233.687,337.514,233.687,337.514z" data-original="#F05640"/><path style="fill:#F26F5A;" d="M361.687,142.314l13.867,1.067c0,0,10.667,3.2,14.933,22.4c4.267,19.2,4.267,33.067,4.267,37.333  c0,5.333-12.8,46.933-18.133,58.667c-5.333,11.733-13.867,36.267-13.867,36.267s-4.267,14.933-14.933,19.2  c-9.6,4.267-16,0-24.533-5.333c-8.533-5.333-80-54.4-80-54.4s7.467,0,14.933-4.267c7.467-4.267,14.933-25.6,4.267-32  c0,0,5.333-2.133,10.667,0c6.4,2.133,11.733,7.467,13.867,10.667c2.133,3.2,9.6,7.467,13.867,9.6  c5.333,2.133,12.8,11.733,13.867,13.867c0,1.067,10.667,6.4,10.667,6.4s4.267-2.133,4.267-3.2c0-1.067,4.267-24.533,5.333-28.8  c1.067-4.267,3.2-21.333,3.2-21.333l5.333-30.933C346.753,177.514,323.287,143.381,361.687,142.314z" data-original="#F26F5A"/><g>
	<path style="fill:#344A5E;" d="M345.687,83.647c-4.267,11.733-6.4,23.467-8.533,35.2c-1.067,6.4-1.067,12.8,0,19.2   c2.133,6.4,6.4,11.733,12.8,13.867c-5.333,0-10.667-1.067-16-3.2c-4.267-2.133-8.533-6.4-10.667-11.733   c-3.2-6.4-2.133-12.8-1.067-19.2c2.133-6.4,5.333-11.733,8.533-18.133c3.2-6.4,7.467-12.8,10.667-20.267" data-original="#344A5E"/>
	<path style="fill:#344A5E;" d="M255.02,74.047c0,0,11.733,72.533,17.067,81.067c5.333,8.533,5.333,8.533,5.333,8.533l27.733-45.867   C304.087,118.847,295.553,71.914,255.02,74.047z" data-original="#344A5E"/>
</g><path style="fill:#FFD15C;" d="M341.42,83.647c0,0-2.133,21.333-13.867,30.933c0,0,0,18.133,6.4,26.667  c6.4,8.533,6.4,8.533,6.4,8.533l-52.267,97.067l-52.267-43.733l49.067-74.667l1.067-5.333c0,0-20.267-18.133-20.267-42.667  s0-24.533,0-24.533s25.6-41.6,45.867-42.667c20.267,0,20.267,0,20.267,0S352.087,56.981,341.42,83.647z" data-original="#FFD15C"/><path style="fill:#E8EAE8;" d="M252.887,176.447c0,0-20.267,67.2-17.067,89.6v1.067c1.067,4.267,2.133,8.533,2.133,12.8  s0,8.533,1.067,12.8c0,5.333,1.067,10.667,0,14.933c0,3.2,0,5.333-1.067,8.533c0,2.133-1.067,4.267-2.133,7.467  c-1.067,4.267-2.133,8.533-3.2,12.8c19.2,16,60.8,10.667,60.8,10.667l23.467-154.667  C283.82,206.314,260.353,203.114,252.887,176.447z" data-original="#E8EAE8"/><path style="fill:#F26F5A;" d="M288.087,123.114c0,0,0,9.6-4.267,21.333c-4.267,12.8-16,32-18.133,36.267  c-2.133,4.267-17.067,30.933-20.267,45.867c-3.2,13.867-2.133,59.733-2.133,69.333c0,9.6-11.733,62.933-11.733,62.933  s3.2-50.133,3.2-60.8s-6.4-65.067-4.267-76.8s14.933-53.333,14.933-53.333l9.6-3.2l-5.333-8.533c0,0,19.2-13.867,24.533-18.133  C278.487,132.714,287.02,126.314,288.087,123.114z" data-original="#F26F5A"/><path style="fill:#FFD15C;" d="M265.687,246.847c0,0-5.333,2.133-8.533,0c-3.2-1.067-4.267,0-6.4,0c-1.067,0-5.333,3.2-5.333,3.2  s0,0-1.067,2.133c-2.133,2.133-4.267,3.2-6.4,2.133c-2.133-1.067-3.2-4.267-3.2-5.333c0,0-3.2,2.133-5.333,2.133  c-1.067-1.067-4.267-3.2-4.267-5.333c0,0-2.133,1.067-5.333,0c-3.2-1.067-4.267-4.267-4.267-6.4c1.067-2.133,7.467-9.6,7.467-9.6  s-1.067-3.2-3.2-4.267c-2.133-1.067-6.4-3.2-7.467-4.267c-1.067,0-8.533-1.067-8.533-1.067l-5.333-7.467c0,0,3.2,0,6.4,1.067  c3.2,0,7.467,0,8.533,0c1.067,0,4.267,0,6.4,0c1.067,1.067,6.4,2.133,8.533,2.133s7.467,0,10.667,1.067  c2.133,1.067,21.333,4.267,23.467,5.333c2.133,0,5.333,2.133,5.333,2.133S278.487,238.314,265.687,246.847z" data-original="#FFD15C"/><path style="fill:#F5B54C;" d="M166.487,283.114l66.133,7.467c2.133,0,4.267-2.133,3.2-4.267l-44.8-94.933  c-1.067-2.133-3.2-3.2-4.267-3.2l-62.933-3.2c-2.133,0-3.2,2.133-3.2,4.267l43.733,92.8  C164.353,282.047,165.42,283.114,166.487,283.114z" data-original="#F5B54C"/><path style="fill:#ACB2BA" d="M165.42,282.047l70.4,7.467c2.133,0,4.267-2.133,3.2-4.267l-46.933-99.2  c-1.067-2.133-3.2-3.2-5.333-3.2l-67.2-4.267c-2.133,0-4.267,2.133-3.2,4.267l45.867,98.133  C163.287,282.047,164.353,282.047,165.42,282.047z" data-original="#ACB2BA" class="active-path"/><path style="fill:#E8EAE8;" d="M166.487,283.114l66.133,7.467c2.133,0,4.267-2.133,3.2-4.267l-44.8-94.933  c-1.067-2.133-3.2-3.2-4.267-3.2l-62.933-3.2c-2.133,0-3.2,2.133-3.2,4.267l43.733,92.8  C164.353,282.047,165.42,283.114,166.487,283.114z" data-original="#E8EAE8"/><path style="fill:#F05640;" d="M341.42,128.447c0,0,30.933,9.6,35.2,14.933c0,0-23.467,8.533-28.8,29.867  c-5.333,22.4,2.133,126.933,6.4,146.133c4.267,19.2,37.333,123.733,37.333,123.733s-41.6,17.067-71.467,19.2  c-29.867,2.133-43.733-3.2-50.133-40.533s-3.2-68.267-2.133-74.667s11.733-57.6,11.733-57.6l22.4-84.267l29.867-54.4" data-original="#F05640"/><path style="fill:#F26F5A;" d="M331.82,122.047c0,0-9.6,22.4-12.8,32c-3.2,9.6-20.267,39.467-24.533,48s-16,33.067-17.067,51.2  c-2.133,18.133-9.6,94.933-9.6,94.933s18.133-61.867,21.333-72.533c3.2-10.667,18.133-56.533,25.6-68.267  c7.467-11.733,20.267-38.4,20.267-38.4l-6.4-5.333l10.667-7.467c0,0,8.533-18.133,9.6-21.333  C349.953,131.647,341.42,120.981,331.82,122.047z" data-original="#F26F5A"/><path style="fill:#344A5E;" d="M309.42,28.181c0,0-18.133-1.067-23.467,9.6c-4.267,10.667-4.267,14.933-9.6,28.8  c-5.333,13.867-11.733,25.6-13.867,34.133c-2.133,8.533,4.267,52.267,13.867,62.933c0,0-7.467-5.333-8.533-11.733  c0,0-5.333,9.6-17.067,11.733c-12.8,2.133-18.133-1.067-18.133-1.067s21.333-8.533,19.2-29.867s-3.2-53.333,0-73.6  s32-64,62.933-58.667s41.6,51.2,41.6,62.933s-6.4,57.6-2.133,69.333c5.333,11.733,11.733,14.933,11.733,14.933  s-10.667-6.4-16-17.067c0,0,4.267,21.333,17.067,39.467c0,0-32-17.067-38.4-40.533c-3.2-13.867,16-42.667,16-49.067  s-7.467-20.267-14.933-29.867C324.353,40.981,320.087,31.381,309.42,28.181z" data-original="#344A5E"/><ellipse transform="matrix(0.246 -0.9693 0.9693 0.246 187.8471 391.7772)" style="fill:#FFD15C;" cx="345.737" cy="75.15" rx="13.867" ry="7.467" data-original="#FFD15C"/><path style="fill:#344A5E;" d="M287.02,122.047c2.133,4.267,2.133,9.6,1.067,14.933c-1.067,5.333-3.2,9.6-3.2,14.933  c-1.067,8.533,0,18.133,5.333,25.6c-3.2-2.133-5.333-5.333-6.4-8.533c-1.067-3.2-2.133-7.467-2.133-10.667  c-1.067-3.2-2.133-7.467-4.267-10.667c1.067,6.4,2.133,11.733,4.267,18.133c-4.267-2.133-7.467-5.333-9.6-9.6  c-5.333-8.533-5.333-19.2-1.067-28.8" data-original="#344A5E"/><path style="fill:#F26F5A;" d="M394.753,204.181c0,5.333-12.8,46.933-18.133,58.667c-5.333,10.667-13.867,35.2-13.867,35.2  s-4.267,14.933-14.933,19.2c-9.6,4.267-16,0-24.533-5.333c-8.533-5.333-80-54.4-80-54.4s7.467,0,14.933-4.267  c7.467-4.267,14.933-25.6,4.267-32c0,0,5.333-2.133,10.667,0c6.4,2.133,11.733,7.467,13.867,10.667c2.133,3.2,9.6,7.467,13.867,9.6  c5.333,2.133,12.8,11.733,13.867,13.867c0,1.067,10.667,6.4,10.667,6.4s4.267-2.133,4.267-3.2c0-1.067,4.267-24.533,5.333-28.8  c1.067-4.267,3.2-21.333,3.2-21.333l5.333-30.933h46.933C395.82,190.314,395.82,199.914,394.753,204.181z" data-original="#F26F5A"/><path style="fill:#FFD15C;" d="M229.42,296.981c0,0-2.133,3.2-7.467,5.333c-4.267,1.067-16,0-17.067-1.067  c0,0-4.267,1.067-6.4,1.067c-2.133,1.067-5.333-1.067-5.333-1.067s-6.4,0-8.533-1.067c-2.133-1.067-4.267-6.4-4.267-8.533  c0-2.133-3.2-14.933-3.2-14.933s-2.133-12.8-1.067-14.933c0-2.133,1.067-6.4,4.267-6.4c0,0,1.067,0,1.067,1.067  c0,0,1.067-2.133,4.267-2.133c2.133,0,5.333,3.2,5.333,6.4c0,0,2.133-1.067,3.2-1.067c2.133,0,3.2,2.133,4.267,3.2  c0,1.067,2.133,9.6,2.133,9.6s1.067-1.067,2.133-1.067s2.133,0,3.2,1.067c1.067,1.067,3.2,7.467,4.267,8.533  c0,1.067,1.067,4.267,1.067,4.267s2.133,1.067,4.267,1.067c1.067,0,7.467,1.067,10.667,1.067l0,0  C226.22,291.647,228.353,293.781,229.42,296.981z" data-original="#FFD15C"/><g>
	<path style="fill:#F5B54C;" d="M201.687,289.514c0,0,0-1.067-1.067-2.133c0-1.067-1.067-2.133-1.067-2.133v-1.067v-1.067v-1.067   v-1.067c0-1.067,0-2.133,0-3.2s0-1.067,0-2.133v-1.067c0,0,0,0,0,1.067c0,0,0,1.067,0,2.133v1.067v1.067v1.067v1.067v1.067v1.067   c0,1.067,0,2.133,1.067,2.133C201.687,288.447,201.687,289.514,201.687,289.514z" data-original="#F5B54C"/>
	<path style="fill:#F5B54C;" d="M188.887,260.714c0,0,0,2.133,1.067,4.267c0,1.067,0,1.067,0,2.133c0,1.067,0,2.133,0,2.133   c0,1.067,0,2.133,0,3.2c0,1.067,0,2.133,0,3.2s0,2.133,0,3.2v1.067v1.067c1.067,2.133,1.067,3.2,2.133,4.267   c1.067,1.067,1.067,2.133,1.067,3.2v1.067l0,0l0,0c0,0,0,0,0-1.067c0-1.067-1.067-2.133-1.067-3.2s-1.067-1.067-1.067-2.133   s-1.067-1.067-1.067-2.133v-1.067v-1.067c0-1.067,0-2.133,0-3.2c0-1.067,0-2.133,0-3.2c0-1.067,0-2.133,0-3.2s0-2.133,0-2.133   c0-1.067,0-1.067,0-2.133c0-1.067,0-2.133,0-3.2C188.887,261.781,188.887,260.714,188.887,260.714z" data-original="#F5B54C"/>
	<path style="fill:#F5B54C;" d="M179.287,256.447c0,0,0,0,0,1.067s0,2.133,0,4.267v1.067v1.067c0,1.067,0,2.133,1.067,3.2   c0,1.067,0,2.133,1.067,3.2c0,1.067,0,2.133,1.067,3.2c0,1.067,1.067,2.133,1.067,3.2s1.067,2.133,1.067,3.2   c1.067,2.133,1.067,3.2,1.067,5.333c0,1.067,0,1.067,1.067,2.133c0,1.067,0,1.067,0,2.133c0,1.067,0,1.067,0,1.067l0,0v-1.067   v-1.067c0-1.067,0-1.067-1.067-2.133c0-1.067-1.067-3.2-2.133-5.333c0-1.067-1.067-2.133-1.067-3.2s-1.067-2.133-1.067-3.2   c0-1.067,0-2.133-1.067-3.2c0-1.067,0-2.133-1.067-3.2c0-1.067,0-2.133,0-3.2c0-1.067,0-2.133,0-2.133c0-1.067,0-1.067,0-2.133   c0-1.067,0-1.067,0-2.133C179.287,257.514,179.287,257.514,179.287,256.447L179.287,256.447z" data-original="#F5B54C"/>
	<path style="fill:#F5B54C;" d="M227.287,244.714c0,0,0-1.067,1.067-2.133v-1.067c0,0,0-1.067,1.067-1.067l0,0l0,0l1.067-1.067   l1.067-1.067l1.067-1.067c1.067-1.067,1.067-1.067,2.133-1.067c1.067-1.067,2.133-1.067,2.133-1.067s0,1.067-1.067,2.133   c0,0-1.067,1.067-1.067,2.133l-1.067,1.067l-1.067,1.067l-1.067,1.067l0,0l0,0c0,0,0,0-1.067,1.067c0,0,0,1.067-1.067,1.067   C227.287,244.714,227.287,244.714,227.287,244.714z" data-original="#F5B54C"/>
	<path style="fill:#F5B54C;" d="M235.82,248.981c0,0,0-1.067,1.067-1.067c0,0,0,0,0-1.067c0,0,0,0,0-1.067c0,0,0-1.067,1.067-1.067   l0,0l0,0c0,0,0,0,1.067-1.067c0,0,0,0,1.067-1.067l1.067-1.067c1.067,0,1.067-1.067,1.067-1.067s0,0-1.067,1.067l-1.067,1.067   c0,0,0,0-1.067,1.067c0,0,0,0-1.067,1.067l0,0l0,0c0,0,0,0-1.067,1.067l-1.067,1.067   C236.887,248.981,235.82,248.981,235.82,248.981z" data-original="#F5B54C"/>
</g></g> </svg>
