<svg viewBox="0 -18 511.99779 511" xmlns="http://www.w3.org/2000/svg"><path d="m231.707031 201.378906-1.910156-.03125-4.660156 76.691406 1.640625.386719.515625.113281c2.371093.535157 5.320312 1.207032 7.917969 1.484376l2.15625.234374 2.1875-78.832031h-2.058594c-1.929688.003907-3.859375-.019531-5.789063-.046875zm0 0" fill="#cbe580"/><path d="m175.246094 197.105469-1.828125-.253907-15.5 69.65625 2.84375.414063c2.03125.292969 4.070312.589844 6.1875.910156.507812.070313 1.085937.15625 1.699219.265625l1.882812.335938 15.714844-69.929688-2.203125-.261718c-2.949219-.351563-5.910157-.730469-8.796875-1.136719zm0 0" fill="#cbe580"/><path d="m121.472656 186.398438-3.59375-.9375-15.03125 73.527343 2.140625.273438 2.347657.304687c.292968.042969.589843.085938.898437.121094l1.785156.191406.382813-1.753906c2.476562-11.347656 4.929687-22.046875 7.300781-32.394531l.234375-1.023438c2.421875-10.527343 5.167969-22.457031 7.933594-35.183593l.414062-1.890626-1.875-.472656c-.980468-.246094-1.957031-.503906-2.9375-.761718zm0 0" fill="#cbe580"/><path d="m366.988281 262.5625 1.277344 3.660156 54.070313-4.542968c2.253906-.1875 5.230468-.40625 8.246093-.40625 1.75 0 3.335938.070312 4.855469.214843l2.488281.242188-5.398437-42.828125zm0 0" fill="#4996f2"/><path d="m422.636719 182.226562-6.605469.828126c-.816406.101562-1.628906.214843-2.464844.335937l-48.480468 7.449219-54.625 47.308594 3.898437 36.792968zm0 0" fill="#4996f2"/><path d="m315.765625 288.28125-.121094 1.753906c-.664062 9.351563-1.078125 18.800782-1.226562 28.089844l-.097657 6.09375 9.675782-12.71875.046875-.589844c.546875-7.222656 1.175781-14.375 1.863281-21.261718l.261719-2.621094-2.59375.449218c-2.039063.355469-4.074219.59375-6.050781.707032zm0 0" fill="#4996f2"/><path d="m263.203125 442.164062-.09375 1.835938c-.347656 6.964844-.691406 12.628906-1.074219 17.820312l-.179687 2.433594 43.152343-5.355468-.597656-18.167969zm0 0" fill="#4996f2"/><path d="m232.875 400.792969c-.066406-14.546875-.140625-29.59375 3.761719-44.050781.976562-3.609376 2.367187-7.722657 5.273437-10.878907 2.425782-2.640625 5.835938-4.21875 9.121094-4.21875 1.109375 0 2.175781.179688 3.167969.527344 7.527343 2.664063 8.191406 12.949219 8.410156 16.351563 1.679687 26.765624 1.914063 54.167968.6875 81.445312l-.09375 2.164062 41.207031-1.4375-4.59375-140.941406-2.398437.59375c-10.207031 2.527344-20.742188 3.996094-31.320313 4.359375l-.609375.011719-.503906.375-.515625-.335938-1.421875.023438c-.8125.019531-1.628906.035156-2.4375.035156-17.597656 0-34.804687-2.917968-51.136719-8.675781l-2.300781-.808594-.34375 2.414063c-2.71875 19.027344-4.296875 38.480468-5.824219 57.289062-.867187 10.742188-1.765625 21.847656-2.867187 32.730469l-5.585938 55.332031 40.546875 1.273438zm0 0" fill="#4996f2"/><path d="m267.039062 304.625c10.652344-.4375 21.15625-1.960938 31.222657-4.519531l1.558593-.394531-.292968-8.667969c-.101563-3.191407-.3125-5.988281-1.835938-7.902344-1.355468-1.699219-3.53125-2.519531-6.652344-2.519531-2.476562 0-5.308593.527344-7.5.988281-5.585937 1.164063-11.332031 2.03125-17.082031 2.585937l-1.84375.179688.382813 20.335938zm0 0" fill="#4996f2"/><path d="m247.257812 304.210938c4.320313.371093 8.761719.554687 13.199219.554687.835938 0 1.667969-.003906 2.5-.019531l2.007813-.03125-.386719-20.332032-2.105469.148438c-3.679687.261719-7.421875.394531-11.125.394531-1.167968 0-2.335937-.011719-3.507812-.039062l-1.996094-.042969-.460938 19.207031zm0 0" fill="#4996f2"/><path d="m243.1875 303.785156 2.167969.242188.460937-19.191406-1.960937-.085938c-2.917969-.125-5.890625-.34375-8.835938-.652344-2.777343-.28125-5.675781-.929687-8.480469-1.558594l-.128906-.03125c-3.433594-.777343-6.984375-1.578124-9.941406-1.578124-2.058594 0-3.648438.398437-4.84375 1.207031-1.765625 1.183593-2.898438 3.40625-3.460938 6.804687-.164062 1.015625-.316406 2.035156-.472656 3.054688l-.5 3.277344 1.550782.558593c11.019531 3.949219 22.609374 6.625 34.445312 7.953125zm0 0" fill="#4996f2"/><path d="m208.003906 465.628906c.40625.003906.8125.007813 1.21875.007813 7.527344 0 15.0625-.8125 22.390625-2.414063l1.582031-.347656-.097656-18.476562-40.5625-1.269532-.226562 2.375c-.605469 5.914063-.929688 12.550782 2.914062 16.417969 3.144532 3.179687 8.480469 3.652344 12.78125 3.707031zm0 0" fill="#4996f2"/><path d="m315.347656 284.246094 1.90625-.109375c4.738282-.273438 9.378906-1.21875 13.789063-2.804688l1.429687-.515625-.109375-1.515625c-.164062-2.199219.359375-4.160156 1.550781-5.828125 4.691407-6.542968 18.941407-6.851562 26.597657-7.015625l.582031-.011719 71.421875-47.582031-2.992187-23.742187c-.511719-4.097656-1.234376-8.28125-3.984376-10.5-.976562-.777344-2.191406-1.285156-3.703124-1.554688l-2.222657-.347656-.125 2.25-105.121093 90.011719zm0 0" fill="#5bd0fc"/><path d="m310.453125 238.105469 54.566406-47.257813-38.59375 5.921875c-7.402343 1.132813-14.628906 2.941407-17.371093 8.46875-1.601563 3.230469-1.351563 7.039063-.855469 11.683594zm0 0" fill="#5bd0fc"/><path d="m314.347656 324.894531c-.019531 7.773438.136719 15.582031.460938 23.199219l.21875 5.058594 7.164062-8.34375.023438-.699219c.308594-8.582031.75-17.292969 1.320312-25.890625l.433594-6.621094-9.621094 12.625zm0 0" fill="#5bd0fc"/><path d="m158.449219 386.96875 20.03125-100.164062c.691406-3.492188 1.167969-6.585938-.003907-9.058594-1.824218-3.882813-7.203124-5.167969-12.222656-5.917969-19.398437-2.902344-39.382812-5.671875-59.394531-8.226563-2.8125-.355468-5.625-.738281-8.453125-1.125l-.457031-.0625c-6.824219-.925781-13.882813-1.878906-20.796875-2.429687-1.289063-.105469-2.371094-.15625-3.308594-.15625-4.371094 0-6.796875 1.195313-8.664062 4.269531-2.613282 4.28125-3.246094 10.320313-3.863282 16.179688-.210937 2.113281-.429687 4.175781-.742187 6.121094l-22.019531 136.554687 45.609374 3.117187 14.003907-90.394531c.667969-4.320312 1.429687-9.210937 3.976562-13.386719 1.992188-3.261718 6.167969-7.070312 11.394531-7.070312.550782 0 1.113282.046875 1.65625.132812 5.535157.902344 9.109376 6.007813 10.195313 10.671876 1.109375 4.757812.304687 9.640624-.40625 13.949218l-15.023437 90.59375 38.613281 5.761719 9.433593-47.132813-.082031-.398437c-.046875-.238281-.0625-.4375-.046875-.59375.03125-.3125.144532-.605469.34375-.898437zm6.800781-99.847656c.003906-.023438.027344-.027344.027344-.027344l.003906.019531-.773438 4.660157zm-4.402344 24.648437c.003906-.003906.011719-.007812.015625-.007812l.011719.023437-2.285156 16.367188zm-112.789062 103.179688h-.019532l1.097657-13.71875.027343.019531zm5.097656-31.269531h-.023438l.953126-14.097657h.003906l.023437.023438zm4.773438-29.96875.929687-9.125.027344.019531zm4.117187-21.640626-.109375-.027343 1.558594-14.460938s.011718-.015625.027344-.015625l.007812.015625zm3.875-30.289062.8125-7.238281c.003906-.023438.023437-.027344.023437-.027344l.011719.019531zm3.152344-17.390625-.046875-.027344 2.835937-14.03125c.003907-.023437.019531-.023437.019531-.023437l.023438.011718zm69.34375 142.210937 2.039062-8.882812.019531.011719zm4.160156-20.648437 2.347656-13.3125.011719.023437zm3.511719-24.242187 2.75-13.679688c0-.003906.007812-.011719.019531-.011719l.007813.027344zm6.640625-27.367188 2.457031-14.453125.019531.015625zm0 0" fill="#5bd0fc"/><path d="m144.121094 458.609375 4.449218-22.25-38.605468-5.757813-3.640625 21.941407zm0 0" fill="#5bd0fc"/><path d="m71.335938 447.253906c2.375 0 4.164062-.378906 5.621093-1.203125 4.164063-2.332031 5.367188-8.078125 6.167969-13.277343l1.03125-6.671876-45.613281-3.125-3.0625 19.035157 1.863281.390625c9.84375 2.078125 19.941406 3.625 30.003906 4.605468 1.285156.128907 2.660156.246094 3.988282.246094zm0 0" fill="#5bd0fc"/><path d="m256.507812 205.320312c-3.925781-3.273437-9.507812-3.796874-14.953124-3.871093l-1.972657-.027344-2.1875 78.816406 1.898438.144531c4.074219.308594 8.167969.46875 12.167969.46875 2.839843 0 5.695312-.078124 8.488281-.238281l1.867187-.101562.628906-53.753907c.085938-7.898437-.296874-16.722656-5.9375-21.4375zm0 0" fill="#5fc980"/><path d="m258.554688 358.785156c-.460938-7.398437-2.328126-11.578125-5.714844-12.78125-.578125-.207031-1.199219-.308594-1.84375-.308594-2.511719 0-4.796875 1.507813-6.101563 2.917969-2.308593 2.515625-3.484375 6.054688-4.328125 9.183594-2.90625 10.757813-3.445312 22-3.589844 30.597656l-.035156 2.117188 22.902344-.914063-.046875-1.96875c-.230469-9.695312-.648437-19.402344-1.242187-28.84375zm0 0" fill="#5fc980"/><path d="m188.054688 198.679688-1.777344-.195313-15.707032 69.917969 1.828126.511718c4.964843 1.386719 8.160156 3.710938 9.761718 7.105469.738282 1.570313 1.097656 3.328125 1.097656 5.378907v1.4375l1.363282.457031c5.402344 1.816406 11.042968 2.738281 16.769531 2.738281.625 0 1.253906-.011719 1.882813-.035156l1.355468-.050782.453125-1.277343c.933594-2.628907 2.371094-4.617188 4.265625-5.902344 1.894532-1.28125 4.21875-1.902344 7.105469-1.902344 1.789063 0 3.828125.230469 6.417969.726563l2.234375.429687 4.664062-76.675781-2.078125-.046875c-13.164062-.292969-26.5-1.175781-39.636718-2.617187zm0 0" fill="#5fc980"/><path d="m201.367188 290.109375c-5.628907 0-11.234376-.847656-16.664063-2.511719l-2.113281-.652344-19.933594 99.722657 31.183594 3.292969.257812-2.609376c1.09375-10.828124 1.992188-21.917968 2.863282-32.640624 1.5625-19.386719 3.335937-41.355469 6.5625-62.308594l.355468-2.304688h-2.332031c-.082031 0-.167969.003906-.179687.011719zm0 0" fill="#5fc980"/><path d="m171.257812 196.527344c-14.292968-2.085938-28.742187-4.910156-42.953124-8.390625l-1.996094-.488281-.433594 2.003906c-2.609375 12-5.195312 23.273437-7.703125 34.175781l-.203125.890625c-2.640625 11.492188-5.027344 21.910156-7.464844 33.074219l-.464844 2.128906 2.164063.28125c14.441406 1.867187 29.199219 3.894531 43.859375 6.023437l1.835938.269532 15.488281-69.65625zm0 0" fill="#5fc980"/><path d="m114.542969 319.363281c-.324219-.050781-.652344-.078125-.984375-.078125-3.332032 0-6.394532 2.574219-7.949219 5.121094-2.125 3.488281-2.785156 7.761719-3.429687 11.90625l-6.398438 41.28125 18.6875.953125 6.515625-39.3125c.675781-4.097656 1.378906-8.335937.453125-12.292969-.757812-3.230468-3.234375-6.976562-6.894531-7.578125zm0 0" fill="#5fc980"/><path d="m100.960938 258.71875 1.851562.25 15.039062-73.566406-1.859374-.464844-.5625-.144531-.828126-.230469c-4.746093-1.316406-9.226562-2.558594-13.871093-2.652344l-.414063-.003906c-5.066406 0-9.550781 1.625-12.292968 4.460938-3.496094 3.597656-4.535157 8.929687-5.445313 15.015624l-8.152344 54.34375 2.171875.136719c.285156.019531.558594.039063.871094.070313 7.398438.59375 14.882812 1.621094 21.492188 2.527344zm0 0" fill="#5fc980"/><path d="m442.789062 393.480469c-3.050781 0-6.28125-.179688-9.589843-.53125-6.296875-.671875-12.769531-1.886719-18.484375-2.957031-6.921875-1.296876-14.078125-2.636719-21.277344-3.21875-2.222656-.179688-4.441406-.269532-6.59375-.269532-12.519531 0-22.796875 2.933594-30.542969 8.722656l-.789062.585938-.015625.984375c-.070313 4.738281-.230469 9.539063-.476563 14.265625l-.164062 3.140625 2.914062-1.183594c12.597657-5.113281 26.480469-7.816406 40.152344-7.816406 6.117187 0 12.226563.53125 18.164063 1.582031 3.808593.683594 7.628906 1.574219 11.324218 2.4375 5.753906 1.351563 11.703125 2.75 17.742188 3.335938 1.789062.171875 3.566406.257812 5.285156.257812 7.425781 0 14.085938-1.636718 19.265625-4.734375l1.066406-.636719-.097656-1.238281c-.421875-5.246093-.886719-10.554687-1.382813-15.78125l-.273437-2.824219-2.566406 1.203126c-6.621094 3.101562-14.582031 4.675781-23.660157 4.675781zm0 0" fill="#ffda8e"/><path d="m452.570312 439.425781c-7.984374 0-15.953124-.839843-22-1.574219-2.761718-.339843-5.515624-.699218-8.28125-1.066406-9.910156-1.300781-20.160156-2.648437-30.417968-2.648437-1.363282 0-2.714844.023437-4.019532.074219-9.707031.367187-23.722656 2.460937-35.347656 10.351562l-.785156.535156-.085938.945313c-.609374 6.832031-.574218 15.234375 5.132813 19.566406 3.375 2.5625 7.898437 2.859375 11.011719 2.859375 1.863281 0 3.753906-.125 5.359375-.246094 25.132812-1.898437 50.570312-4.964844 75.609375-9.121094 6.113281-1.019531 11.503906-2.125 15.582031-5.367187 3.6875-2.921875 6.011719-7.300781 7.105469-13.382813l.511718-2.839843-2.839843.519531c-5.109375.9375-10.519531 1.394531-16.535157 1.394531zm0 0" fill="#ffda8e"/><path d="m426.46875 340.457031c-5.714844-.464843-11.484375-1.335937-17.113281-2.1875l-.175781-.023437c-6.722657-1.011719-13.671876-2.054688-20.570313-2.394532-1.515625-.078124-3.019531-.117187-4.472656-.117187-12.382813 0-22.636719 2.75-30.476563 8.167969l-.996094.6875.148438 1.203125c.5 4.074219.949219 8.40625 1.332031 12.875l.269531 3.171875 2.742188-1.621094c7.886719-4.664062 17.835938-7.03125 29.582031-7.03125.957031 0 1.925781.015625 2.902344.046875 7.257813.246094 14.570313 1.265625 21.644531 2.25l.328125.046875c5.640625.785156 11.46875 1.601562 17.230469 2.019531 2.5625.183594 5.058594.277344 7.429688.277344 10.878906 0 19.796874-1.886719 27.257812-5.765625l1.25-.648438-.191406-1.394531c-.582032-4.273437-1.199219-8.589843-1.835938-12.839843l-.402344-2.703126-2.453124 1.207032c-7.023438 3.445312-15.289063 5.121094-25.269532 5.121094-2.59375 0-5.339844-.117188-8.160156-.347657zm0 0" fill="#ffda8e"/><path d="m347.609375 314.136719.507813 2.421875 2.261718-1.003906c7.484375-3.320313 16.324219-4.933594 27.019532-4.933594 8.15625 0 16.71875.914062 24.753906 1.902344 7.753906.953124 16.542968 2.039062 25.394531 2.039062 11.621094 0 21.125-1.902344 29.054687-5.8125l1.351563-.664062-.265625-1.484376c-.882812-4.863281-1.820312-9.832031-2.796875-14.769531l-.464844-2.363281-2.238281.890625c-9.960938 3.972656-21.179688 5.742187-36.378906 5.742187-5.992188 0-12.042969-.273437-17.175782-.542968l-1.328124-.070313c-6.628907-.34375-13.484376-.703125-20.253907-.703125-12.472656 0-22.339843 1.257813-31.054687 3.960938l-1.804688.5625.457032 1.832031c1.019531 4.09375 2.015624 8.464844 2.960937 12.996094zm0 0" fill="#ffda8e"/><path d="m351.460938 388.132812-2.515626.683594c-2.863281.777344-5.808593 1.171875-8.757812 1.171875-3.984375 0-7.890625-.695312-11.617188-2.066406l-2.746093-1.011719.054687 2.925782c.09375 5.039062.199219 9.144531.332032 12.921874l.042968 1.25 1.140625.507813c3.761719 1.679687 7.976563 2.566406 12.1875 2.566406 3.59375 0 7.089844-.621093 10.390625-1.847656l1.261719-.46875.042969-1.339844c.136718-4.109375.203125-8.375.191406-12.683593zm0 0" fill="#ffda8e"/><path d="m332.558594 366.183594c1.523437 0 3.160156-.191406 4.730468-.554688 1.796876-.417968 3.503907-.980468 5.382813-1.601562 1.925781-.636719 3.917969-1.292969 5.949219-1.722656l1.726562-.367188-.148437-1.757812c-.351563-4.238282-.792969-8.621094-1.316407-13.019532l-.308593-2.617187-2.441407 1.003906c-3.488281 1.4375-7.167968 2.167969-10.933593 2.167969-2.21875 0-4.449219-.257813-6.621094-.773438l-2.382813-.566406-.078124 2.449219c-.132813 4.34375-.234376 9.078125-.300782 14.476562l-.015625 1.34375 1.234375.523438c1.589844.675781 3.449219 1.015625 5.523438 1.015625zm0 0" fill="#ffda8e"/><path d="m339.566406 434.488281c-3.082031 0-6.128906-.460937-9.054687-1.371093l-2.832031-.878907.246093 2.957031c.339844 4.070313.765625 7.09375 1.382813 9.796876l.191406.839843.742188.4375c2.695312 1.589844 5.871093 2.433594 9.183593 2.433594 2.359375 0 4.730469-.445313 6.863281-1.28125l1.144532-.453125.117187-1.222656c.160157-1.730469.375-3.34375.566407-4.765625l.042968-.324219c.171875-1.242188.324219-2.492188.472656-3.738281l.460938-3.804688-2.765625.625c-2.21875.496094-4.492187.75-6.761719.75zm0 0" fill="#ffda8e"/><path d="m333.230469 323.921875c3.542969 0 7.078125-.824219 10.214843-2.382813l1.367188-.675781-.292969-1.496093c-.628906-3.226563-1.332031-6.589844-2.101562-9.988282l-.515625-2.296875-2.183594.882813c-2.386719.964844-4.917969 1.453125-7.519531 1.453125-.648438 0-1.3125-.046875-1.929688-.101563l-2.011719-.171875-.152343 2.011719c-.28125 3.648438-.511719 7.011719-.714844 10.28125l-.105469 1.753906 1.722656.332032c1.378907.265624 2.796876.398437 4.222657.398437zm0 0" fill="#ffda8e"/><g fill="#ffc973"><path d="m471 410.636719-.222656-3-2.679688 1.371093c-4.910156 2.511719-11.027344 3.839844-17.683594 3.839844-1.714843 0-3.484374-.089844-5.265624-.261718-5.898438-.566407-11.777344-1.9375-17.464844-3.261719l-.277344-.0625c-3.699219-.867188-7.523438-1.761719-11.320312-2.445313-5.953126-1.054687-12.082032-1.589844-18.207032-1.589844-14.359375 0-28.855468 2.964844-41.929687 8.574219l-1.125.480469-.082031 1.222656c-.570313 8.703125-1.410157 17.210938-2.496094 25.296875l-.546875 4.070313 3.542969-2.082032c11.097656-6.519531 23.863281-8.285156 32.609374-8.613281 1.304688-.046875 2.65625-.074219 4.015626-.074219 10.324218 0 21 1.414063 30.421874 2.660157l.21875.027343c2.695313.351563 5.378907.699219 8.070313 1.023438 6.042969.734375 14.007813 1.582031 22.019531 1.582031 6.507813 0 12.328125-.535156 17.796875-1.636719l1.480469-.296874.117188-1.507813c.253906-3.269531.242187-6.992187-.046876-11.71875-.257812-4.128906-.566406-8.574219-.945312-13.597656zm0 0"/><path d="m436.273438 357.859375c-2.375 0-4.875-.09375-7.429688-.277344-5.953125-.433593-12.03125-1.285156-17.398438-2.035156l-.214843-.03125c-7.058594-.984375-14.355469-2.003906-21.585938-2.246094-.945312-.035156-1.925781-.050781-2.933593-.050781-8.730469 0-21.253907 1.414062-31.328126 8.15625l-.96875.648438.085938 1.160156c.441406 5.945312.726562 11.359375.875 16.558594.121094 3.691406.171875 7.671874.160156 12.171874l-.007812 3.648438 3.078125-1.957031c7.457031-4.730469 16.96875-7.132813 28.269531-7.132813 2.144531 0 4.355469.089844 6.570312.269532 7.09375.566406 14.214844 1.898437 21.101563 3.1875l.1875.035156c6.03125 1.128906 12.265625 2.292968 18.46875 2.953125 3.316406.351562 6.542969.53125 9.59375.53125 9.707031 0 18.113281-1.796875 24.984375-5.34375l1.210938-.625-.136719-1.351563c-1.089844-10.898437-2.332031-21.625-3.699219-31.882812l-.363281-2.734375-2.484375 1.195312c-7.21875 3.46875-15.734375 5.152344-26.035156 5.152344zm0 0"/><path d="m427.582031 314.59375c-8.824219 0-17.644531-1.082031-25.429687-2.039062-8.035156-.984376-16.589844-1.894532-24.722656-1.894532-11.101563 0-20.222657 1.734375-27.886719 5.304688l-1.417969.660156.296875 1.535156c.457031 2.335938.984375 5.09375 1.464844 7.835938.859375 4.886718 1.628906 9.917968 2.355469 15.378906l.410156 3.058594 2.625-1.625c7.621094-4.710938 17.347656-7.101563 28.914062-7.101563 1.4375 0 2.921875.035157 4.417969.109375 6.902344.34375 13.855469 1.390625 20.585937 2.40625l.164063.023438c5.273437.796875 11.253906 1.699218 17.105469 2.1875 2.800781.230468 5.527344.34375 8.105468.34375 10.550782 0 19.21875-1.875 26.503907-5.730469l1.257812-.664063-.21875-1.410156c-1.199219-7.734375-2.441406-15.222656-3.6875-22.25l-.457031-2.558594-2.355469 1.09375c-7.738281 3.59375-16.90625 5.339844-28.03125 5.339844 0-.003906 0-.003906 0-.003906zm0 0"/><path d="m363.363281 270.472656-.769531.015625c-10.558594.1875-22.09375.769531-25.371094 5.34375-.957031 1.328125-1.085937 3.011719-.398437 5.144531.898437 2.816407 2.09375 5.40625 3.375 8.1875 1.203125 2.621094 2.449219 5.332032 3.410156 8.234376l.613281 1.859374 1.875-.578124c8.679688-2.679688 18.488282-3.925782 30.863282-3.925782 6.78125 0 13.679687.359375 20.351562.710938l1.320312.070312c5.113282.265625 11.140626.535156 17.097657.535156 15.585937 0 27.042969-1.859374 37.15625-6.023437l1.523437-.625-.4375-2.199219c-.089844-.460937-.179687-.921875-.277344-1.363281-1.234374-6.0625-2.546874-11.382813-6.128906-15.101563-4.703125-4.867187-11.964844-5.429687-17.019531-5.429687-2.726563 0-5.511719.199219-7.878906.398437l-54.25 4.558594c-1.320313.109375-3.050781.144532-5.054688.1875zm0 0"/><path d="m330.136719 104.191406c4.941406 8.503906 14.019531 15.117188 24.90625 18.132813 4.25 1.179687 8.691406 1.777343 13.210937 1.777343 13.667969 0 27.070313-5.570312 35.851563-14.902343 12.21875-12.984375 15.398437-32.882813 7.734375-48.386719-6.859375-13.882812-21.308594-22.339844-39.625-23.203125-.402344-.019531-.820313-.03125-1.238282-.03125-10.878906 0-27.589843 7.992187-38.574218 25.546875-8.238282 13.148438-9.125 29.269531-2.265625 41.066406zm0 0"/><path d="m351.457031 386.519531c-.03125-2.21875-.070312-4.4375-.128906-6.664062-.15625-4.941407-.429687-10.183594-.816406-15.589844l-.167969-2.335937-2.277344.53125c-1.738281.402343-3.398437.9375-5.382812 1.597656-1.660156.546875-3.542969 1.167968-5.386719 1.601562-1.574219.363282-3.144531.550782-4.667969.550782-1.515625 0-2.96875-.199219-4.320312-.582032l-2.527344-.726562-.023438 2.628906c-.046874 5.695312-.035156 11.558594.039063 17.921875l.019531 1.304687 1.195313.511719c4.09375 1.75 8.644531 2.675781 13.164062 2.675781 3.378907 0 6.699219-.5 9.875-1.484374l1.429688-.445313zm0 0"/><path d="m351.21875 404.929688-2.710938.835937c-2.886718.890625-5.890624 1.34375-8.929687 1.34375-3.609375 0-7.148437-.636719-10.515625-1.886719l-2.808594-1.042968.113282 2.996093c.304687 7.96875.722656 15.914063 1.246093 23.605469l.085938 1.28125 1.199219.457031c3.390624 1.285157 6.980468 1.9375 10.675781 1.9375 2.800781 0 5.570312-.378906 8.238281-1.132812l1.296875-.367188.144531-1.335937c.871094-7.855469 1.492188-15.882813 1.839844-23.855469zm0 0"/><path d="m347.371094 447.226562-2.636719.773438c-1.738281.507812-3.527344.769531-5.316406.769531-2.039063 0-4.039063-.328125-5.957031-.96875l-4.125-1.378906 1.636718 4.03125c.453125 1.113281.917969 2.101563 1.421875 3.03125 2.617188 4.75 8.050781 9.652344 14.285157 9.890625l2.894531.113281-.921875-2.746093c-1.007813-3.015626-1.464844-6.640626-1.355469-10.769532zm0 0"/><path d="m327.152344 325.484375c-.371094 6.523437-.667969 12.980469-.894532 19.191406l-.058593 1.589844 1.539062.414063c2.371094.636718 4.855469.960937 7.378907.960937 4.171874 0 8.351562-.894531 12.078124-2.59375l1.34375-.609375-.191406-1.464844c-.71875-5.582031-1.546875-11.058594-2.460937-16.285156-.183594-1.035156-.378907-2.066406-.570313-3.101562l-.484375-2.601563-2.308593 1.011719c-2.910157 1.277344-6.125 1.953125-9.296876 1.953125-1.1875 0-2.417968-.105469-3.757812-.324219l-2.195312-.355469zm0 0"/><path d="m332.226562 309.375c2.71875 0 5.429688-.546875 7.851563-1.589844l1.863281-.476562-.515625-2.199219c-.308593-1.324219-.621093-2.65625-.949219-3.957031-.921874-3.6875-2.480468-7.058594-3.984374-10.332032-.609376-1.300781-1.316407-2.847656-1.96875-4.410156l-.710938-1.714844-1.765625.582032c-.164063.058594-.332031.113281-.488281.167968l-1.179688.425782-.132812 1.25c-.6875 6.628906-1.304688 13.363281-1.832032 20.007812l-.15625 1.960938 1.953126.1875c.667968.066406 1.34375.097656 2.015624.097656zm0 0"/></g><path d="m511.886719 271.941406-5.621094-23.652344c-.515625-2.164062-2.691406-3.5-4.855469-2.988281-2.164062.511719-3.503906 2.6875-2.988281 4.851563l2.246094 9.460937c-.257813.070313-.511719.167969-.761719.292969-13.59375 6.878906-29.429688 9.835938-44.589844 8.339844-.613281-.0625-1.203125.03125-1.746094.222656-.503906-.660156-1.046874-1.300781-1.640624-1.917969-2.332032-2.417969-5.03125-4.070312-7.945313-5.1875l-8.433594-66.925781c18.085938-.75 35.976563-3.960938 53.199219-9.558594.449219-.148437.84375-.378906 1.203125-.652344l2.59375 4.984376c.71875 1.378906 2.121094 2.167968 3.578125 2.167968.628906 0 1.261719-.144531 1.859375-.453125 1.972656-1.03125 2.742187-3.464843 1.714844-5.441406l-6.828125-13.117187c-1.027344-1.972657-3.460938-2.742188-5.4375-1.714844-1.976563 1.027344-2.742188 3.460937-1.714844 5.4375l.578125 1.109375c-.015625.003906-.027344.003906-.039063.007812-16.960937 5.515625-34.597656 8.621094-52.417968 9.234375-.894532-2.398437-2.269532-4.75-4.492188-6.535156-4.894531-3.933594-11.1875-3.355469-16.699218-2.511719l-87.140626 13.382813c-5.636718.863281-17.371093 2.664062-21.878906 11.765625-.667968 1.34375-1.109375 2.738281-1.394531 4.136719-.460937-.199219-.960937-.324219-1.492187-.34375l-36.476563-1.207032c-1.023437-1.632812-2.296875-3.144531-3.867187-4.460937-6.140626-5.128907-14.34375-5.296875-21.097657-5.296875-.371093 0-.730469 0-1.097656 0-40.933594 0-81.695313-5.527344-121.15625-16.429688l-.820313-.226562c-4.902343-1.359375-9.972656-2.761719-15.371093-2.867188-7.015625-.117187-13.113281 2.097656-17.183594 6.289063-.316406.324219-.621094.660156-.90625 1.003906-.246094-.0625-.5-.105469-.765625-.117187-19.621094-1.042969-38.65625-7.320313-55.042969-18.167969.777344-2.808594 1.253907-5.707031 1.386719-8.628907.101562-2.226562-1.621094-4.109374-3.84375-4.210937-2.242188-.078125-4.109375 1.621094-4.210938 3.84375-.367187 8.058594-3.925781 15.867187-9.765624 21.429687-1.613282 1.535157-1.679688 4.085938-.144532 5.699219.792969.832031 1.859375 1.25 2.921875 1.25 1 0 2-.367187 2.78125-1.109375 3.214844-3.0625 5.882813-6.667968 7.898438-10.605468 16.425781 10.519531 35.21875 16.828124 54.652343 18.347656-1.101562 3.347656-1.621093 6.75-2.046874 9.605468l-8.09375 53.914063c-3.078126.84375-6.144532 2.6875-8.492188 6.546875-.171875.28125-.332031.566406-.488281.855469-15.199219-.667969-30.234375-3.378907-44.707031-8.09375-.054688-.019531-.113282-.019531-.167969-.035157.242187-3.199218.039062-6.441406-.636719-9.605468-.46875-2.179688-2.613281-3.5625-4.789062-3.097656-2.175782.464843-3.5625 2.609374-3.097657 4.785156 1.605469 7.488281-.390625 15.835937-5.214843 21.785156-1.402344 1.726562-1.136719 4.265625.59375 5.667969.75.605469 1.644531.902343 2.539062.902343 1.171875 0 2.335938-.511718 3.132812-1.496093 2.65625-3.273438 4.636719-7.027344 5.914063-11.003907 14.148437 4.539063 28.808594 7.253907 43.632813 8.109376-.722657 3.308593-1.082032 6.730468-1.417969 9.929687-.214844 2.074219-.417969 4.03125-.703125 5.792969l-25.402344 157.503906c-.34375 2.105469 1.015625 4.109375 3.09375 4.578125 11.324219 2.542969 22.925781 4.40625 34.484375 5.53125 4.359375.425781 8.964844.644531 13.152344-1.703125 7.085937-3.96875 8.460937-12.863281 9.203125-17.640625l7.738281-49.984375 14.601563.746094-11.449219 69.105468c-.175781 1.0625.078125 2.144532.703125 3.015626.628906.871093 1.574218 1.457031 2.632812 1.625l41.75 6.6875c.214844.035156.429688.050781.640625.050781 1.890625 0 3.566407-1.332031 3.949219-3.242188l13.769531-68.859375 27.777344 2.933594-4.960937 49.117188c-.535157 5.273437-1.527344 15.082031 4.648437 21.300781 4.703125 4.738281 11.558594 5.421875 17.007813 5.488281.449218.003906.894531.007812 1.339843.007812 9.078125 0 18.136719-1.117187 26.945313-3.332031 1.800781-.449219 3.058594-2.074219 3.046875-3.929687l-.316407-63.582032c-.007812-1.445312-.015624-2.898437-.019531-4.351562l19.023438-.757812c.316406 23.542968-.460938 47.140624-2.34375 70.515624-.097657 1.207032.351562 2.394532 1.230469 3.234376.875.835937 2.078124 1.234374 3.285156 1.089843l47.472656-5.890625c2.070312-.257812 3.601562-2.050781 3.535156-4.132812l-5.539062-169.714844c-.011719-.40625-.027344-.839844-.046875-1.292969 1.335937.21875 2.675781.378907 4.023437.496094-2.191406 31.0625-1.574218 62.460937 1.84375 93.394531.109375 1 .589844 1.921875 1.34375 2.585938 1.464844 1.285156 3.367188 1.953125 5.273438 1.953125.585937 0 1.171875-.074219 1.746094-.203125.230468 14.820312.839843 29.621094 1.84375 44.371094.585937 8.59375 1.445312 16.914062 5.464843 24.246093 3.644531 6.636719 11.21875 13.0625 20.027344 13.0625 1.054687 0 2.128906-.09375 3.214844-.289062.34375-.058594.660156-.175781.960937-.3125.558594.554687 1.160156 1.089843 1.820313 1.589843 4.308593 3.273438 9.402343 4.09375 14.589843 4.09375 1.964844 0 3.945313-.117187 5.902344-.265624 25.398438-1.925782 51.019532-5.019532 76.148438-9.191407 5.363281-.894531 12.710937-2.113281 18.355468-6.597656 10.097657-8.015625 10.667969-21.996094 9.894532-34.617187-2.859375-46.613282-9.035156-93.449219-18.355469-139.214844-.566406-2.800782-1.183594-5.546875-2.042969-8.15625 1.820313.113281 3.644532.191406 5.472656.191406 13.601563 0 27.328126-3.144531 39.492188-9.105469l1.480469 6.226563c.441406 1.851562 2.09375 3.097656 3.917969 3.097656.3125 0 .625-.035156.9375-.109375 2.164062-.515625 3.503906-2.691406 2.988281-4.855469zm-51.753907 61.332032c-8.671874 4.601562-19.660156 6.292968-33.5 5.160156-5.660156-.460938-11.414062-1.328125-16.972656-2.167969-6.832031-1.03125-13.894531-2.09375-20.957031-2.445313-13.980469-.691406-25.550781 1.765626-34.472656 7.289063-.691407-5.175781-1.472657-10.339844-2.371094-15.464844-.460937-2.628906-.957031-5.25-1.472656-7.863281 14.941406-6.964844 32.902343-5.523438 51.519531-3.238281 16.671875 2.046875 37.246094 4.566406 54.554688-3.472657 1.308593 7.382813 2.527343 14.785157 3.671874 22.203126zm2.476563 17.019531c-8.730469 4.53125-19.769531 6.257812-33.617187 5.261719-5.757813-.414063-11.609376-1.234376-17.269532-2.023438-7.175781-1.003906-14.597656-2.042969-22.011718-2.292969-13.328126-.445312-24.785157 2.058594-33.570313 7.257813-.375-4.324219-.816406-8.640625-1.339844-12.945313 8.390625-5.800781 19.710938-8.398437 33.703125-7.703125 6.859375.339844 13.820313 1.390625 20.554688 2.40625 5.628906.847656 11.445312 1.722656 17.246094 2.199219 13.992187 1.144531 25.320312-.484375 34.476562-4.976563.636719 4.265626 1.242188 8.539063 1.828125 12.816407zm4.261719 36.035156c-8.707032 4.488281-19.929688 6.042969-33.457032 4.601563-6.125-.652344-12.324218-1.8125-18.320312-2.933594-6.996094-1.3125-14.226562-2.664063-21.488281-3.25-10.359375-.828125-24.570313-.125-36.070313 7.167968.007813-4.082031-.03125-8.164062-.152344-12.238281-.167968-5.542969-.472656-11.089843-.886718-16.636719 10.34375-6.917968 23.492187-8.097656 33.078125-7.773437 7.203125.242187 14.515625 1.265625 21.589843 2.257813 5.726563.800781 11.644532 1.628906 17.535157 2.054687 13.957031 1.003906 25.296875-.664063 34.480469-5.074219 1.402343 10.589844 2.628906 21.203125 3.691406 31.824219zm-142.949219-96.882813c-.710937 7.09375-1.339844 14.199219-1.871094 21.316407l-5.632812 7.394531c.152343-9.34375.558593-18.675781 1.222656-27.980469 2.105469-.121093 4.203125-.367187 6.28125-.730469zm3.835937 78.101563c1.570313.453125 3.226563.660156 4.875.660156 1.769532 0 3.519532-.226562 5.121094-.601562 1.902344-.445313 3.757813-1.054688 5.554688-1.648438 1.777344-.585937 3.492187-1.148437 5.207031-1.546875.371094 5.171875.652344 10.34375.808594 15.507813.066406 2.210937.105469 4.421875.132812 6.632812-7.0625 2.191407-14.859375 1.785157-21.65625-1.121093-.078125-5.957032-.09375-11.921876-.042969-17.882813zm20.449219-7.199219c-2.117187.449219-4.160156 1.121094-6.160156 1.78125-1.792969.589844-3.484375 1.148438-5.214844 1.550782-2.875.671874-6.328125.785156-9.019531-.355469.0625-4.8125.160156-9.625.304688-14.4375 2.324218.554687 4.703124.832031 7.078124.832031 4.003907 0 7.992188-.792969 11.703126-2.316406.511718 4.308594.949218 8.625 1.308593 12.945312zm-19.945312-15.59375c.226562-6.394531.519531-12.777344.890625-19.160156 1.34375.226562 2.707031.347656 4.078125.347656 3.460937 0 6.925781-.726562 10.09375-2.117187.199219 1.070312.40625 2.140625.59375 3.214843.941406 5.363282 1.75 10.769532 2.453125 16.191407-5.601563 2.546875-12.171875 3.117187-18.109375 1.523437zm14.296875-25.007812c-4.035156 2.007812-8.75 2.660156-13.171875 1.808594.210937-3.417969.453125-6.835938.707031-10.25.699219.066406 1.402344.109374 2.105469.109374 2.824219 0 5.652343-.539062 8.265625-1.589843.738281 3.277343 1.441406 6.589843 2.09375 9.921875zm-14.679688 70.054687c3.9375 1.445313 8.121094 2.183594 12.308594 2.183594 3.128906 0 6.257812-.417969 9.285156-1.238281.003906 4.207031-.050781 8.410156-.191406 12.613281-6.765625 2.511719-14.480469 2.273437-21.074219-.667969-.144531-4.296875-.25-8.59375-.328125-12.890625zm11.554688-83.910156c-2.8125 1.234375-5.960938 1.695313-9.023438 1.390625.53125-6.660156 1.136719-13.316406 1.828125-19.953125.144531-.050781.292969-.097656.4375-.148437.644531 1.535156 1.324219 3.027343 1.996094 4.484374 1.542969 3.347657 3 6.507813 3.863281 9.96875.351563 1.394532.679688 2.808594 1.015625 4.21875-.039062.019532-.082031.023438-.117187.039063zm-23.082032 19.003906 5.1875-6.804687c-.574218 8.636718-1.011718 17.292968-1.320312 25.953125l-3.417969 3.96875c-.320312-7.699219-.472656-15.410157-.449219-23.117188zm23.222657 84.21875c3.222656 0 6.445312-.480469 9.527343-1.4375-.359374 7.941407-.964843 15.859375-1.828124 23.722657-5.773438 1.632812-12.050782 1.375-17.667969-.746094-.527344-7.835938-.933594-15.691406-1.238281-23.550782 3.582031 1.328126 7.390624 2.011719 11.207031 2.011719zm-9.65625 25.910157c3.121093.972656 6.386719 1.46875 9.652343 1.46875 2.417969 0 4.839844-.269532 7.199219-.808594-.191406 1.570312-.375 3.136718-.585937 4.699218-.203125 1.507813-.441406 3.265626-.621094 5.171876-4.585938 1.804687-10.085938 1.488281-14.308594-1.003907-.671875-2.980469-1.054687-6.164062-1.335937-9.527343zm26.820312-19.390626c18.441407-7.910156 39.234375-10.339843 59-6.839843 3.742188.664062 7.539063 1.550781 11.214844 2.414062 5.835937 1.363281 11.871094 2.777344 18.003906 3.371094 9.210938.890625 17.519531-.449219 24.054688-3.789063.339843 4.523438.660156 9.050782.9375 13.570313.230469 3.792969.332031 7.710937.042969 11.441406-12.953126 2.609375-26.449219 1.578125-39.179688.03125-2.753906-.335937-5.507812-.695312-8.261719-1.058593-11.351562-1.492188-23.089843-3.027344-34.777343-2.59375-9.539063.359374-22.320313 2.292968-33.550782 8.886718 1.128906-8.414062 1.957032-16.90625 2.515625-25.433594zm111.9375-9.265624c-6.019531 3.597656-14.136719 5.089843-23.332031 4.199218-5.859375-.566406-11.761719-1.949218-17.472656-3.289062-3.722656-.871094-7.578125-1.773438-11.429688-2.457032-19.867187-3.519531-40.734375-1.246093-59.425781 6.351563.253906-4.773437.40625-9.558594.480469-14.339844 10.871094-8.128906 25.382812-8.902343 35.785156-8.066406 7.050781.566406 14.179688 1.902344 21.070312 3.191406 6.074219 1.136719 12.351563 2.3125 18.636719 2.980469 13.609375 1.449219 25.113281-.007812 34.304688-4.324219.503906 5.25.964843 10.503907 1.382812 15.753907zm-66.277343-95.824219c-18.882813-2.320313-37.144532-3.769531-52.832032 3.1875-.921875-4.414063-1.914062-8.78125-2.972656-13.074219 16.042969-4.972656 33.601562-4.058594 50.613281-3.167969l1.324219.070313c19.144531 1 37.71875 1.304687 54.398438-5.335938.964843 4.902344 1.894531 9.8125 2.789062 14.734375-16.453125 8.109375-36.855469 5.605469-53.320312 3.585938zm49.34375-24.28125c.128906.644531.253906 1.289062.386718 1.9375-16.101562 6.628906-34.441406 6.324219-53.386718 5.335937l-1.324219-.070312c-17.335938-.90625-35.222657-1.84375-51.910157 3.304687-1-3.015625-2.269531-5.78125-3.511718-8.476562-1.238282-2.691407-2.410156-5.230469-3.273438-7.921875-.707031-2.207032-.105468-3.050782.121094-3.367188 2.960938-4.136718 17.027344-4.394531 23.789062-4.519531 2.359376-.042969 4.394532-.078125 5.949219-.210937l54.261719-4.550782c2.523438-.214844 5.140625-.390625 7.707031-.390625 6.074219 0 11.878907.988281 15.578125 4.820313 3.210938 3.324218 4.441406 8.355468 5.613282 14.109375zm-29.574219-26.578125-54.070313 4.539062 62.84375-41.863281 4.679688 37.136719c-4.457032-.429688-9.074219-.179688-13.453125.1875zm5.371093-64.320313 2.839844 22.527344-69.914062 46.570313c-10.246094.214843-23.191406.882812-28.175782 7.847656-1.101562 1.539062-2.167968 3.90625-1.921874 7.136718-4.246094 1.535157-8.71875 2.429688-13.230469 2.691407l-.671875-6.324219 104.320312-89.328125c.445313-.378906.675782-.910156.699219-1.449219 1.074219.191406 2.042969.542969 2.808594 1.15625 2.148437 1.726563 2.78125 5.476563 3.246093 9.171875zm-13.667968-9.996093c.800781-.125 1.605468-.234376 2.402344-.324219l-100.324219 85.90625-3.394531-31.972657 53.398437-46.253906zm-103.019532 20.757812c2.328126-4.699219 9.007813-6.324219 15.875-7.378906l31.742188-4.871094-46.433594 40.214844-1.84375-17.382813c-.457031-4.316406-.699218-7.839843.660156-10.582031zm-46.246093 152.273438c-.234375-3.710938-.945313-14.996094-9.738281-18.109376-4.753907-1.683593-10.558594.011719-14.433594 4.222657-3.199219 3.476562-4.691406 7.871093-5.726563 11.710937-3.976562 14.75-3.898437 29.960938-3.824219 44.667969l.207032 41.417969-36.335938-1.144532 5.375-53.199218c1.097656-10.863282 2-21.996094 2.871094-32.765625 1.53125-18.863281 3.109375-38.28125 5.804688-57.171875 16.578124 5.839844 34.191406 8.789062 51.804687 8.789062 1.09375 0 2.183594-.027344 3.277344-.050781.316406.207031.695312.332031 1.101562.332031.011719 0 .023438 0 .039063-.003906.425781-.007812.816406-.148438 1.140625-.382812 10.703125-.378907 21.355469-1.855469 31.730469-4.429688l4.449218 136.492188-37.046875 1.28125c1.21875-27.207032 1.003907-54.566407-.695312-81.65625zm-80.640625-83.234376c-2.253906-4.785156-6.878906-7.015624-11.023438-8.171874l14.894532-66.320313c13.21875 1.445313 26.5 2.324219 39.8125 2.625l-4.398438 72.335937c-5.425781-1.042968-10.738281-1.410156-15.019531 1.476563-2.277344 1.535156-3.953125 3.851563-5.035157 6.882813-6.042968.222656-12.199218-.667969-17.941406-2.597657.003906-2.039062-.316406-4.167969-1.289062-6.230469zm-60.046875-86.0625c-2.6875 12.367188-5.347657 23.949219-7.925781 35.160157-2.453126 10.683593-4.984376 21.710937-7.546876 33.4375-.273437-.035157-.546874-.070313-.816406-.105469-.796875-.101562-1.597656-.214844-2.394531-.320312l14.179687-69.351563c1.5.398437 3 .796875 4.503907 1.179687zm-3.996094 36.0625c2.570313-11.1875 5.222656-22.742187 7.910156-35.089843 14.246094 3.496093 28.636719 6.3125 43.132813 8.4375l-14.621094 65.738281c-14.585938-2.121094-29.277344-4.140625-43.886719-6.027344 2.53125-11.582031 5.035157-22.484375 7.464844-33.058594zm55.042969-26.074218c2.941406.40625 5.890625.789062 8.839844 1.136718l-14.804688 65.898438c-.675781-.113281-1.300781-.207031-1.851562-.289062-2.261719-.339844-4.539063-.664063-6.808594-1zm87.65625 87.441406.304687 16.21875c-5.167969.078125-10.34375-.09375-15.496093-.535156l.371093-15.324219c4.953125.105469 9.894531-.007813 14.820313-.359375zm-19.214844 15.269531c-11.59375-1.304687-23.027344-3.925781-33.988281-7.851562.238281-1.5625.46875-3.136719.722656-4.691407.457031-2.769531 1.328125-4.609374 2.597656-5.464843.925781-.621094 2.214844-.867188 3.734375-.867188 2.707032 0 6.136719.773438 9.492188 1.53125 2.90625.652344 5.910156 1.328125 8.855468 1.628907 2.984376.308593 5.96875.527343 8.949219.667968zm-7.980469-23.761719c-2.414062-.265624-5.089843-.863281-7.6875-1.449218-.167969-.035156-.335937-.074219-.503906-.113282l4.445313-73.097656c1.9375.027344 3.875.046875 5.8125.050782zm31.53125 24.589844-.3125-16.4375c5.808594-.5625 11.585938-1.433594 17.304688-2.628906 5.125-1.070312 10.148437-1.710938 12.179687.828125 1.140625 1.425781 1.3125 3.886719 1.40625 6.714844l.226563 7.0625c-10.0625 2.558593-20.40625 4.03125-30.804688 4.460937zm-6.515625-75.890625-.601562 51.878907c-6.769532.378906-13.578125.292968-20.390625-.234376l2.074219-74.933593c5.050781.070312 10.265624.535156 13.699218 3.40625 4.980469 4.164062 5.308594 12.445312 5.21875 19.882812zm-159.742187-42.828125c4.378906.085938 8.746093 1.296875 13.375 2.578125l.824219.226563c.203124.058594.410156.109375.613281.167968l-14.285157 69.855469c-.664062-.089843-1.328124-.171875-1.996093-.265625-7.058594-.960937-14.359375-1.953125-21.601563-2.535156-.289062-.023438-.59375-.046875-.90625-.070312l7.835938-52.191407c.863281-5.746093 1.824218-10.757812 4.894531-13.917969 2.460937-2.535156 6.570313-3.925781 11.246094-3.847656zm-24.722657 260.398438c-2.152343 1.207031-5.21875 1.027344-8.429687.714844-9.96875-.972657-19.972656-2.507813-29.792969-4.570313l2.476563-15.351563 41.621093 2.851563-.699218 4.515625c-.734375 4.738281-1.800782 9.949219-5.175782 11.839844zm6.492188-20.355469-41.59375-2.847656 21.671875-134.386719c.320313-1.980469.535156-4.046875.765625-6.238281.585938-5.621094 1.191406-11.4375 3.570312-15.347657 1.808594-2.96875 3.976563-3.652343 10.101563-3.160156 7.019531.566406 14.207031 1.542969 21.15625 2.492188 2.824219.382812 5.648437.769531 8.464844 1.128906 19.738281 2.515625 39.710937 5.28125 59.351562 8.214844 4.496094.671875 9.285157 1.769531 10.710938 4.792968.914062 1.9375.472656 4.6875-.15625 7.820313l-19.945313 99.757813c-.355468.53125-.605468 1.136718-.675781 1.816406-.046875.414062-.003906.816406.074219 1.207031l-8.972656 44.867187-34.71875-5.175781 14.679687-88.59375c.746094-4.492187 1.589844-9.585937.386719-14.734375-1.242188-5.3125-5.378906-11.136718-11.824219-12.183594-6.460937-1.042968-12.230469 3.195313-15.078125 7.863282-2.761719 4.523437-3.554688 9.636718-4.25 14.144531zm15.632812-48.242187 6.050782-39.089844c.613281-3.945313 1.246094-8.027344 3.167968-11.175782 1.441407-2.363281 4.273438-4.527343 6.90625-4.101562 2.621094.421875 4.632813 3.367188 5.257813 6.054688.839844 3.585937.164063 7.652343-.488281 11.582031l-6.207032 37.476562zm44.441407 80.613281-33.914063-5.433594 2.984375-18.019531 34.585938 5.15625zm22.5-71.417969 19.078125-95.402344c5.5625 1.710938 11.425781 2.601563 17.246094 2.601563.058593 0 .121093-.003907.179687-.003907-3.175781 20.640626-4.914063 41.867188-6.582031 62.445313-.867188 10.730469-1.765625 21.824219-2.855469 32.605469l-.0625.605468zm42.988281 78.722656c-3.914062-.050781-8.746094-.445312-11.386719-3.105468-3.222656-3.246094-2.902343-9.347657-2.347656-14.8125l.050781-.523438 36.761719 1.15625.078125 14.921875c-7.601562 1.660156-15.375 2.453125-23.15625 2.363281zm30.945312-75.199218c.175782-10.175782.894532-20.382813 3.519532-30.109376.78125-2.894531 1.851562-6.152343 3.871094-8.351562 1.429687-1.550781 3.882812-2.761719 5.8125-2.082031 2.5.886719 3.972656 4.59375 4.378906 11.015625.601562 9.566406 1.011718 19.164062 1.242187 28.777344zm25.046876 73.542968c.441406-5.945312.785156-11.910156 1.082031-17.875l37.378906-1.296875.464844 14.339844zm38.402343-182.621094c-5.40625-6.753906-15.347656-4.679687-20.128906-3.679687-4.757813.992187-9.558594 1.726563-14.386719 2.257813l.59375-51.097657c.042969-3.480469.089844-8.515625-1.027344-13.527343l32.996094 1.089843c.046875.003907.089844.003907.136719.003907.4375 0 .855469-.085938 1.253906-.21875.078125 1.199218.199219 2.335937.308594 3.375l6.441406 60.664062c.003907.109375.015625.214844.035157.324219l.359374 3.367187c-1.804687-.207031-3.597656-.523437-5.363281-.941406-.050781-.011719-.101562-.011719-.152343-.023438-.308594-.546874-.65625-1.082031-1.066407-1.59375zm16.671875 100.171876c-.890625-8.523438-1.554687-17.082032-2.015625-25.652344l2.925781-3.402344c-.269531 9.660156-.375 19.324219-.320312 28.984375-.195312.007813-.394531.03125-.589844.070313zm15.054688 72.992187c-.5-.914063-.933594-1.855469-1.320313-2.820313 2.117188.714844 4.351563 1.078126 6.589844 1.078126 1.988281 0 3.96875-.296876 5.871094-.855469-.089844 3.75.222656 7.757812 1.46875 11.457031-5.207031-.199219-10.125-4.332031-12.609375-8.859375zm128.9375-.347656c-3.710938 2.945312-8.839844 3.988281-14.667969 4.957031-24.894531 4.136719-50.273437 7.199219-75.433594 9.105469-5.566406.421875-11.308593.601562-15.007812-2.210938-4.527344-3.433593-5.023438-10.289062-4.351563-17.800781 11.09375-7.527344 24.488282-9.640625 34.296875-10.007812 11.34375-.425782 22.914063 1.089843 34.101563 2.558593 2.765625.367188 5.535156.730469 8.300781 1.066407 12.644531 1.535156 26.054687 2.558593 39.144531.164062-.890625 4.949219-2.765625 9.296875-6.382812 12.167969zm0 0"/><path d="m72.289062 268.34375c-1.09375-.21875-2.15625.484375-2.375 1.574219l-2.847656 14.050781c-.21875 1.09375.484375 2.15625 1.574219 2.378906.136719.027344.273437.039063.402344.039063.941406 0 1.78125-.660157 1.976562-1.617188l2.84375-14.050781c.222657-1.089844-.484375-2.15625-1.574219-2.375zm0 0"/><path d="m66.980469 292.53125c-1.101563-.128906-2.105469.671875-2.230469 1.777344l-1.492188 13.300781c-.125 1.105469.671876 2.101563 1.777344 2.226563.078125.007812.152344.011718.226563.011718 1.011719 0 1.886719-.757812 2-1.789062l1.496093-13.300782c.125-1.105468-.671874-2.101562-1.777343-2.226562zm0 0"/><path d="m63.726562 315.582031c-1.101562-.113281-2.101562.679688-2.21875 1.785157l-1.5625 14.464843c-.121093 1.105469.679688 2.101563 1.785157 2.21875.074219.007813.148437.011719.21875.011719 1.015625 0 1.890625-.765625 2.003906-1.796875l1.5625-14.464844c.117187-1.105469-.679687-2.097656-1.789063-2.21875zm0 0"/><path d="m59.078125 342.597656c-1.117187-.117187-2.097656.695313-2.210937 1.800782l-1.347657 13.273437c-.113281 1.109375.695313 2.097656 1.804688 2.210937.066406.003907.136719.007813.203125.007813 1.023437 0 1.898437-.773437 2.003906-1.8125l1.347656-13.273437c.113282-1.105469-.695312-2.09375-1.800781-2.207032zm0 0"/><path d="m54.234375 367.589844c-1.125-.078125-2.070313.765625-2.148437 1.875l-.945313 14.0625c-.070313 1.109375.765625 2.070312 1.878906 2.148437.046875 0 .089844.003907.136719.003907 1.050781 0 1.9375-.816407 2.007812-1.882813l.945313-14.0625c.074219-1.109375-.765625-2.070313-1.875-2.144531zm0 0"/><path d="m49.304688 399.238281c-1.113282-.089843-2.082032.738281-2.167969 1.847657l-1.09375 13.6875c-.089844 1.113281.738281 2.082031 1.847656 2.171874.058594.003907.109375.007813.164063.007813 1.039062 0 1.925781-.800781 2.007812-1.855469l1.09375-13.691406c.085938-1.109375-.742188-2.078125-1.851562-2.167969zm0 0"/><path d="m162.957031 301.605469c.109375.019531.214844.027343.320313.027343.972656 0 1.832031-.707031 1.988281-1.699218l1.992187-12.503906c.175782-1.097657-.574218-2.132813-1.671874-2.304688-1.101563-.175781-2.132813.574219-2.308594 1.671875l-1.992188 12.503906c-.175781 1.097657.574219 2.132813 1.671875 2.304688zm0 0"/><path d="m158.324219 330.148438c.09375.015624.1875.023437.28125.023437.988281 0 1.851562-.734375 1.992187-1.742187l2.261719-16.375c.152344-1.101563-.617187-2.121094-1.722656-2.273438-1.101563-.15625-2.121094.617188-2.269531 1.722656l-2.261719 16.375c-.152344 1.101563.617187 2.121094 1.71875 2.269532zm0 0"/><path d="m152.410156 356.335938c.113282.019531.226563.027343.339844.027343.964844 0 1.816406-.695312 1.984375-1.679687l2.445313-14.445313c.1875-1.097656-.554688-2.136719-1.652344-2.324219-1.09375-.191406-2.136719.554688-2.324219 1.652344l-2.445313 14.445313c-.183593 1.097656.554688 2.136719 1.652344 2.324219zm0 0"/><path d="m145.710938 383.691406c.132812.027344.265624.042969.398437.042969.941406 0 1.78125-.664063 1.972656-1.621094l2.746094-13.679687c.21875-1.089844-.488281-2.152344-1.578125-2.375-1.09375-.214844-2.15625.488281-2.375 1.582031l-2.746094 13.679687c-.21875 1.089844.488282 2.152344 1.582032 2.371094zm0 0"/><path d="m142.25 407.9375c.117188.019531.234375.03125.347656.03125.964844 0 1.8125-.691406 1.984375-1.667969l2.324219-13.296875c.191406-1.097656-.542969-2.140625-1.640625-2.332031-1.09375-.195313-2.140625.542969-2.332031 1.636719l-2.324219 13.296875c-.1875 1.097656.542969 2.140625 1.640625 2.332031zm0 0"/><path d="m137.15625 432.179688c.148438.035156.300781.050781.449219.050781.921875 0 1.75-.632813 1.964843-1.566407l2.851563-12.480468c.25-1.085938-.429687-2.167969-1.515625-2.414063-1.082031-.25-2.164062.429688-2.414062 1.515625l-2.851563 12.480469c-.25 1.085937.429687 2.167969 1.515625 2.414063zm0 0"/><path d="m324.898438 107.246094c5.730468 9.855468 16.128906 17.484375 28.527343 20.925781 4.808594 1.335937 9.773438 1.980469 14.734375 1.976563 15.167969 0 30.242188-6.035157 40.367188-16.796876 13.910156-14.785156 17.507812-37.496093 8.746094-55.230468-7.863282-15.910156-24.183594-25.597656-44.78125-26.570313-18.335938-.867187-36.300782 14.097657-45.230469 28.367188-9.414063 15.03125-10.339844 33.609375-2.363281 47.328125zm9.195312-43.054688c7.761719-12.398437 22.777344-24.613281 36.882812-24.613281.378907 0 .757813.011719 1.132813.027344 17.582031.832031 31.40625 8.882812 37.933594 22.089843 7.300781 14.773438 4.261719 33.746094-7.390625 46.132813-11.441406 12.160156-30.359375 17.214844-47.074219 12.574219-10.386719-2.882813-19.03125-9.15625-23.710937-17.207032-6.488282-11.164062-5.617188-26.472656 2.226562-39.003906zm0 0"/><path d="m370.066406 21.53125h.070313c2.226562-.039062 4-1.875 3.960937-4.101562l-.226562-12.96875c-.039063-2.226563-1.890625-3.988282-4.101563-3.960938-2.226562.039062-4 1.875-3.960937 4.101562l.226562 12.96875c.039063 2.199219 1.835938 3.960938 4.03125 3.960938zm0 0"/><path d="m369.449219 137.28125c-2.214844.234375-3.820313 2.21875-3.585938 4.433594l1.488281 14.070312c.21875 2.070313 1.96875 3.605469 4.003907 3.605469.140625 0 .285156-.003906.429687-.019531 2.210938-.234375 3.816406-2.222656 3.585938-4.433594l-1.488282-14.070312c-.234374-2.214844-2.21875-3.816407-4.433593-3.585938zm0 0"/><path d="m394.894531 26.820312c.535157.238282 1.09375.347657 1.640625.347657 1.542969 0 3.015625-.890625 3.683594-2.390625l5.28125-11.847656c.90625-2.03125-.007812-4.417969-2.039062-5.324219-2.035157-.90625-4.417969.007812-5.324219 2.042969l-5.28125 11.847656c-.90625 2.03125.007812 4.417968 2.039062 5.324218zm0 0"/><path d="m340.175781 133.910156-4.605469 13.378906c-.722656 2.105469.394532 4.398438 2.5 5.125.433594.148438.878907.21875 1.3125.21875 1.671876 0 3.238282-1.050781 3.8125-2.71875l4.601563-13.378906c.726563-2.105468-.394531-4.398437-2.5-5.125-2.105469-.722656-4.398437.394532-5.121094 2.5zm0 0"/><path d="m425.34375 59.558594c.617188 1.605468 2.144531 2.589844 3.765625 2.589844.480469 0 .96875-.085938 1.441406-.265626l12.113281-4.644531c2.078126-.796875 3.121094-3.128906 2.320313-5.207031-.792969-2.078125-3.125-3.117188-5.207031-2.320312l-12.109375 4.640624c-2.082031.796876-3.121094 3.128907-2.324219 5.207032zm0 0"/><path d="m316.316406 98.445312c-.976562-2-3.386718-2.832031-5.390625-1.855468l-12.714843 6.203125c-2 .976562-2.832032 3.390625-1.855469 5.390625.699219 1.429687 2.132812 2.265625 3.625 2.265625.59375 0 1.195312-.132813 1.765625-.410157l12.714844-6.203124c2.003906-.976563 2.832031-3.390626 1.855468-5.390626zm0 0"/><path d="m439.253906 115.195312c1.542969 0 3.015625-.890624 3.683594-2.390624.90625-2.035157-.007812-4.417969-2.039062-5.324219l-11.847657-5.28125c-2.035156-.90625-4.417969.007812-5.324219 2.039062-.90625 2.035157.007813 4.417969 2.042969 5.324219l11.847657 5.28125c.53125.238281 1.085937.351562 1.636718.351562zm0 0"/><path d="m300.632812 52.539062 13.375 4.605469c.4375.148438.878907.21875 1.3125.21875 1.675782 0 3.238282-1.050781 3.8125-2.71875.726563-2.105469-.394531-4.398437-2.5-5.125l-13.375-4.605469c-2.109374-.722656-4.402343.394532-5.125 2.5-.722656 2.105469.394532 4.398438 2.5 5.125zm0 0"/><path d="m390.984375 134.6875c-2.078125.796875-3.117187 3.128906-2.320313 5.207031l4.644532 12.113281c.613281 1.605469 2.144531 2.589844 3.765625 2.589844.480469 0 .96875-.085937 1.441406-.265625 2.078125-.800781 3.117187-3.128906 2.320313-5.210937l-4.644532-12.109375c-.792968-2.078125-3.125-3.117188-5.207031-2.324219zm0 0"/><path d="m346.707031 23.804688c.699219 1.433593 2.132813 2.265624 3.628907 2.265624.589843 0 1.195312-.128906 1.761718-.410156 2.003906-.976562 2.832032-3.390625 1.855469-5.390625l-6.203125-12.714843c-.972656-2-3.386719-2.832032-5.390625-1.855469-2 .976562-2.832031 3.390625-1.855469 5.390625zm0 0"/><path d="m429.015625 79.480469c.039063 2.203125 1.835937 3.960937 4.027344 3.960937h.074219l12.96875-.226562c2.226562-.039063 4-1.875 3.960937-4.101563-.039063-2.226562-1.902344-4.015625-4.101563-3.960937l-12.972656.230468c-2.222656.039063-3.996094 1.875-3.957031 4.097657zm0 0"/><path d="m295.179688 84.738281c.140624 0 .285156-.007812.429687-.023437l14.066406-1.488282c2.214844-.234374 3.820313-2.21875 3.585938-4.433593-.230469-2.210938-2.214844-3.820313-4.429688-3.585938l-14.070312 1.488281c-2.214844.234376-3.820313 2.21875-3.585938 4.433594.21875 2.070313 1.96875 3.609375 4.003907 3.609375zm0 0"/><path d="m414.378906 39.441406c1.058594 0 2.109375-.410156 2.902344-1.230468l9.007812-9.328126c1.546876-1.605468 1.503907-4.15625-.097656-5.703124-1.601562-1.546876-4.15625-1.5-5.699218.097656l-9.011719 9.332031c-1.546875 1.605469-1.5 4.15625.101562 5.703125.78125.753906 1.789063 1.128906 2.796875 1.128906zm0 0"/><path d="m315.277344 136.941406c.746094.605469 1.640625.898438 2.53125.898438 1.175781 0 2.339844-.511719 3.136718-1.496094l8.898438-11c1.398438-1.730469 1.128906-4.269531-.601562-5.667969-1.730469-1.402343-4.269532-1.132812-5.667969.597657l-8.898438 11c-1.398437 1.730468-1.132812 4.269531.601563 5.667968zm0 0"/><path d="m412.234375 120.921875c-1.546875 1.601563-1.503906 4.15625.097656 5.703125l9.332031 9.007812c.785157.757813 1.792969 1.132813 2.800782 1.132813 1.054687 0 2.109375-.414063 2.902344-1.230469 1.546874-1.601562 1.5-4.15625-.101563-5.699218l-9.332031-9.011719c-1.601563-1.546875-4.152344-1.503907-5.699219.097656zm0 0"/><path d="m314.199219 30.289062 11 8.898438c.746093.601562 1.644531.898438 2.535156.898438 1.175781 0 2.339844-.511719 3.136719-1.5 1.398437-1.730469 1.128906-4.269532-.601563-5.667969l-11-8.898438c-1.730469-1.398437-4.269531-1.128906-5.667969.601563-1.402343 1.730468-1.132812 4.269531.597657 5.667968zm0 0"/></svg>