<?xml version="1.0"?>
<svg xmlns="http://www.w3.org/2000/svg" viewBox="-55 0 512 512" width="512px" height="512px"><g transform="matrix(1 0 0 1 -55 0)"><path d="m394.949219 454.015625h-387.449219v-358.25h387.449219zm0 0" fill="#c6c5ca" data-original="#C6C5CA"/><path d="m363.824219 274.890625c0 73.234375-59.367188 132.601563-132.601563 132.601563-73.230468 0-132.601562-59.367188-132.601562-132.601563s59.371094-132.601563 132.601562-132.601563c73.234375 0 132.601563 59.367188 132.601563 132.601563zm0 0" fill="#898890" data-original="#898890"/><path d="m333.824219 274.890625c0 73.234375-59.367188 132.601563-132.601563 132.601563-73.230468 0-132.601562-59.367188-132.601562-132.601563s59.371094-132.601563 132.601562-132.601563c73.234375 0 132.601563 59.367188 132.601563 132.601563zm0 0" fill="#e0e0e2" data-original="#E0E0E2"/><path d="m54.820312 123.835938h36.910157v36.910156h-36.910157zm0 0" fill="#898890" data-original="#898890"/><path d="m153.535156 7.5h241.414063v88.269531h-241.414063zm0 0" fill="#787680" data-original="#787680"/><path d="m210.089844 33.914062h74.1875v36.910157h-74.1875zm0 0" fill="#3e3d42" data-original="#3E3D42"/><path d="m335.664062 52.367188c0 9.734374-7.890624 17.625-17.621093 17.625-9.734375 0-17.625-7.890626-17.625-17.625 0-9.730469 7.890625-17.621094 17.625-17.621094 9.730469 0 17.621093 7.890625 17.621093 17.621094zm0 0" fill="#3e3d42" data-original="#3E3D42"/><path d="m389.601562 52.367188c0 9.734374-7.886718 17.625-17.621093 17.625s-17.625-7.890626-17.625-17.625c0-9.730469 7.890625-17.621094 17.625-17.621094s17.621093 7.890625 17.621093 17.621094zm0 0" fill="#3e3d42" data-original="#3E3D42"/><path d="m34.820312 123.835938h36.910157v36.910156h-36.910157zm0 0" fill="#57a4ff" data-original="#57A4FF"/><path d="m180.089844 33.914062h74.1875v36.910157h-74.1875zm0 0" fill="#b3d8f4" data-original="#B3D8F4"/><path d="m315.664062 52.367188c0 9.734374-7.890624 17.625-17.621093 17.625-9.734375 0-17.625-7.890626-17.625-17.625 0-9.730469 7.890625-17.621094 17.625-17.621094 9.730469 0 17.621093 7.890625 17.621093 17.621094zm0 0" fill="#e0e0e2" data-original="#E0E0E2"/><path d="m369.601562 52.367188c0 9.734374-7.886718 17.625-17.621093 17.625s-17.625-7.890626-17.625-17.625c0-9.730469 7.890625-17.621094 17.625-17.621094s17.621093 7.890625 17.621093 17.621094zm0 0" fill="#e0e0e2" data-original="#E0E0E2"/><path d="m7.5 454.015625h387.445312v50.484375h-387.445312zm0 0" fill="#787680" data-original="#787680"/><path d="m7.5 7.5h146.035156v88.269531h-146.035156zm0 0" fill="#e0e0e2" data-original="#E0E0E2"/><path d="m131.328125 34.746094h-41.617187l-15.347657-27.246094h72.308594zm0 0" fill="#c6c5ca" data-original="#C6C5CA"/><path d="m101.328125 34.746094h-41.617187l-15.347657-27.246094h72.308594zm0 0" fill="#c6c5ca" data-original="#C6C5CA"/><path d="m333.824219 274.890625c0 73.234375-59.367188 132.601563-132.601563 132.601563-73.230468 0-132.601562-59.367188-132.601562-132.601563s59.371094-132.601563 132.601562-132.601563c73.234375 0 132.601563 59.367188 132.601563 132.601563zm0 0" fill="#e0e0e2" data-original="#E0E0E2"/><path d="m323.066406 274.890625c0 50.722656-41.117187 91.84375-91.84375 91.84375-50.722656 0-91.84375-41.121094-91.84375-91.84375s41.121094-91.84375 91.84375-91.84375c50.726563 0 91.84375 41.121094 91.84375 91.84375zm0 0" fill="#c6c5ca" data-original="#C6C5CA"/><path d="m293.066406 274.890625c0 50.722656-41.117187 91.84375-91.84375 91.84375-50.722656 0-91.84375-41.121094-91.84375-91.84375s41.121094-91.84375 91.84375-91.84375c50.726563 0 91.84375 41.121094 91.84375 91.84375zm0 0" fill="#787680" data-original="#787680"/><path d="m197.222656 274.59375c-28.949218 0-33.261718-17.648438-54.886718-22.894531-1.925782 7.40625-2.953126 15.179687-2.953126 23.191406 0 45.617187 33.253907 83.464844 76.84375 90.625 43.585938-7.160156 76.84375-45.007813 76.84375-90.625 0-6.089844-.59375-12.042969-1.726562-17.804687-6.484375-3.871094-14.222656-6.851563-26.113281-6.851563-34.003907 0-34.003907 24.359375-68.007813 24.359375zm0 0" fill="#3e3d42" data-original="#3E3D42"/><path d="m167.222656 274.59375c-28.949218 0-33.261718-17.648438-54.886718-22.894531-1.925782 7.40625-2.953126 15.179687-2.953126 23.191406 0 50.722656 41.117188 91.84375 91.84375 91.84375 50.722657 0 91.84375-41.121094 91.84375-91.84375 0-.382813-.011718-.765625-.015624-1.152344-24.230469-4.285156-27.613282-23.503906-57.824219-23.503906-34.003907 0-34.003907 24.359375-68.007813 24.359375zm0 0" fill="#57a4ff" data-original="#57A4FF"/><path d="m153.535156 7.5h30v88.269531h-30zm0 0" fill="#3e3d42" data-original="#3E3D42"/><path d="m34.820312 123.835938h20v36.910156h-20zm0 0" fill="#006df0" data-original="#006DF0"/><path d="m180.089844 33.914062h30v36.910157h-30zm0 0" fill="#57a4ff" data-original="#57A4FF"/><path d="m300.417969 52.367188c0-6.019532 3.019531-11.332032 7.625-14.511719-2.84375-1.960938-6.285157-3.109375-10-3.109375-9.734375 0-17.625 7.890625-17.625 17.621094 0 9.734374 7.890625 17.625 17.625 17.625 3.714843 0 7.15625-1.148438 10-3.109376-4.605469-3.179687-7.625-8.496093-7.625-14.515624zm0 0" fill="#c6c5ca" data-original="#C6C5CA"/><path d="m354.359375 52.367188c0-6.019532 3.015625-11.332032 7.621094-14.511719-2.839844-1.960938-6.285157-3.109375-10-3.109375-9.734375 0-17.621094 7.890625-17.621094 17.621094 0 9.734374 7.886719 17.625 17.621094 17.625 3.714843 0 7.160156-1.148438 10-3.109376-4.605469-3.179687-7.621094-8.496093-7.621094-14.515624zm0 0" fill="#c6c5ca" data-original="#C6C5CA"/><path d="m7.5 95.769531h30v358.246094h-30zm0 0" fill="#898890" data-original="#898890"/><path d="m7.5 454.015625h30v50.484375h-30zm0 0" fill="#3e3d42" data-original="#3E3D42"/><path d="m7.5 7.5h30v88.269531h-30zm0 0" fill="#c6c5ca" data-original="#C6C5CA"/><path d="m44.363281 7.5 15.347657 27.246094h30l-15.347657-27.246094zm0 0" fill="#898890" data-original="#898890"/><path d="m98.621094 274.890625c0-68.160156 51.433594-124.3125 117.601562-131.761719-4.921875-.554687-9.925781-.839844-15-.839844-73.234375 0-132.601562 59.367188-132.601562 132.601563 0 73.230469 59.367187 132.601563 132.601562 132.601563 5.074219 0 10.078125-.285157 15-.839844-66.171875-7.449219-117.601562-63.597656-117.601562-131.761719zm0 0" fill="#c6c5ca" data-original="#C6C5CA"/><path d="m139.378906 274.890625c0-45.617187 33.257813-83.464844 76.84375-90.625-4.878906-.800781-9.890625-1.21875-15-1.21875-50.722656 0-91.84375 41.121094-91.84375 91.84375 0 50.726563 41.121094 91.84375 91.84375 91.84375 5.109375 0 10.121094-.414063 15-1.21875-43.585937-7.160156-76.84375-45.007813-76.84375-90.625zm0 0" fill="#3e3d42" data-original="#3E3D42"/><path d="m197.222656 274.59375c28.097656 0 32.976563-16.632812 53.007813-22.410156-4.210938-1.214844-9.09375-1.949219-15.003907-1.949219-28.09375 0-32.976562 16.628906-53.007812 22.410156 4.214844 1.214844 9.097656 1.949219 15.003906 1.949219zm0 0" fill="#006df0" data-original="#006DF0"/><path d="m139.378906 274.890625c0-2.695313.117188-5.363281.347656-8-8.609374-5.4375-15.292968-12.257813-27.390624-15.195313-1.925782 7.410157-2.953126 15.183594-2.953126 23.195313 0 50.722656 41.117188 91.84375 91.84375 91.84375 5.105469 0 10.117188-.417969 15-1.21875-43.589843-7.160156-76.847656-45.007813-76.847656-90.625zm0 0" fill="#006df0" data-original="#006DF0"/><path d="m27.320312 168.246094h51.910157v-51.910156h-51.910157zm15-36.910156h21.910157v21.910156h-21.910157zm0 0" data-original="#000000"/><path d="m261.777344 26.414062h-89.1875v51.910157h89.1875zm-15 36.910157h-59.1875v-21.910157h59.1875zm0 0" data-original="#000000"/><path d="m298.042969 77.492188c13.851562 0 25.121093-11.273438 25.121093-25.125 0-13.851563-11.269531-25.121094-25.121093-25.121094-13.851563 0-25.125 11.269531-25.125 25.121094 0 13.851562 11.273437 25.125 25.125 25.125zm0-35.246094c5.578125 0 10.121093 4.539062 10.121093 10.121094 0 5.582031-4.542968 10.125-10.121093 10.125-5.582031 0-10.125-4.542969-10.125-10.125 0-5.582032 4.542969-10.121094 10.125-10.121094zm0 0" data-original="#000000"/><path d="m351.980469 77.492188c13.855469 0 25.121093-11.273438 25.121093-25.125 0-13.851563-11.269531-25.121094-25.121093-25.121094-13.851563 0-25.121094 11.269531-25.121094 25.121094 0 13.851562 11.269531 25.125 25.121094 25.125zm0-35.246094c5.582031 0 10.121093 4.539062 10.121093 10.121094 0 5.582031-4.539062 10.125-10.121093 10.125s-10.121094-4.542969-10.121094-10.125c0-5.582032 4.539063-10.121094 10.121094-10.121094zm0 0" data-original="#000000"/><path d="m86.605469 434.015625v-15h-71.605469v-303.246094h-15v318.246094zm0 0" data-original="#000000"/><path d="m387.449219 115.769531h15v318.246094h-15zm0 0" data-original="#000000"/><path d="m0 512h402.445312v-65.484375h-402.445312zm15-50.484375h372.445312v35.484375h-372.445312zm0 0" data-original="#000000"/><path d="m0 0v103.269531h402.445312v-103.269531zm103.839844 15-6.898438 12.246094h-32.847656l-6.898438-12.246094zm42.195312 73.269531h-131.035156v-73.269531h24.980469l15.34375 27.246094h50.386719l15.34375-27.246094h24.980468zm241.414063 0h-226.414063v-73.269531h226.414063zm0 0" data-original="#000000"/><path d="m201.222656 414.992188c77.253906 0 140.101563-62.847657 140.101563-140.101563 0-77.25-62.847657-140.101563-140.101563-140.101563-77.25 0-140.101562 62.851563-140.101562 140.101563 0 77.253906 62.851562 140.101563 140.101562 140.101563zm0-265.203126c68.980469 0 125.101563 56.121094 125.101563 125.101563s-56.117188 125.101563-125.101563 125.101563c-68.980468 0-125.101562-56.121094-125.101562-125.101563s56.121094-125.101563 125.101562-125.101563zm0 0" data-original="#000000"/><path d="m201.222656 374.234375c54.78125 0 99.34375-44.566406 99.34375-99.34375s-44.5625-99.34375-99.34375-99.34375c-54.777344 0-99.34375 44.566406-99.34375 99.34375s44.566406 99.34375 99.34375 99.34375zm0-183.6875c46.507813 0 84.34375 37.839844 84.34375 84.34375 0 46.507813-37.835937 84.34375-84.34375 84.34375-46.503906 0-84.34375-37.835937-84.34375-84.34375s37.839844-84.34375 84.34375-84.34375zm0 0" data-original="#000000"/><path d="m128.839844 268.515625c8.890625 6.363281 18.972656 13.578125 38.382812 13.578125s29.484375-7.214844 38.371094-13.582031c8.070312-5.78125 15.042969-10.777344 29.632812-10.777344 14.597657 0 21.574219 4.992187 29.652344 10.773437 1.046875.75 2.09375 1.496094 3.15625 2.234376l8.5625-12.3125c-1.003906-.703126-2-1.410157-2.992187-2.121094-8.890625-6.363282-18.96875-13.574219-38.378907-13.574219-19.410156 0-29.480468 7.214844-38.367187 13.582031-8.074219 5.78125-15.042969 10.777344-29.636719 10.777344-14.597656 0-21.574218-4.992188-29.652344-10.773438-.816406-.585937-1.636718-1.171874-2.464843-1.753906l-8.625 12.269532c.789062.558593 1.574219 1.117187 2.359375 1.679687zm0 0" data-original="#000000"/><g fill="#fff"><path d="m373.882812 128.269531h-69.605468v-15h69.605468zm-79.605468 0h-15v-15h15zm-25 0h-15v-15h15zm0 0" data-original="#000000"/><path d="m373.882812 486.515625h-113.5v-15h113.5zm-123.5 0h-15v-15h15zm-25 0h-15v-15h15zm0 0" data-original="#000000"/><path d="m321.617188 274.890625h-15c0-40.417969-23.648438-77.792969-60.242188-95.222656l6.449219-13.542969c20.265625 9.652344 37.425781 24.746094 49.625 43.652344 12.539062 19.429687 19.167969 41.945312 19.167969 65.113281zm-83.839844-98.855469c-4.359375-1.617187-8.871094-2.957031-13.410156-3.976562l3.289062-14.632813c5.195312 1.167969 10.355469 2.695313 15.34375 4.546875zm-22.589844-5.613281c-4.601562-.613281-9.296875-.921875-13.964844-.921875v-15c5.324219 0 10.6875.355469 15.9375 1.050781zm0 0" data-original="#000000"/><path d="m167.210938 312.089844c-5.894532 0-11.179688-.648438-16.15625-1.988282l3.894531-14.484374c3.6875.992187 7.699219 1.472656 12.261719 1.472656h.011718.554688l.140625 15h-.695313c-.003906 0-.007812 0-.011718 0zm11.921874-1.027344-2.722656-14.753906c8.742188-1.609375 14.164063-5.496094 20.445313-9.996094 8.886719-6.367188 18.957031-13.582031 38.367187-13.582031 19.40625 0 29.480469 7.210937 38.367188 13.570312l1.398437.996094-8.691406 12.226563-1.433594-1.023438c-8.078125-5.777344-15.050781-10.769531-29.640625-10.769531s-21.5625 4.992187-29.632812 10.777343c-6.761719 4.84375-14.421875 10.332032-26.457032 12.554688zm-38.898437-5.210938c-4.304687-2.257812-7.910156-4.835937-11.394531-7.328124-.65625-.46875-1.3125-.9375-1.972656-1.40625l8.652343-12.253907c.683594.484375 1.367188.972657 2.046875 1.457031 3.210938 2.300782 6.25 4.46875 9.636719 6.25zm0 0" data-original="#000000"/></g></g> </svg>
