<svg height="512pt" viewBox="0 0 512 512" width="512pt" xmlns="http://www.w3.org/2000/svg" xmlns:xlink="http://www.w3.org/1999/xlink"><linearGradient id="a" gradientUnits="userSpaceOnUse" x1="0" x2="512" y1="256" y2="256"><stop offset="0" stop-color="#00f2fe"/><stop offset=".0208" stop-color="#03effe"/><stop offset=".2931" stop-color="#24d2fe"/><stop offset=".5538" stop-color="#3cbdfe"/><stop offset=".7956" stop-color="#4ab0fe"/><stop offset="1" stop-color="#4facfe"/></linearGradient><path d="m497.074219 120.996094c-9.902344-23.90625-24.195313-45.300782-42.480469-63.589844-18.285156-18.285156-39.683594-32.578125-63.589844-42.480469-23.90625-9.90625-49.144531-14.925781-75.003906-14.925781-11.046875 0-20 8.953125-20 20v117.449219.003906 38.546875c0 22.054688 17.945312 40 40 40h156c11.046875 0 20-8.953125 20-20 0-25.859375-5.019531-51.097656-14.925781-75.003906zm-123.160157-69.746094-37.914062 37.914062v-47.851562c13.015625 1.710938 25.765625 5.074219 37.914062 9.9375zm-37.914062 94.484375 74.105469-74.105469c5.707031 4.292969 11.125 8.984375 16.203125 14.0625 5.144531 5.144532 9.894531 10.644532 14.242187 16.433594l-74.8125 73.875h-29.738281zm86.667969 30.265625 38.171875-37.695312c4.8125 12.082031 8.144531 24.757812 9.847656 37.695312zm49.332031 100c0 44.625-12.519531 88.078125-36.203125 125.664062-5.890625 9.34375-18.238281 12.144532-27.585937 6.257813-9.34375-5.890625-12.144532-18.238281-6.257813-27.585937 16.101563-25.546876 25.984375-54.371094 29.03125-84.335938h-154.984375c-33.085938 0-60-26.914062-60-60v-154.988281c-98.71875 10.046875-176 93.660156-176 194.988281 0 108.074219 87.925781 196 196 196 35.9375 0 71.078125-9.808594 101.613281-28.359375 9.441407-5.734375 21.742188-2.734375 27.480469 6.707031 5.734375 9.4375 2.730469 21.742188-6.707031 27.476563-36.800781 22.359375-79.121094 34.175781-122.386719 34.175781-63.207031 0-122.519531-24.5-167.007812-68.992188-44.492188-44.488281-68.992188-103.800781-68.992188-167.007812 0-63.039062 24.546875-122.304688 69.121094-166.878906 44.574218-44.574219 103.839844-69.121094 166.878906-69.121094 11.046875 0 20 8.953125 20 20v176c0 11.027344 8.972656 20 20 20h176c11.046875 0 20 8.953125 20 20zm0 0" fill="url(#a)"/></svg>