<svg height="512pt" viewBox="0 0 511 512" width="512pt" xmlns="http://www.w3.org/2000/svg" xmlns:xlink="http://www.w3.org/1999/xlink"><linearGradient id="a" gradientUnits="userSpaceOnUse" x1=".499863" x2="512.499638" y1="256" y2="256"><stop offset="0" stop-color="#00f2fe"/><stop offset=".0208" stop-color="#03effe"/><stop offset=".2931" stop-color="#24d2fe"/><stop offset=".5538" stop-color="#3cbdfe"/><stop offset=".7956" stop-color="#4ab0fe"/><stop offset="1" stop-color="#4facfe"/></linearGradient><path d="m166.5 472h-105.308594c-8.535156 0-13.6875-4.765625-15.996094-7.605469-3.992187-4.90625-5.535156-11.289062-4.238281-17.519531 20.769531-99.761719 108.808594-172.617188 210.445313-174.980469 1.691406.0625 3.390625.105469 5.097656.105469 1.695312 0 3.378906-.042969 5.0625-.105469 26.40625.632813 52.671875 6.214844 78.140625 16.621094 10.226563 4.175781 21.902344-.726563 26.078125-10.953125 4.175781-10.222656-.726562-21.898438-10.953125-26.078125-5.710937-2.332031-11.457031-4.449219-17.238281-6.371094 33.300781-24.8125 54.910156-64.484375 54.910156-109.113281 0-74.988281-61.011719-136-136-136-74.992188 0-136 61.011719-136 136 0 44.507812 21.492188 84.09375 54.644531 108.917969-30.371093 9.996093-58.871093 25.546875-83.816406 46.0625-45.730469 37.617187-77.527344 90.085937-89.53125 147.742187-3.761719 18.066406.746094 36.621094 12.363281 50.90625 11.5625 14.21875 28.703125 22.371094 47.03125 22.371094h105.308594c11.046875 0 20-8.953125 20-20s-8.953125-20-20-20zm-6-336c0-52.933594 43.066406-96 96-96s96 43.066406 96 96c0 51.410156-40.621094 93.507812-91.453125 95.890625-1.515625-.027344-3.03125-.058594-4.546875-.058594-1.5625 0-3.128906.023438-4.6875.050781-50.765625-2.453124-91.3125-44.519531-91.3125-95.882812zm352 224v69c0 11.046875-8.953125 20-20 20s-20-8.953125-20-20v-48.503906l-68.433594 68.265625c-17.367187 17.324219-45.148437 17.921875-63.242187 1.367187l-10.203125-9.335937c-2.304688-2.105469-5.933594-1.988281-8.089844.269531l-61.539062 64.71875c-3.929688 4.132812-9.207032 6.21875-14.496094 6.21875-4.949219 0-9.90625-1.824219-13.777344-5.507812-8.003906-7.609376-8.324219-20.269532-.710938-28.273438l61.566407-64.75c8.351562-8.742188 19.5625-13.761719 31.597656-14.167969 12.042969-.398437 23.5625 3.847657 32.449219 11.980469l10.203125 9.335938c2.285156 2.089843 5.796875 2.015624 7.992187-.175782l70.617188-70.441406h-49.933594c-11.046875 0-20-8.953125-20-20s8.953125-20 20-20h66c27.570312 0 50 22.429688 50 50zm0 0" fill="url(#a)"/></svg>