<?xml version="1.0"?>
<svg xmlns="http://www.w3.org/2000/svg" xmlns:xlink="http://www.w3.org/1999/xlink" version="1.1" id="Capa_1" x="0px" y="0px" viewBox="0 0 511.667 511.667" style="enable-background:new 0 0 511.667 511.667;" xml:space="preserve" width="512px" height="512px" class=""><g><path style="fill:#8AD6F7;" d="M491.484,239.667l-20.267,20.267c-1.067,1.067-3.2,1.067-4.267,0l-33.067-33.067  c-1.067-1.067-1.067-3.2,0-4.267l20.267-20.267c1.067-1.067,3.2-1.067,4.267,0l33.067,33.067  C492.551,236.467,492.551,238.6,491.484,239.667z" data-original="#8AD6F7"/><g>
	
		<rect x="463.749" y="199.285" transform="matrix(-0.7071 0.7071 -0.7071 -0.7071 957.8145 55.1629)" style="fill:#425A6B;" width="7.467" height="53.333" data-original="#425A6B"/>
	
		<rect x="443.121" y="223.67" transform="matrix(-0.7073 0.707 -0.707 -0.7073 920.7711 75.6591)" style="fill:#425A6B;" width="3.2" height="9.601" data-original="#425A6B"/>
	
		<rect x="452.578" y="233.553" transform="matrix(-0.7071 0.7071 -0.7071 -0.7071 943.8707 85.7425)" style="fill:#425A6B;" width="3.2" height="9.6" data-original="#425A6B"/>
	
		<rect x="462.823" y="244.174" transform="matrix(-0.7071 0.7071 -0.7071 -0.7071 968.8705 96.629)" style="fill:#425A6B;" width="3.2" height="9.6" data-original="#425A6B"/>
	<polygon style="fill:#425A6B;" points="368.818,175.667 378.418,133 391.218,140.467 394.418,265.267 359.218,239.667  " data-original="#425A6B"/>
	<ellipse style="fill:#425A6B;" cx="331.484" cy="233.267" rx="41.6" ry="28.8" data-original="#425A6B"/>
</g><path style="fill:#FFD15C;" d="M385.884,147.933c0,0,5.333,43.733-17.067,74.667c0,0-4.267,16,18.133,29.867  c22.4,13.867,22.4,13.867,22.4,13.867l-84.267,60.8l-42.667-12.8l7.467-66.133l11.733-7.467l8.533-4.267  c3.2-1.067,3.2-5.333,1.067-7.467c-5.333-5.333-13.867-16-17.067-25.6c-4.267-12.8-4.267-12.8-4.267-12.8s1.067-39.467,7.467-55.467  s14.933-26.667,34.133-26.667C351.751,107.4,382.684,133,385.884,147.933z" data-original="#FFD15C"/><path style="fill:#F05640;" d="M410.418,266.333L425.351,261c0,0,20.267,10.667,25.6,19.2c4.267,8.533,17.067,59.733,17.067,59.733  S430.684,344.2,424.284,357l-3.2-5.333l-17.067-21.333L410.418,266.333z" data-original="#F05640"/><path style="fill:#FFD15C;" d="M453.084,266.333c0,0,2.133-2.133,2.133-3.2c0-1.067,0-2.133,2.133-7.467  c2.133-4.267,6.4-8.533,8.533-9.6c2.133-1.067,7.467-4.267,7.467-4.267s4.267-2.133,6.4,0c2.133,1.067,3.2,7.467,3.2,10.667  c1.067,3.2,1.067,9.6,1.067,9.6s5.333,3.2,6.4,5.333c2.133,1.067,3.2,4.267,3.2,6.4c0,0,3.2,2.133,4.267,5.333  c1.067,3.2-1.067,4.267,0,5.333c1.067,1.067,2.133,3.2,0,7.467c-2.133,3.2-7.467,9.6-9.6,13.867c-2.133,4.267-5.333,7.467-6.4,9.6  s0,9.6,0,16c0,6.4,11.733,57.6,13.867,68.267c2.133,10.667,1.067,41.6,0,46.933c-1.067,5.333-7.467,14.933-13.867,16  c-7.467,2.133-13.867,0-19.2-5.333c-5.333-5.333-6.4-7.467-11.733-16c-5.333-8.533-22.4-61.867-27.733-83.2  c7.467-9.6,20.267-13.867,36.267-14.933c0,0-2.133-11.733-4.267-18.133c-2.133-6.4-2.133-8.533-3.2-12.8  c-2.133-5.333-6.4-10.667-5.333-16c0-4.267,4.267-14.933,5.333-20.267C452.018,267.4,453.084,266.333,453.084,266.333z" data-original="#FFD15C"/><path style="fill:#F26F5A;" d="M242.951,235.4c0,0,17.067,8.533,25.6,10.667c8.533,2.133,14.933-2.133,25.6-4.267  c9.6-2.133,9.6-2.133,9.6-2.133s-20.267,46.933-7.467,61.867c12.8,13.867,51.2,3.2,61.867-7.467  c10.667-10.667,28.8-38.4,29.867-41.6c0,0,25.6,4.267,37.333,8.533c0,0-12.8,59.733-3.2,90.667c0,0-17.067,34.133-23.467,55.467  c-6.4,21.333-7.467,40.533-6.4,51.2c2.133,10.667,14.933,53.333,14.933,53.333h-172.8c0,0,13.867-55.467,16-88.533  c1.067-33.067-2.133-78.933-2.133-86.4s4.267-17.067,2.133-26.667s-77.867-38.4-77.867-38.4S200.284,214.067,242.951,235.4z" data-original="#F26F5A" class=""/><path style="fill:#FFD15C;" d="M141.618,1.8c0,0,3.2-3.2,5.333-1.067c3.2,1.067,5.333,5.333,5.333,5.333s1.067-1.067,2.133,0  l2.133,8.533c0,0,2.133,1.067,2.133,4.267s2.133,14.933,2.133,14.933s-1.067,10.667-2.133,14.933  c-1.067,3.2-5.333,34.133-5.333,34.133l-25.6-3.2c0,0,2.133-17.067,2.133-19.2c0-2.133-3.2-7.467-6.4-12.8  c-4.267-5.333-8.533-11.733-10.667-20.267s2.133-7.467,4.267-8.533c1.067-1.067,3.2-4.267,3.2-6.4  c1.067-2.133,1.067-2.133,4.267-3.2c1.067-2.133,3.2-2.133,3.2-5.333c1.067-3.2,3.2-4.267,5.333-3.2S138.418,3.933,141.618,1.8z" data-original="#FFD15C"/><g>
	<path style="fill:#67C5B8;" d="M122.418,41.267C122.418,41.267,123.484,41.267,122.418,41.267   c-8.533,24.533-20.267,71.467-20.267,72.533l-3.2-1.067c1.067-2.133,12.8-49.067,22.4-72.533   C121.351,40.2,122.418,40.2,122.418,41.267z" data-original="#67C5B8"/>
	<path style="fill:#67C5B8;" d="M187.484,112.733h-3.2c0-1.067-12.8-80-24.533-91.733c0,0,0,0,0-1.067c0,0,0,0,0-1.067   s0-1.067,0-1.067c0-1.067,0-1.067,0-2.133c1.067,1.067,2.133,2.133,4.267,3.2C174.684,31.667,187.484,109.533,187.484,112.733z" data-original="#67C5B8"/>
</g><polygon style="fill:#344A5E;" points="30.684,339.933 63.751,358.067 245.084,343.133 213.084,314.333 " data-original="#344A5E"/><g>
	<polygon style="fill:#48B9A5;" points="224.818,326.067 217.351,329.267 30.684,339.933 37.084,303.667 46.684,109.533    229.084,93.533  " data-original="#48B9A5"/>
	<polygon style="fill:#48B9A5;" points="226.951,327.133 245.084,343.133 239.751,101 229.084,103.133 221.618,316.467  " data-original="#48B9A5"/>
</g><polygon style="fill:#67C5B8;" points="229.084,93.533 217.351,329.267 245.084,343.133 224.818,309 231.218,93.533 " data-original="#67C5B8"/><g>
	<path style="fill:#CED6E0;" d="M120.284,39.133c1.067,1.067,1.067,1.067,2.133,2.133c-9.6,18.133-20.267,42.667-20.267,42.667   l-3.2-1.067C100.018,81.8,110.684,56.2,120.284,39.133z" data-original="#CED6E0"/>
	<path style="fill:#CED6E0;" d="M175.751,92.467h-3.2C171.484,75.4,168.284,29.533,160.818,21c0,0-1.067-1.067-2.133-1.067   c0-1.067,0-1.067,0-1.067c0-1.067,0-2.133,0-2.133c2.133,1.067,3.2,2.133,4.267,4.267C172.551,30.6,175.751,90.333,175.751,92.467z   " data-original="#CED6E0"/>
</g><polygon style="fill:#E8EAE8;" points="12.551,268.467 39.218,288.733 196.018,297.267 172.551,268.467 " data-original="#E8EAE8"/><polygon style="fill:#F3F3F3;" points="181.084,280.2 174.684,282.333 12.551,268.467 22.151,238.6 55.218,72.2 213.084,81.8 " data-original="#F3F3F3"/><polygon style="fill:#E8EAE8;" points="183.218,282.333 196.018,297.267 221.618,89.267 212.018,89.267 180.018,271.667 " data-original="#E8EAE8"/><polygon style="fill:#CED6E0;" points="213.084,81.8 174.684,282.333 196.018,297.267 183.218,265.267 215.218,81.8 " data-original="#CED6E0"/><g>
	<path style="fill:#F5B54C" d="M110.684,28.467c2.133,2.133,4.267,4.267,5.333,6.4l3.2,3.2c1.067,1.067,2.133,2.133,3.2,3.2   c0,0,1.067,1.067,2.133,1.067h1.067c1.067,1.067,2.133,1.067,4.267,1.067h1.067l0,0l0,0c1.067,0,1.067,0,2.133-1.067   s2.133-2.133,2.133-3.2h2.133c1.067,0,1.067-1.067,1.067-1.067h1.067l0,0l0,0l0,0l0,0l0,0c0,0,0,0,1.067,0c0,0,0,0,1.067,0l0,0l0,0   l0,0l0,0l0,0l0,0l0,0l0,0l0,0l0,0c0,0,0,0,0-1.067l0,0l0,0l0,0l0,0v-1.067L142.684,37c0,0,1.067,1.067,2.133,1.067   s1.067,0,2.133-1.067l0,0l0,0l0,0l0,0c0,0,0-1.067,1.067-1.067c0-1.067,0-1.067,0-2.133c0-1.067,0-1.067,0-2.133   c0-1.067-1.067-1.067-1.067-2.133c-1.067-1.067-2.133-2.133-3.2-4.267c0-1.067-1.067-1.067-1.067-2.133l0,0l0,0v-1.067V21   c0-1.067,0-2.133,0-2.133V17.8c0,0,0,0,0-1.067v-1.067V14.6v-1.067v-1.067c0,0,0-1.067,1.067-1.067v-1.067l0,0l0,0l0,0l1.067-1.067   c0,0,1.067,0,1.067-1.067c0,0-1.067,0-1.067,1.067l-1.067,1.067l0,0l0,0l0,0V11.4v1.067v1.067V14.6v1.067v1.067c0,0,0,0,0,1.067   v1.067c0,1.067,0,1.067,0,2.133v1.067v1.067l0,0l0,0c0,1.067,1.067,1.067,1.067,2.133c1.067,1.067,2.133,2.133,3.2,4.267   c0,1.067,1.067,1.067,1.067,2.133c0,0,0,0,0,1.067c0,0,0,0,0,1.067v1.067c0,1.067,0,2.133,0,2.133s0,1.067-1.067,1.067l0,0l0,0l0,0   l0,0c-1.067,0-2.133,1.067-2.133,1.067c-1.067,0-2.133,0-2.133-1.067h1.067l0,0l0,0l0,0l0,0c0,0,0,0,0,1.067c0,0,0,0,0,1.067   c0,0,0,0,0,1.067l0,0l0,0l0,0l0,0l0,0l0,0l0,0l0,0l0,0c0,0,0,0-1.067,0c0,0,0,0-1.067,0c0,0,0,0-1.067,0c0,0,0,0-1.067,0l0,0l0,0   l0,0l0,0h1.067c-1.067,1.067-1.067,1.067-2.133,1.067s-1.067,0-2.133,0l0,0c0,1.067-1.067,3.2-2.133,3.2s-1.067,1.067-2.133,1.067   c0,0,0,0-1.067,0l0,0h-1.067c-1.067,0-3.2,0-4.267-1.067c-1.067,0-1.067-1.067-2.133-1.067c-1.067,0-1.067-1.067-2.133-1.067   c-1.067-1.067-2.133-2.133-3.2-3.2c-1.067-1.067-2.133-2.133-3.2-3.2C113.884,32.733,112.818,30.6,110.684,28.467z" data-original="#F5B54C" class="active-path"/>
	<path style="fill:#F5B54C" d="M146.951,35.933c0,0,0,0-1.067-1.067c0-1.067-1.067-2.133-2.133-3.2c0,0,0-1.067-1.067-1.067l0,0   l0,0l0,0c0,0,0,0,0-1.067s-1.067-2.133-1.067-2.133c0-1.067-1.067-2.133-1.067-3.2s0-2.133-1.067-3.2   c0-1.067-1.067-2.133-1.067-3.2c0,1.067,0,0,0-1.067s0-2.133,0-3.2s0-2.133,0-2.133c0-1.067,0-3.2,1.067-3.2   c0-1.067,0-1.067,0-1.067s0,0,0,1.067s0,2.133,0,3.2s0,1.067,0,2.133s0,2.133,1.067,2.133c0,1.067,1.067,2.133,1.067,3.2   c0,1.067,1.067,2.133,1.067,3.2s1.067,2.133,1.067,3.2s0,2.133,1.067,3.2c0,1.067,1.067,2.133,1.067,2.133l0,0l0,0l0,0l0,0   c0,0,0,1.067,1.067,1.067c1.067,1.067,1.067,2.133,2.133,3.2C146.951,35.933,146.951,35.933,146.951,35.933z" data-original="#F5B54C" class="active-path"/>
	<path style="fill:#F5B54C" d="M140.551,38.067C140.551,38.067,139.484,38.067,140.551,38.067c-2.133-1.067-2.133-2.133-3.2-2.133   c0,0-1.067-1.067-1.067-2.133c0-1.067-1.067-1.067-1.067-2.133s-1.067-1.067-1.067-2.133c0-1.067-1.067-1.067-1.067-2.133   c0-1.067-1.067-1.067-1.067-2.133V24.2l0,0l0,0l0,0l0,0c-1.067-1.067-1.067-1.067-1.067-2.133s-1.067-1.067-1.067-2.133   c0-1.067,0-1.067,0-2.133v-1.067v-1.067l0,0l0,0c0,0,0,0,0,1.067c0,0,0,0,0,1.067c0,0,0,0,0,1.067c0,0,0,1.067,0,2.133   c0,1.067,0,1.067,1.067,2.133c0,1.067,1.067,1.067,1.067,2.133l0,0l0,0l0,0c0,0,0,0,0,1.067V27.4c0,1.067,1.067,1.067,1.067,2.133   c1.067,1.067,1.067,3.2,2.133,4.267c0,1.067,1.067,1.067,1.067,2.133c0,1.067,1.067,1.067,1.067,2.133   C137.351,37,138.418,37,140.551,38.067C139.484,38.067,140.551,38.067,140.551,38.067z" data-original="#F5B54C" class="active-path"/>
	<path style="fill:#F5B54C" d="M136.284,39.133L136.284,39.133C135.218,39.133,135.218,39.133,136.284,39.133   c-2.133-1.067-2.133-1.067-3.2-2.133h-1.067c0,0-1.067,0-1.067-1.067c-1.067,0-1.067-1.067-2.133-1.067s-1.067-1.067-2.133-1.067   s-1.067-1.067-2.133-2.133c0,0,0,0-1.067-1.067c0-1.067-1.067-1.067-1.067-2.133l0,0l0,0l0,0V27.4c0-1.067,0-1.067,0-2.133   c-2.133-3.2-2.133-4.267-2.133-4.267s1.067,1.067,1.067,4.267c0,1.067,0,1.067,1.067,2.133v1.067l0,0l0,0l0,0   c0,1.067,1.067,1.067,1.067,2.133c0,1.067,1.067,1.067,2.133,2.133c1.067,1.067,1.067,1.067,2.133,2.133   c1.067,0,1.067,1.067,2.133,1.067c1.067,0,1.067,1.067,2.133,1.067c1.067,0,1.067,1.067,1.067,1.067   C134.151,38.067,134.151,39.133,136.284,39.133C135.218,39.133,135.218,39.133,136.284,39.133L136.284,39.133z" data-original="#F5B54C" class="active-path"/>
</g><path style="fill:#F3F3F3;" d="M157.618,13.533L157.618,13.533L155.484,5C154.418,6.067,151.218,14.6,157.618,13.533z" data-original="#F3F3F3"/><g>
	<path style="fill:#425A6B;" d="M324.018,120.2c0,0-10.667,34.133-24.533,38.4c0,0,13.867,1.067,18.133-1.067   c5.333-3.2,13.867,5.333,24.533,5.333c10.667,0,27.733-17.067,29.867-28.8c0,0,8.533,9.6,10.667,21.333s6.4,28.8,6.4,36.267   c0,8.533-6.4,55.467-3.2,69.333c3.2,14.933,7.467,18.133,13.867,22.4c0,0-3.2-4.267,1.067-13.867c4.267-9.6,11.733-6.4,12.8-25.6   c2.133-19.2-6.4-86.4-10.667-104.533c-5.333-18.133-21.333-46.933-52.267-49.067c-30.933-2.133-44.8,18.133-51.2,28.8   c-6.4,11.733-14.933,55.467-14.933,70.4c0,14.933-7.467,67.2-14.933,83.2c-6.4,17.067-9.6,30.933-10.667,39.467   c-3.2,22.4,10.667,29.867,7.467,61.867c0,0,21.333-49.067,23.467-71.467c0,0,0,6.4,4.267,19.2s-2.133,27.733-2.133,27.733   s9.6-10.667,11.733-23.467c2.133-12.8,2.133-21.333,6.4-29.867c5.333-8.533,14.933-20.267,13.867-32   c-1.067-11.733-1.067-24.533-14.933-39.467c-5.333-7.467-12.8-27.733-13.867-48c-1.067-20.267,4.267-38.4,10.667-45.867   C313.351,122.333,324.018,120.2,324.018,120.2z" data-original="#425A6B"/>
	<path style="fill:#425A6B;" d="M313.351,233.267c0,0,1.067,1.067,2.133,4.267c1.067,1.067,2.133,2.133,3.2,4.267   c1.067,2.133,2.133,3.2,3.2,5.333c1.067,2.133,2.133,4.267,3.2,7.467c0,1.067,0,1.067,1.067,2.133l0,0l0,0l0,0v1.067   c0,1.067,0,1.067,1.067,2.133c0,1.067,0,1.067,0,2.133c1.067,3.2,1.067,6.4,1.067,9.6c0,2.133,0,3.2-1.067,5.333   c0,2.133-1.067,3.2-1.067,5.333c-1.067,3.2-3.2,6.4-5.333,8.533s-4.267,5.333-6.4,7.467c0,1.067-1.067,1.067-1.067,2.133l0,0l0,0   l0,0l0,0c0,0,0,1.067-1.067,1.067c0,1.067-1.067,1.067-1.067,2.133s-1.067,1.067-1.067,2.133c-1.067,2.133-2.133,5.333-2.133,7.467   c-1.067,2.133-1.067,4.267-1.067,6.4v1.067v1.067v1.067v1.067c0,1.067,0,1.067,0,2.133c0,1.067,0,1.067,0,1.067   c0,1.067,0,1.067,0,1.067s0,0,0-1.067v-1.067c0-1.067,0-1.067,0-2.133v-1.067V321.8v-1.067v-1.067c0-2.133,0-4.267,1.067-6.4   c0-2.133,1.067-5.333,2.133-7.467c0-1.067,1.067-1.067,1.067-2.133s1.067-1.067,1.067-2.133c0,0,0-1.067,1.067-1.067l0,0l0,0l0,0   l0,0c0-1.067,1.067-1.067,1.067-2.133c2.133-2.133,4.267-5.333,5.333-7.467c2.133-2.133,3.2-5.333,4.267-8.533   c0-1.067,1.067-3.2,1.067-4.267c0-1.067,0-3.2,0-4.267c0-3.2,0-6.4-1.067-8.533c0-1.067,0-1.067-1.067-2.133   c0-1.067,0-1.067-1.067-2.133v-1.067l0,0l0,0l0,0c0-1.067,0-1.067-1.067-2.133c-1.067-2.133-2.133-4.267-3.2-6.4   c-2.133-4.267-4.267-7.467-6.4-9.6c-2.133-2.133-2.133-3.2-2.133-3.2L313.351,233.267z" data-original="#425A6B"/>
	<path style="fill:#425A6B;" d="M316.551,281.267L316.551,281.267c0,1.067,0,1.067,0,1.067v1.067c0,1.067,0,2.133,0,3.2   c0,1.067,0,2.133,0,3.2c0,2.133,0,5.333,0,8.533c0,1.067,0,2.133,0,2.133v1.067v1.067c0,1.067,0,2.133,0,2.133   c0,1.067,0,2.133,0,3.2c0,2.133,0,3.2-1.067,5.333c0,2.133-1.067,3.2-1.067,5.333c0,1.067,0,1.067-1.067,2.133   c0,1.067,0,1.067-1.067,2.133c0,1.067,0,1.067-1.067,2.133c0,1.067,0,1.067-1.067,2.133c0,1.067-1.067,2.133-1.067,3.2   s-1.067,2.133-1.067,2.133c0,1.067-1.067,1.067-1.067,1.067v1.067c0,0,0,0,0-1.067c0,0,0-1.067,1.067-2.133   c0-1.067,1.067-1.067,1.067-2.133s1.067-2.133,1.067-3.2c0-1.067,0-1.067,1.067-2.133c0-1.067,0-1.067,1.067-2.133   c0-1.067,0-1.067,0-2.133c0-1.067,0-1.067,0-2.133c0-2.133,0-3.2,1.067-5.333c0-2.133,0-3.2,0-5.333c0-1.067,0-2.133,0-2.133   c0-1.067,0-2.133,0-2.133v-1.067v-1.067c0-1.067,0-2.133,0-2.133c0-3.2-1.067-6.4-1.067-8.533c0-1.067,0-2.133,0-3.2s0-2.133,0-3.2   v-1.067v-1.067V280.2L316.551,281.267z" data-original="#425A6B"/>
</g><g>
	<path style="fill:#F5B54C" d="M456.284,261C456.284,261,456.284,262.067,456.284,261C456.284,262.067,456.284,262.067,456.284,261   c0,1.067,0,1.067,0,1.067l0,0l0,0l0,0l0,0l0,0l0,0l0,0l0,0l0,0l0,0l0,0h1.067l0,0l0,0c-1.067,2.133-2.133,4.267-3.2,7.467   c0,1.067-1.067,2.133-1.067,3.2v1.067v1.067c0,1.067,0,1.067,0,2.133l0,0l-1.067,8.533l0,0c0,0,0,0,1.067,0c0,0,0,0,1.067,0l0,0   l0,0l0,0l0,0l0,0l0,0l0,0l0,0l0,0l0,0c0,0,0,0,1.067,0l0,0l0,0l0,0l-1.067,9.6l0,0h1.067h1.067h1.067h1.067h1.067   c0,0,1.067,0,1.067-1.067c0,0,0,0,1.067-1.067c0,0,0,0,1.067-1.067c0,0,0-1.067,1.067-1.067V289.8v-1.067v-1.067V286.6v-1.067   v-1.067V283.4l0,0l0,0l0,0v1.067v1.067l0,0l0,0c0,0,0,0,0,1.067c0,0,0,1.067,1.067,1.067c1.067,1.067,2.133,3.2,2.133,4.267l0,0   c0,0,0,0,1.067,0c0,0,0,0,1.067,0c0,0,0,0,1.067,0l0,0l0,0l0,0l0,0l0,0c0,0,0,0,0-1.067c0,0,0,0,0-1.067c0,0,0,0,0-1.067v-1.067   c0,0,0,0,0-1.067v-1.067v-1.067l0,0l0,0V283.4v-1.067c0-1.067,0-1.067,0-2.133l0,0l0,0c0,0,0,0,0,1.067c0,0,0,0,0,1.067   c0,0,0,0,1.067,1.067c0,0,0,0,1.067,0l0,0l0,0l0,0l0,0l0,0l0,0c0,0,0,0,1.067,0l0,0c-1.067,0-2.133-1.067-3.2-1.067h-1.067l0,0l0,0   v1.067v1.067c0,1.067,1.067,2.133,1.067,3.2c0,0,0,0,0,1.067c0,0,0,0,1.067,1.067l0,0l0,0c0,0,0,0,1.067,0c0,0,0,0-1.067,0l0,0l0,0   c0,0,0,0-1.067-1.067c0,0,0,0,0-1.067c-1.067-1.067-1.067-2.133-1.067-3.2V283.4v-1.067l0,0l0,0h1.067c1.067,0,1.067,0,2.133,0   c1.067,0,1.067,0,2.133,0l0,0l0,0l0,0c0,0,0,0-1.067,0l0,0l0,0l0,0l0,0l0,0l0,0c0,0,0,0-1.067-1.067c0,0,0,0-1.067-1.067   c0,0,0,0,0-1.067c0,0,0,0,0-1.067l0,0c0,1.067,0,2.133,0,2.133v1.067v1.067l0,0v1.067v1.067c0,0,0,0,0,1.067v1.067c0,0,0,0,0,1.067   c0,0,0,0,0,1.067c0,0,0,0,0,1.067v1.067c0,0,0,0,0,1.067l0,0c0,0,0,0-1.067,0c0,0,0,0-1.067,0c0,0,0,0-1.067,0c0,0,0,0-1.067,0   c0,0,0,0-1.067,0l0,0l0,0c-1.067-1.067-1.067-3.2-2.133-4.267c0,0,0-1.067-1.067-1.067l0,0l0,0l0,0l0,0l0,0l0,0   c0,0,0-1.067-1.067-1.067v-1.067h1.067v1.067v1.067v1.067v1.067v1.067v1.067c0,0,0,1.067-1.067,1.067c0,0,0,1.067-1.067,1.067   c0,0,0,1.067-1.067,1.067c0,0,0,0-1.067,1.067c0,0-1.067,0-1.067,1.067h-1.067h-1.067h-1.067h-1.067h-1.067l0,0l0,0l1.067-9.6l0,0   c0,0,0,0-1.067,1.067l0,0l0,0l0,0l0,0l0,0l0,0l0,0l0,0l0,0l0,0c0,0,0,0-1.067,0c0,0,0,0-1.067-1.067l0,0l0,0l1.067-8.533l0,0   c0-1.067,0-1.067,0-2.133v-1.067V273.8c0-1.067,1.067-2.133,1.067-3.2c1.067-2.133,2.133-4.267,3.2-7.467l0,0h-1.067l0,0l0,0l0,0   l0,0l0,0l0,0l0,0l0,0l0,0l0,0l0,0C456.284,262.067,456.284,262.067,456.284,261C456.284,262.067,456.284,262.067,456.284,261   C456.284,262.067,456.284,261,456.284,261z" data-original="#F5B54C" class="active-path"/>
	<path style="fill:#F5B54C" d="M472.284,293v-1.067v-1.067l-1.067-2.133l-2.133-4.267l0,0l0,0V283.4c0,0,0,0,0-1.067v-1.067   c0-1.067,1.067-2.133,1.067-3.2c0-1.067,1.067-2.133,1.067-3.2c0-1.067,1.067-2.133,1.067-3.2l0,0c0,0,0,0,0-1.067c0,0,0,0,0-1.067   l1.067-1.067h1.067h1.067c1.067,0,2.133,0,2.133,1.067c0,0,1.067,0,1.067,1.067l1.067,1.067l4.267,3.2   c1.067,0,1.067,1.067,2.133,1.067l1.067,1.067c0,0,1.067,0,1.067,1.067c3.2-1.067,3.2-1.067,2.133-1.067s-2.133-1.067-2.133-1.067   c-1.067-1.067-3.2-2.133-4.267-2.133l-2.133-1.067c-1.067,0-1.067-1.067-2.133-1.067h-1.067h-1.067c0,0-1.067,0-1.067,1.067l0,0   l0,0l0,0l0,0c-1.067,2.133-2.133,4.267-2.133,6.4c0,1.067-1.067,2.133-1.067,3.2v1.067c0,0,0,0,0,1.067c0,0,0,0,0,1.067l0,0   l1.067,2.133c0,1.067,0,1.067,0,2.133v2.133V293C472.284,293,472.284,293,472.284,293z" data-original="#F5B54C" class="active-path"/>
	<path style="fill:#F5B54C" d="M460.551,285.533c0-2.133,1.067-3.2,1.067-5.333c0-1.067,0-2.133,1.067-3.2   c0-1.067,0-2.133,1.067-2.133V273.8v-1.067l1.067-2.133c1.067-2.133,1.067-3.2,2.133-5.333l0,0V264.2c0,0,0,0,0-1.067l1.067-1.067   l0,0l0,0h1.067c1.067,0,1.067,0,1.067,0l0,0l0,0c0,0,0,0,1.067,0h1.067h1.067h1.067c0,0,1.067,0,1.067,1.067   c0,0,1.067,0,1.067,1.067c0,0,1.067,0,1.067,1.067c1.067,0,2.133,1.067,2.133,1.067c2.133,1.067,3.2,2.133,5.333,3.2h-1.067h-1.067   c0,0-1.067,0-1.067-1.067c-1.067,0-2.133-1.067-3.2-1.067c-2.133-1.067-3.2-2.133-5.333-3.2c0,0-1.067,0-1.067-1.067h-1.067h-1.067   h-1.067h-1.067c0,0,0,0-1.067,0h-1.067c0,0,0,0-1.067,0l0,0l0,0c0,0-1.067,0-1.067,1.067c0,0,0,0,0,1.067c0,0,0,0,0,1.067l0,0l0,0   c-1.067,2.133-1.067,3.2-2.133,5.333l-1.067,2.133l-1.067,1.067v1.067c0,1.067-1.067,2.133-1.067,2.133   c0,1.067-1.067,2.133-1.067,2.133C461.618,282.333,460.551,284.467,460.551,285.533z" data-original="#F5B54C" class="active-path"/>
	<path style="fill:#F5B54C" d="M460.551,263.133c0,0,0,0,1.067-1.067c0-1.067,1.067-2.133,1.067-3.2   c0-1.067,1.067-1.067,1.067-2.133c0-1.067,1.067-1.067,1.067-2.133c0,0,0-1.067,1.067-1.067l1.067-1.067c0,0,1.067,0,2.133,0   c1.067,0,1.067,0,1.067,0s1.067,0,1.067,1.067c0,0,1.067,0,1.067,1.067c1.067,0,2.133,1.067,2.133,1.067   c1.067,1.067,3.2,2.133,4.267,3.2c1.067,0,1.067,1.067,1.067,1.067l1.067,1.067c1.067,1.067,1.067,1.067,1.067,1.067   s0,0-1.067-1.067l-1.067-1.067c0,0-1.067-1.067-2.133-1.067c-1.067-1.067-3.2-2.133-4.267-2.133c-1.067,0-1.067-1.067-2.133-1.067   c0,0-1.067,0-1.067-1.067c0,0-1.067,0-1.067-1.067c-1.067,0-2.133-1.067-2.133,0c-1.067,0-1.067,1.067-1.067,2.133   s-1.067,2.133-1.067,2.133c0,1.067-1.067,1.067-1.067,2.133c-1.067,1.067-1.067,2.133-2.133,3.2   C461.618,263.133,460.551,263.133,460.551,263.133z" data-original="#F5B54C" class="active-path"/>
	<path style="fill:#F5B54C" d="M459.484,341c0,0,0,0,0,1.067s0,2.133,0,3.2c0,2.133,0,6.4,0,10.667c0,2.133,0,4.267,0,7.467   c0,2.133,0,5.333,0,8.533s0,5.333,0,8.533s0,6.4-1.067,8.533c0,3.2-1.067,6.4-1.067,8.533c0,1.067-1.067,3.2-1.067,4.267   c0,1.067,0,1.067-1.067,2.133l0,0l0,0l0,0l0,0l0,0l0,0V405c0,1.067,0,1.067,0,2.133c0,1.067,0,1.067,0,2.133   c0,1.067,0,1.067,0,2.133c0,1.067,0,1.067,0,2.133c0,1.067,0,1.067,0,2.133c0,1.067,0,1.067,0,2.133c0,1.067,0,2.133,0,3.2   c0,2.133,0,4.267,0,6.4c0,2.133,0,3.2,0,4.267c0,1.067,0,2.133,0,3.2s0,1.067,0,1.067s0,0,0-1.067s0-2.133,0-3.2s0-3.2-1.067-4.267   c0-2.133,0-4.267,0-6.4c0-2.133,0-4.267,0-7.467c0-2.133,0-5.333,1.067-8.533v-1.067l0,0l0,0l0,0l0,0c0-1.067,0-1.067,1.067-2.133   c0-1.067,0-1.067,1.067-2.133c0-1.067,0-1.067,0-2.133c1.067-3.2,1.067-5.333,1.067-8.533c0-3.2,1.067-6.4,1.067-8.533   c0-3.2,0-5.333,1.067-8.533c0-3.2,0-5.333,0-8.533c0-2.133,0-5.333,0-7.467c0-2.133,0-4.267,0-6.4c0-2.133,0-3.2,0-4.267   C459.484,342.067,459.484,341,459.484,341z" data-original="#F5B54C" class="active-path"/>
</g><g>
	<path style="fill:#425A6B;" d="M369.884,221.533c-5.333,13.867-7.467,28.8-3.2,42.667c2.133,7.467,5.333,14.933,7.467,21.333   c3.2,10.667,4.267,21.333,4.267,32c6.4-12.8,6.4-28.8,6.4-43.733c0-14.933,2.133-29.867,9.6-42.667" data-original="#425A6B"/>
	<path style="fill:#425A6B;" d="M386.951,240.733c0,0,0,1.067,0,2.133v1.067V245v1.067c0,0,0,1.067,0,2.133c0,1.067,0,1.067,0,2.133   c0,1.067,0,1.067,0,2.133v1.067v1.067c0,1.067,0,1.067,0,2.133c0,1.067,0,3.2,0,4.267c0,1.067,0,3.2,1.067,4.267   c0,1.067,1.067,3.2,1.067,4.267c0,1.067,1.067,3.2,1.067,4.267c0,1.067,0,1.067,1.067,2.133V277v1.067c0,1.067,0,1.067,1.067,2.133   c0,1.067,0,1.067,1.067,2.133c0,0,0,1.067,1.067,1.067c0,0,0,1.067,1.067,1.067c0,0,0,1.067,1.067,1.067c0,0,0,1.067,1.067,1.067   c1.067,1.067,1.067,2.133,1.067,2.133s0-1.067-1.067-2.133c0,0,0-1.067-1.067-1.067c0,0,0-1.067-1.067-1.067   c0,0,0-1.067-1.067-1.067c0,0,0-1.067-1.067-1.067c0,0-1.067-1.067-1.067-2.133c0-1.067-1.067-1.067-1.067-2.133V277v-1.067   c0-1.067-1.067-1.067-1.067-2.133c0-1.067-1.067-3.2-1.067-4.267c0-1.067-1.067-3.2-1.067-4.267c0-1.067-1.067-3.2-1.067-4.267   c0-1.067,0-3.2-1.067-4.267c0-1.067,0-1.067,0-2.133v-1.067v-1.067c0-1.067,0-1.067,0-2.133c0-1.067,0-1.067,0-2.133   c0-1.067,0-1.067,0-2.133s0-1.067,0-1.067v-1.067v-1.067c0-1.067,0-2.133,0-2.133H386.951z" data-original="#425A6B"/>
	<path style="fill:#425A6B;" d="M414.684,236.467L414.684,236.467C414.684,237.533,414.684,237.533,414.684,236.467   c0,1.067,0,1.067,0,1.067v1.067c0,1.067,0,2.133,0,3.2c0,1.067,0,2.133-1.067,3.2c0,1.067-1.067,3.2-1.067,4.267   c-1.067,1.067-1.067,3.2-2.133,4.267c-1.067,3.2-3.2,6.4-4.267,9.6c-1.067,3.2-3.2,6.4-4.267,9.6c0,1.067-1.067,3.2,0,4.267   c0,1.067,0,1.067,0,2.133s0,1.067,1.067,2.133c0,1.067,1.067,2.133,2.133,3.2c1.067,1.067,1.067,1.067,2.133,2.133   c1.067,0,1.067,1.067,1.067,1.067h1.067c0,0,0,0-1.067,0c0,0-1.067,0-1.067-1.067c-1.067,0-1.067-1.067-2.133-2.133   c-1.067-1.067-1.067-2.133-2.133-3.2c0-1.067,0-1.067-1.067-2.133c0-1.067,0-1.067,0-2.133c0-1.067,0-3.2,0-4.267   c0-2.133,1.067-3.2,1.067-5.333c1.067-2.133,1.067-3.2,2.133-5.333c1.067-3.2,3.2-6.4,4.267-9.6c1.067-1.067,1.067-3.2,2.133-4.267   c0-1.067,1.067-3.2,1.067-4.267s0-2.133,0-3.2c0-1.067,0-2.133,0-2.133v-1.067l0,0l0,0v-1.067L414.684,236.467z" data-original="#425A6B"/>
</g></g> </svg>
