<?xml version="1.0"?>
<svg xmlns="http://www.w3.org/2000/svg" height="512px" viewBox="0 0 512 512" width="512px" class=""><g><path d="m482 399v83c0 11.050781-8.949219 20-20 20h-412c-22.089844 0-40-17.910156-40-40v-306c0-22.101562 17.910156-40 40-40h20v80h312v-80h40c11.050781 0 20 8.949219 20 20v60h20c11.050781 0 20 8.949219 20 20zm0 0" fill="#2c3a4c" data-original="#2C3A4C" class=""/><path d="m392 399c-27.570312 0-50-22.429688-50-50s22.429688-50 50-50h90c11.027344 0 20 8.972656 20 20v60c0 11.027344-8.972656 20-20 20zm0 0" fill="#ffe470" data-original="#FFE470"/><path d="m442 399v63h-392v-226h392v63h-50c-27.597656 0-50 22.398438-50 50 0 27.609375 22.390625 50 50 50zm0 0" fill="#96c8ef" data-original="#96C8EF" class="" style="fill:#BBC1C5" data-old_color="#859BAC"/><path d="m70 10v186h232c0-38.09375 0-147.976562 0-186-35.042969 0-199.882812 0-232 0zm0 0" fill="#4fa898" data-original="#4FA898"/><path d="m300 10v186h82c0-38.09375 0-147.976562 0-186-35.042969 0-49.882812 0-82 0zm0 0" fill="#93dba1" data-original="#93DBA1"/><path d="m262 70v126h-152v-126c11.050781 0 20-8.949219 20-20h112c0 11.050781 8.949219 20 20 20zm0 0" fill="#93dba1" data-original="#93DBA1"/><path d="m382 339c-5.519531 0-10 4.480469-10 10s4.480469 10 10 10 10-4.480469 10-10-4.480469-10-10-10zm0 0" data-original="#000000" class="active-path" style="fill:#000000"/><path d="m262 339c-5.515625 0-10-4.484375-10-10s4.484375-10 10-10c3.542969 0 7.28125 1.808594 10.816406 5.226562 3.96875 3.839844 10.300782 3.738282 14.140625-.234374 3.839844-3.96875 3.734375-10.296876-.234375-14.136719-5.074218-4.914063-10.152344-7.691407-14.722656-9.207031v-11.648438c0-5.523438-4.476562-10-10-10s-10 4.476562-10 10v11.71875c-11.640625 4.128906-20 15.246094-20 28.28125 0 16.542969 13.457031 30 30 30 5.511719 0 10 4.484375 10 10s-4.488281 10-10 10c-4.273438 0-8.886719-2.6875-12.988281-7.566406-3.550781-4.226563-9.859375-4.773438-14.085938-1.21875-4.230469 3.554687-4.773437 9.863281-1.222656 14.089844 5.347656 6.359374 11.632813 10.789062 18.296875 13.023437v11.671875c0 5.523438 4.476562 10 10 10s10-4.476562 10-10v-11.71875c11.636719-4.128906 20-15.246094 20-28.28125 0-16.542969-13.457031-30-30-30zm0 0" data-original="#000000" class="active-path" style="fill:#000000"/><path d="m50 512h412c16.542969 0 30-13.457031 30-30v-74.71875c11.640625-4.128906 20-15.246094 20-28.28125v-60c0-13.035156-8.359375-24.152344-20-28.28125v-74.71875c0-16.542969-13.457031-30-30-30h-10v-50c0-16.542969-13.457031-30-30-30h-30v-96c0-5.523438-4.476562-10-10-10-19.691406 0-298.460938 0-312 0-5.523438 0-10 4.476562-10 10v96h-10c-27.570312 0-50 22.429688-50 50v306c0 27.570312 22.429688 50 50 50zm442-193v60c0 5.515625-4.484375 10-10 10h-90c-22.054688 0-40-17.945312-40-40 0-22.09375 17.90625-40 40-40h90c5.515625 0 10 4.484375 10 10zm-100 90h40v43h-372v-206h372v43h-40c-33.148438 0-60 26.851562-60 60 0 33.085938 26.914062 60 60 60zm0-283h30c5.515625 0 10 4.484375 10 10v50h-40zm-40-106h20v166h-20zm-40 0h20v166h-20zm-232 0h212v166h-20v-116c0-5.523438-4.476562-10-10-10-5.515625 0-10-4.484375-10-10 0-5.523438-4.476562-10-10-10h-112c-5.523438 0-10 4.476562-10 10 0 5.515625-4.484375 10-10 10-5.523438 0-10 4.476562-10 10v116h-20zm172 58.285156v107.714844h-132v-107.714844c8.511719-3.015625 15.269531-9.773437 18.285156-18.285156h95.429688c3.015625 8.511719 9.773437 15.269531 18.285156 18.285156zm-202 47.714844h10v60h-8.308594c-16.800781 0-31.691406-11.472656-31.691406-30 0-16.542969 13.457031-30 30-30zm-30 69.804688c8.84375 6.421874 19.941406 10.195312 31.691406 10.195312h410.308594c5.515625 0 10 4.484375 10 10v73h-20v-53c0-5.523438-4.476562-10-10-10h-392c-5.523438 0-10 4.476562-10 10v226c0 5.523438 4.476562 10 10 10h392c5.523438 0 10-4.476562 10-10v-53h20v73c0 5.515625-4.484375 10-10 10h-412c-16.542969 0-30-13.457031-30-30zm0 0" data-original="#000000" class="active-path" style="fill:#000000"/><path d="m422 359h40c5.523438 0 10-4.476562 10-10s-4.476562-10-10-10h-40c-5.523438 0-10 4.476562-10 10s4.476562 10 10 10zm0 0" data-original="#000000" class="active-path" style="fill:#000000"/></g> </svg>
