<?xml version="1.0"?>
<svg xmlns="http://www.w3.org/2000/svg" xmlns:xlink="http://www.w3.org/1999/xlink" version="1.1" id="Capa_1" x="0px" y="0px" viewBox="0 0 512.239 512.239" style="enable-background:new 0 0 512.239 512.239;" xml:space="preserve" width="512px" height="512px" class=""><g transform="matrix(1 0 0 1 0 10)"><ellipse style="fill:#F5B54C;" cx="218.578" cy="349.03" rx="8.533" ry="9.6" data-original="#F5B54C"/><path style="fill:#FFD15C;" d="M174.845,319.163c0,0,11.733,18.133,12.8,19.2c1.067,2.133,11.733,6.4,11.733,6.4  s4.267-3.2,8.533-6.4c3.2-3.2,8.533-5.333,10.667-6.4c2.133-1.067,9.6,0,10.667,3.2c1.067,3.2-1.067,16-1.067,16  s-8.533,3.2-10.667-6.4c0,0-6.4,8.533-11.733,9.6c-6.4,1.067,6.4,19.2,6.4,19.2s-17.067,1.067-23.467-2.133  c-6.4-4.267-18.133-2.133-27.733-9.6C151.378,353.297,174.845,319.163,174.845,319.163z" data-original="#FFD15C"/><g>
	<path style="fill:#F5B54C;" d="M191.912,372.497L191.912,372.497c1.067,0,2.133-1.067,3.2-1.067c2.133,0,4.267-1.067,6.4-1.067   c1.067,0,1.067,0,2.133,0c1.067,0,1.067,0,2.133,0s1.067,0,2.133,0h1.067h1.067h1.067c1.067,0,1.067,0,1.067,0s0,0-1.067,0h-1.067   h-1.067h-1.067c0,0-1.067,0-2.133,0s-2.133,0-3.2,0c-1.067,0-2.133,0-3.2,0c-1.067,0-2.133,0-3.2,0   C194.045,372.497,192.978,372.497,191.912,372.497L191.912,372.497z" data-original="#F5B54C"/>
	<path style="fill:#F5B54C;" d="M228.178,350.097C227.112,350.097,227.112,350.097,228.178,350.097   c-1.067-1.067-1.067-1.067-1.067-2.133l0,0l0,0c0,0,0,0,0-1.067c0,0,0-1.067,1.067-1.067c0,0,1.067,0,1.067-1.067   c0,0,1.067,0,1.067-1.067l0,0c0,0,0,0,0-1.067h-1.067h-1.067c0,0-1.067,0-1.067,1.067l-1.067,1.067c0,0-1.067,1.067,0,2.133v1.067   l0,0l0,0l0,0l0,0l0,0l0,0l0,0l0,0l0,0l1.067,1.067c0,0,0,0,1.067,0C228.178,351.163,228.178,350.097,228.178,350.097   L228.178,350.097L228.178,350.097z" data-original="#F5B54C"/>
</g><path style="fill:#425A6B;" d="M180.178,353.297l104.533,68.267l56.533-21.333l-100.267-50.133l-60.8,1.067  C179.112,351.163,179.112,353.297,180.178,353.297z" data-original="#425A6B"/><polygon style="fill:#F3F3F3;" points="188.712,354.363 283.645,416.23 332.712,398.097 245.245,353.297 " data-original="#F3F3F3"/><path style="fill:#425A6B;" d="M167.378,471.697L21.245,448.23c0,0-10.667,27.733-10.667,56.533h166.4  C176.978,504.763,171.645,480.23,167.378,471.697z" data-original="#425A6B"/><path style="fill:#FFD15C;" d="M191.912,102.63c0,0,1.067,16,1.067,18.133c1.067,3.2,2.133,13.867-4.267,12.8  c-6.4-1.067-8.533-2.133-8.533-2.133s0,10.667-5.333,7.467c0,0,2.133,5.333-2.133,6.4c-4.267,1.067-7.467,6.4-8.533,10.667  s-18.133,4.267-28.8-8.533c0,0-5.333,7.467-7.467,19.2s-2.133,11.733-2.133,11.733s-55.467-46.933-55.467-48l1.067-5.333  c0,0,11.733-13.867,16-20.267c4.267-5.333,12.8-19.2,13.867-32c1.067-12.8,1.067-13.867,1.067-13.867l45.867-3.2L191.912,102.63z" data-original="#FFD15C"/><path style="fill:#425A6B;" d="M119.378,75.963c5.333-7.467,17.067-2.133,16,6.4v1.067c-2.133,9.6-2.133,9.6-2.133,9.6l6.4,2.133  c0,0,8.533-14.933,26.667-12.8c18.133,1.067,18.133-11.733,18.133-12.8s-42.667-20.267-43.733-20.267  c-1.067,0-36.267,9.6-36.267,9.6s0,18.133-4.267,26.667C100.178,85.563,112.978,84.497,119.378,75.963z" data-original="#425A6B"/><path style="fill:#F5B54C;" d="M224.978,413.03c0,0,0-1.067,1.067-2.133c0-1.067,1.067-1.067,1.067-2.133l1.067-1.067l1.067-1.067  l1.067-1.067l1.067-1.067c1.067-1.067,1.067-1.067,2.133-2.133c1.067-1.067,2.133-2.133,2.133-2.133s0,1.067-1.067,2.133  c0,1.067-1.067,1.067-1.067,2.133l-1.067,1.067l-1.067,1.067l-1.067,1.067l-1.067,1.067c-1.067,1.067-1.067,1.067-2.133,2.133  C226.045,411.963,224.978,413.03,224.978,413.03z" data-original="#F5B54C"/><path style="fill:#098875" d="M239.912,109.03c-4.267,9.6-21.333-6.4-21.333-6.4l-4.267-6.4h7.467  C221.778,97.297,243.112,99.43,239.912,109.03z" data-original="#F05640" class="active-path" data-old_color="#0A927E"/><path style="fill:#13A892" d="M144.978,69.563c0,0,16,22.4,28.8,30.933c12.8,8.533,26.667,9.6,37.333,6.4  c10.667-3.2,20.267-6.4,23.467-4.267c4.267,2.133,4.267,6.4,4.267,6.4s2.133-2.133,1.067-5.333  c-1.067-3.2-21.333-18.133-26.667-25.6c-5.333-6.4-5.333-6.4-5.333-6.4l-64-3.2L144.978,69.563z" data-original="#F26F5A" class="" data-old_color="#13a892"/><path style="fill:#098875" d="M104.445,59.963c0,0,8.533,9.6,41.6,14.933c33.067,4.267,67.2,4.267,67.2,4.267  s5.333-32-11.733-52.267s-42.667-22.4-54.4-21.333C128.978,7.697,105.512,35.43,104.445,59.963z" data-original="#F05640" class="active-path" data-old_color="#0A927E"/><ellipse style="fill:#FFD15C;" cx="124.712" cy="83.43" rx="9.6" ry="17.067" data-original="#FFD15C"/><path style="fill:#F5B54C;" d="M136.445,148.497c0,0-5.333,7.467-7.467,19.2c-2.133,11.733-2.133,11.733-2.133,11.733  s-1.067-1.067-2.133-1.067c-8.533-13.867-23.467-41.6-16-36.267c6.4,4.267,8.533,0,8.533-3.2c0-2.133,0-3.2,0-5.333  c-2.133-7.467-4.267-19.2-4.267-33.067C116.178,106.897,130.045,137.83,136.445,148.497z" data-original="#F5B54C"/><path style="fill:#13A892" d="M75.645,122.897c0,0,3.2,7.467,7.467,11.733s29.867,26.667,37.333,28.8  c7.467,1.067,12.8-9.6,12.8-9.6s24.533,17.067,28.8,23.467s6.4,32,6.4,32s14.933,33.067,9.6,58.667  c-4.267,25.6-4.267,150.4-3.2,165.333c1.067,14.933,2.133,54.4,2.133,54.4s-22.4,10.667-70.4,3.2  c-49.067-7.467-81.067-25.6-87.467-38.4c0,0,4.267-25.6-2.133-29.867c-6.4-4.267-9.6-77.867-8.533-97.067  c1.067-19.2-2.133-38.4-2.133-38.4s-10.667-44.8-4.267-70.4S23.378,155.963,75.645,122.897z" data-original="#F26F5A" class="" data-old_color="#13a892"/><path style="fill:#FFD15C;" d="M6.312,287.163c32,4.267,62.933,8.533,78.933,6.4c0,0-8.533,26.667-12.8,33.067  c-4.267,6.4-1.067,10.667-1.067,10.667s24.533,9.6,36.267,16s39.467,16,53.333,16c13.867,0,30.933,3.2,30.933,3.2  s14.933-1.067,19.2-2.133c4.267-1.067,18.133,1.067,24.533,3.2c6.4,2.133,12.8,5.333,12.8,5.333l-30.933,38.4  c0,0-18.133-7.467-25.6-11.733c0,0-5.333,0-9.6,0c-3.2,0-48-1.067-69.333-1.067c-20.267,0-67.2-11.733-73.6-12.8  c-5.333-1.067-17.067-2.133-21.333-14.933C15.912,362.897,4.178,302.097,6.312,287.163z" data-original="#FFD15C"/><circle style="fill:#F5B54C;" cx="247.378" cy="340.497" r="9.6" data-original="#F5B54C"/><path style="fill:#FFD15C;" d="M244.178,337.297c0,0-3.2,1.067-3.2,3.2c-1.067,2.133-5.333,9.6-5.333,9.6l-4.267-2.133  c0,0,2.133-7.467,3.2-9.6c1.067-2.133,4.267-11.733,6.4-11.733c2.133,0,4.267,1.067,4.267,1.067L244.178,337.297z" data-original="#FFD15C"/><path style="fill:#F5B54C;" d="M230.312,343.697L230.312,343.697c1.067,0,1.067-1.067,1.067-1.067l1.067-1.067  c1.067,0,1.067-1.067,2.133-1.067h1.067h1.067h1.067h1.067h1.067c0,0,0,0,1.067,0l0,0l0,0c0,0,0,0-1.067,0l0,0l0,0c0,0,0,0-1.067,0  h-1.067h-1.067h-1.067c-1.067,0-1.067,1.067-2.133,1.067s-1.067,0-2.133,1.067h-1.067  C231.378,343.697,231.378,343.697,230.312,343.697L230.312,343.697z" data-original="#F5B54C"/><path style="fill:#FFD15C;" d="M303.912,370.363l-38.4,5.333l-14.933,1.067c0,0-5.333-4.267-7.467-7.467l0,0c0,0,0,0,0-1.067  c-2.133-3.2-4.267-6.4-4.267-6.4s-8.533-5.333-7.467-10.667c0,0-4.267-1.067-5.333-3.2c-1.067-2.133,0-4.267,5.333-5.333  s7.467-5.333,10.667-3.2c2.133,2.133,12.8,6.4,12.8,6.4s-1.067-2.133-1.067-4.267c0,0-3.2-3.2-4.267-4.267c0,0-5.333,1.067-5.333,0  l-4.267-10.667c0,0,4.267-1.067,9.6,1.067c5.333,2.133,12.8,4.267,12.8,4.267s4.267,1.067,5.333,4.267  c1.067,3.2,5.333,9.6,7.467,12.8c2.133,3.2,4.267,10.667,10.667,13.867C291.112,363.963,303.912,370.363,303.912,370.363z" data-original="#FFD15C"/><g>
	<path style="fill:#F5B54C;" d="M230.312,352.23c1.067,1.067,2.133,1.067,4.267,1.067c1.067,0,3.2,0,4.267,1.067   s2.133,1.067,3.2,3.2c0,1.067,0,3.2-1.067,4.267c3.2-1.067,5.333,0,8.533,1.067c2.133,1.067,4.267,4.267,3.2,7.467   c3.2,1.067,7.467,2.133,10.667,4.267c-4.267-4.267-9.6-7.467-11.733-12.8c-1.067-1.067-1.067-3.2-2.133-4.267   c-2.133-3.2-5.333-5.333-6.4-5.333C238.845,352.23,235.645,353.297,230.312,352.23z" data-original="#F5B54C"/>
	<path style="fill:#F5B54C;" d="M237.778,362.897L237.778,362.897c0-1.067,0-1.067,3.2-2.133c2.133-1.067,3.2-3.2,3.2-3.2   S244.178,361.83,237.778,362.897z" data-original="#F5B54C"/>
	<path style="fill:#F5B54C;" d="M253.778,367.163v1.067c-2.133,4.267-7.467,3.2-10.667,1.067l0,0c0,0,0,0,0-1.067   c8.533,4.267,10.667,0,10.667,0V367.163z" data-original="#F5B54C"/>
</g><g>
	<path style="fill:#67C5B8;" d="M230.312,352.23c0,1.067,0,2.133,0,3.2h-1.067c-5.333,2.133-11.733,4.267-18.133,4.267l0,0l0,0   c4.267-4.267,8.533-7.467,13.867-10.667l0,0C227.112,351.163,230.312,352.23,230.312,352.23z" data-original="#67C5B8" class=""/>
	<path style="fill:#67C5B8;" d="M281.512,331.963l-12.8,5.333l-13.867,6.4l-2.133,1.067c-3.2-1.067-7.467-3.2-9.6-4.267l7.467-3.2   l12.8-6.4l14.933-6.4L281.512,331.963z" data-original="#67C5B8" class=""/>
</g><path style="fill:#425A6B;" d="M282.578,329.83l-2.133,1.067l-2.133-4.267l2.133-1.067c1.067,0,2.133,0,3.2,1.067  C284.712,327.697,283.645,328.763,282.578,329.83z" data-original="#425A6B"/><path style="fill:#FFD15C;" d="M388.178,218.897c0,0,7.467,23.467,2.133,37.333c-5.333,13.867,10.667,8.533,11.733,7.467  c1.067-1.067,32-41.6,32-41.6L388.178,218.897z" data-original="#FFD15C"/><path style="fill:#E8EAE8;" d="M386.045,254.097c0,0,5.333-4.267,10.667-8.533s23.467-14.933,35.2-14.933  c10.667-1.067,25.6,3.2,25.6,3.2s40.533,98.133,40.533,117.333c0,20.267-5.333,84.267-3.2,98.133  c1.067,14.933-7.467,36.267-4.267,45.867c3.2,8.533,4.267,10.667,4.267,10.667l-149.333,1.067c0,0,4.267-75.733,7.467-89.6  c3.2-14.933-2.133-46.933-6.4-54.4c-4.267-7.467-6.4-23.467,4.267-42.667c10.667-19.2,21.333-30.933,24.533-38.4  C378.578,274.363,386.045,254.097,386.045,254.097z" data-original="#E8EAE8" class=""/><path style="fill:#FFD15C;" d="M329.512,127.163l-4.267,3.2c0,0-4.267,19.2,0,27.733c4.267,8.533,8.533,10.667,8.533,17.067  c0,6.4,6.4,20.267,11.733,26.667c5.333,5.333,7.467,10.667,8.533,16c1.067,5.333,9.6,8.533,18.133,6.4  c8.533-3.2,7.467-62.933,7.467-62.933L329.512,127.163z" data-original="#FFD15C"/><g>
	<path style="fill:#425A6B;" d="M325.245,118.63c0,0-2.133,11.733,2.133,19.2c4.267,6.4,11.733,8.533,11.733,8.533   s6.4,34.133,8.533,42.667c1.067,7.467,13.867,37.333,29.867,42.667c16,5.333,39.467,3.2,45.867,6.4   c5.333,3.2,7.467,14.933,7.467,14.933s3.2-13.867-2.133-20.267c0,0,18.133,8.533,27.733,24.533c9.6,16,35.2,75.733,33.067,113.067   c0,0,7.467-6.4,9.6-19.2c0,0,1.067,21.333-6.4,37.333c0,0,30.933-46.933,14.933-98.133c-16-51.2-38.4-87.467-48-113.067   s-23.467-68.267-41.6-84.267c-18.133-16-33.067-14.933-52.267-8.533C344.445,89.83,328.445,109.03,325.245,118.63z" data-original="#425A6B"/>
	<path style="fill:#425A6B;" d="M361.512,197.563c0,0,0,0,0,1.067v1.067l0,0l0,0l0,0c0,0,0,0,0,1.067v1.067v1.067   c0,1.067,0,1.067,0,2.133c0,1.067,0,2.133,1.067,2.133c0,1.067,1.067,2.133,1.067,3.2c1.067,2.133,2.133,4.267,3.2,6.4   c1.067,1.067,1.067,2.133,2.133,3.2l1.067,1.067l1.067,1.067l1.067,1.067c0,0,1.067,1.067,2.133,1.067c0,0,1.067,1.067,2.133,1.067   l1.067,1.067l0,0l0,0c1.067,0,1.067,1.067,2.133,1.067c1.067,0,1.067,1.067,2.133,1.067c1.067,0,1.067,0,2.133,1.067h1.067l0,0   h1.067c3.2,1.067,5.333,1.067,8.533,1.067s6.4,1.067,8.533,1.067c3.2,0,5.333,1.067,8.533,2.133c2.133,1.067,5.333,2.133,6.4,3.2   c2.133,1.067,3.2,3.2,4.267,4.267c1.067,2.133,1.067,3.2,2.133,4.267c0,1.067,0,2.133,0,3.2c0,1.067,0,1.067,0,1.067s0,0,0-1.067   s0-2.133,0-3.2c0-1.067-1.067-3.2-2.133-4.267c-1.067-1.067-2.133-3.2-4.267-4.267c-2.133-1.067-4.267-2.133-6.4-3.2   c-2.133-1.067-5.333-1.067-7.467-1.067c-3.2,0-5.333,0-8.533,0s-6.4,0-9.6-1.067s-6.4-1.067-9.6-3.2h-1.067l0,0l-1.067-1.067   c-1.067,0-1.067-1.067-2.133-1.067c-1.067,0-1.067-1.067-2.133-1.067c-1.067,0-1.067-1.067-2.133-1.067   c-1.067,0-1.067-1.067-2.133-1.067c-1.067,0-1.067-1.067-2.133-1.067c-1.067-1.067-2.133-2.133-3.2-3.2   c-2.133-2.133-3.2-4.267-4.267-6.4c-1.067-1.067-1.067-2.133-1.067-3.2c0-1.067-1.067-2.133-1.067-3.2c0-1.067,0-2.133-1.067-3.2   v-1.067v-1.067v-1.067v-1.067v-1.067c0-1.067,0-1.067,0-1.067L361.512,197.563z" data-original="#425A6B"/>
	<path style="fill:#425A6B;" d="M422.312,223.163L422.312,223.163c1.067,1.067,2.133,2.133,3.2,3.2   c2.133,2.133,4.267,4.267,7.467,7.467c3.2,3.2,6.4,6.4,10.667,10.667c2.133,2.133,3.2,4.267,5.333,6.4   c2.133,2.133,3.2,4.267,5.333,7.467c1.067,2.133,3.2,5.333,4.267,7.467c1.067,2.133,2.133,5.333,3.2,7.467   c1.067,2.133,2.133,5.333,2.133,7.467c1.067,2.133,1.067,5.333,1.067,7.467c0,2.133,0,4.267,0,6.4c0,2.133,0,3.2,0,4.267   c0,1.067,0,2.133,0,3.2c0,1.067,0,1.067,0,1.067s0,0,0-1.067s0-2.133,0-3.2c0-1.067,0-3.2,0-4.267c0-2.133,0-4.267-1.067-6.4   c0-2.133-1.067-4.267-2.133-6.4c-1.067-2.133-2.133-5.333-3.2-7.467s-2.133-5.333-4.267-7.467c-1.067-2.133-3.2-5.333-4.267-7.467   c-2.133-2.133-3.2-4.267-5.333-6.4c-2.133-2.133-3.2-4.267-5.333-6.4c-4.267-4.267-7.467-7.467-10.667-10.667   s-6.4-5.333-7.467-7.467c-1.067-1.067-2.133-2.133-2.133-2.133l-1.067-1.067L422.312,223.163z" data-original="#425A6B"/>
	<path style="fill:#425A6B;" d="M331.645,119.697L331.645,119.697c-1.067,1.067-1.067,1.067-1.067,1.067s0,0,0,1.067   c0,1.067,0,0-1.067,1.067c0,0,0,0-1.067,1.067c0,0,0,1.067-1.067,1.067c0,0,0,1.067-1.067,1.067c0,0,0,1.067-1.067,1.067   c0,0,0,1.067-1.067,1.067c0,1.067-1.067,1.067-1.067,2.133s-1.067,2.133-1.067,2.133c0,1.067-1.067,2.133-1.067,2.133   c0,1.067,0,2.133-1.067,2.133v1.067v1.067v1.067v1.067v1.067v1.067c0,1.067,0,1.067,0,1.067c0,1.067,0,1.067,0,1.067s0,0,0-1.067   v-1.067v-1.067v-1.067v-1.067v-1.067v-1.067v-1.067c0-1.067,0-2.133,0-3.2c0-1.067,0-2.133,1.067-3.2   c0-1.067,1.067-2.133,1.067-3.2c0-1.067,1.067-2.133,1.067-2.133s0-1.067,1.067-1.067c0,0,0-1.067,1.067-1.067   c0,0,0-1.067,1.067-1.067c0,0,0-1.067,1.067-1.067c0,0,0-1.067,1.067-1.067c0,0,0,0,1.067-1.067c0,0,0,0,0-1.067l0,0   c0,0,1.067,0,1.067,0L331.645,119.697z" data-original="#425A6B"/>
</g><path style="fill:#F3F3F3;" d="M382.845,347.963c0,0-9.6-41.6,5.333-58.667c13.867-17.067,26.667-12.8,33.067-8.533  c6.4,4.267,21.333,17.067,22.4,34.133c1.067,17.067,2.133,73.6,2.133,84.267s0,52.267-2.133,60.8c-2.133,8.533-9.6,10.667-19.2,16  c-9.6,4.267-86.4,17.067-86.4,17.067s-18.133-18.133-12.8-49.067c0,0,17.067,1.067,23.467-2.133  c6.4-2.133,53.333-10.667,53.333-10.667S382.845,377.83,382.845,347.963z" data-original="#F3F3F3"/><polygon style="fill:#51B0E5;" points="268.712,432.23 268.712,433.297 412.712,423.697 333.778,446.097 215.378,450.363 " data-original="#51B0E5" class=""/><polygon style="fill:#098875" points="210.045,390.63 262.312,369.297 268.712,433.297 215.378,450.363 " data-original="#F05640" class="active-path" data-old_color="#0A927E"/><polygon style="fill:#56BFEB;" points="210.045,390.63 262.312,369.297 268.712,433.297 215.378,450.363 " data-original="#56BFEB" class=""/><polygon style="fill:#8AD6F7" points="412.712,423.697 268.712,433.297 262.312,369.297 408.445,361.83 " data-original="#8AD6F7" class=""/><path style="fill:#FFD15C;" d="M326.312,472.763c-5.333,0-12.8-1.067-18.133,0c-9.6,1.067-29.867,0-38.4-2.133  c-8.533-2.133-33.067-7.467-37.333-8.533s-10.667-1.067-12.8-7.467c-2.133-6.4-1.067-25.6-1.067-25.6s-2.133-6.4,2.133-11.733  c4.267-5.333,4.267-5.333,4.267-5.333s0-5.333,1.067-9.6l5.333-9.6c0,0,6.4,1.067,4.267,7.467c0,0,8.533,5.333-2.133,17.067  l-4.267,9.6v4.267c0,0,2.133-2.133,6.4,2.133c4.267,3.2,5.333,6.4,9.6,7.467c4.267,1.067,19.2,0,23.467,3.2  c4.267,3.2,10.667,6.4,18.133,6.4c6.4,0,33.067-3.2,37.333-3.2C323.112,456.763,324.178,466.363,326.312,472.763z" data-original="#FFD15C"/><path style="fill:#098875" d="M85.245,293.563c1.067-1.067,1.067-2.133,1.067-5.333c0,0,36.267,0,43.733-8.533  c0,0-25.6,7.467-43.733,5.333c0,0,2.133-14.933,3.2-19.2c1.067-4.267,3.2-20.267,6.4-23.467c3.2-3.2,13.867-32,9.6-46.933  c-4.267-14.933-11.733-25.6-11.733-25.6s9.6,20.267,9.6,26.667c0,5.333,0,18.133-2.133,26.667c-2.133,9.6-9.6,22.4-9.6,22.4  S86.312,276.497,85.245,293.563z" data-original="#F05640" class="active-path" data-old_color="#0A927E"/></g> </svg>
