<?xml version="1.0"?>
<svg xmlns="http://www.w3.org/2000/svg" xmlns:xlink="http://www.w3.org/1999/xlink" version="1.1" id="Capa_1" x="0px" y="0px" viewBox="0 0 512.761 512.761" style="enable-background:new 0 0 512.761 512.761;" xml:space="preserve" width="512px" height="512px" class=""><g><polygon style="fill:#55B2E5" points="320.431,481.827 260.698,425.294 292.698,373.027 342.831,400.761 331.098,453.027 " data-original="#55B2E5"/><polygon style="fill:#56BFEB" points="461.232,391.161 462.298,391.161 488.965,399.694 485.765,454.094 320.431,481.827   322.565,426.361 400.431,392.227 " data-original="#56BFEB" class=""/><polygon style="fill:#8AD6F7" points="415.365,344.227 488.965,399.694 322.565,426.361 262.832,366.627 " data-original="#8AD6F7" class=""/><path style="fill:#FFD15C" d="M344.965,280.227c0,0,12.8,4.267,25.6,11.733c11.733,7.467,32,22.4,44.8,29.867  c12.8,7.467,25.6,12.8,29.867,16c5.333,3.2,8.533,8.533,8.533,13.867s4.267,16,4.267,18.133c1.067,2.133,4.267,8.533-2.133,10.667  c-5.333,1.067-10.667,0-9.6-8.533c0,0,1.067-1.067-3.2-3.2c-3.2-2.133-11.733-9.6-11.733-9.6s-4.267-2.133-11.733-3.2  c-8.533-2.133-32-8.533-42.667-11.733c-10.667-3.2-43.733-7.467-59.733-24.533L344.965,280.227z" data-original="#FFD15C" class=""/><path style="fill:#344A5E" d="M167.898,159.694c0,0-5.333-8.533-1.067-12.8s11.733-6.4,11.733-6.4l5.333,10.667L167.898,159.694z" data-original="#344A5E" class=""/><path style="fill:#FFD15C" d="M267.098,189.561c0,0-18.133,34.133-21.333,34.133c-2.133-1.067-41.6-24.533-41.6-24.533  l-24.533-28.8l-11.733-13.867c0,0,9.6-9.6,10.667-13.867c1.067-3.2-3.2-16-3.2-16l0,0c-1.067-2.133-18.133-52.267-18.133-52.267  c-3.2-5.333,33.067-43.733,33.067-43.733l58.667,12.8l5.333,20.267v33.067c0,0,0,3.2-2.133,13.867  c-1.067,9.6-8.533,20.267-8.533,20.267s-2.133,16-2.133,21.333s-2.133,19.2-2.133,19.2L267.098,189.561z" data-original="#FFD15C" class=""/><path style="fill:#F5B54C" d="M243.631,129.827c0,1.067-7.467,19.2-22.4,21.333c-14.933,2.133-19.2,5.333-10.667,7.467  s13.867,6.4-3.2,8.533c-7.467,1.067-18.133,2.133-27.733,2.133l-11.733-13.867c0,0,9.6-9.6,10.667-13.867c1.067-3.2-3.2-16-3.2-16  c0,1.067,8.533,13.867,25.6,18.133C219.098,147.961,236.165,142.627,243.631,129.827z" data-original="#F5B54C" class=""/><g>
	
		<ellipse transform="matrix(0.0683 -0.9977 0.9977 0.0683 156.2934 331.0258)" style="fill:#FFD15C" cx="255.376" cy="81.834" rx="18.134" ry="6.4" data-original="#FFD15C" class=""/>
	
		<ellipse transform="matrix(-0.3619 -0.9322 0.9322 -0.3619 135.1019 284.0633)" style="fill:#FFD15C" cx="164.771" cy="95.794" rx="18.133" ry="6.4" data-original="#FFD15C" class=""/>
</g><g>
	<path style="fill:#425A6B" d="M168.965,98.894c0,0-6.4-24.533-6.4-35.2c-1.067-10.667-1.067-13.867-1.067-13.867l-7.467,20.267   c0,0-1.067,5.333,2.133,10.667c4.267-2.133,9.6,20.267,9.6,20.267L168.965,98.894z" data-original="#425A6B" class=""/>
	<path style="fill:#425A6B" d="M240.432,39.161c0,0,7.467,7.467,9.6,17.067c1.067,8.533,2.133,27.733,2.133,27.733   s4.267-5.333,4.267-12.8c-1.067-7.467-2.133-14.933-2.133-14.933l-10.667-19.2L240.432,39.161z" data-original="#425A6B" class=""/>
</g><path style="fill:#F05640" d="M159.365,60.494l5.333,10.667c0,0,2.133,4.267,6.4,0c5.333-4.267,12.8-17.067,28.8-19.2  c14.933-2.133,34.133,5.333,39.467,7.467c5.333,2.133,5.333,0,6.4-1.067c0-1.067,2.133-10.667,2.133-10.667V37.027l-85.333-10.667  L159.365,60.494z" data-original="#F05640" class="" data-old_color="#0f75bc"/><path style="fill:#F26F5A" d="M154.031,70.094c0,0,7.467-13.867,18.133-22.4c10.667-7.467,25.6-13.867,43.733-12.8  s33.067,9.6,38.4,20.267c0,0-2.133-16-7.467-28.8c-5.333-11.733-17.067-22.4-29.867-25.6s-43.733,4.267-53.333,11.733  C151.898,23.161,151.898,45.561,154.031,70.094z" data-original="#F26F5A" class="" data-old_color="#0E609E"/><path style="fill:#344A5E" d="M221.232,179.961l8.533-3.2l12.8,30.933l2.133-27.733v-14.933c0,0,18.133,7.467,23.467,8.533  c4.267,1.067,19.2,5.333,26.667,17.067c7.467,10.667,27.733,52.267,32,60.8c4.267,8.533,9.6,17.067,12.8,21.333  c3.2,4.267,7.467,5.333,7.467,10.667c0,4.267-8.533,32-33.067,41.6l-11.733-7.467c0,0-3.2,88.533-3.2,108.8  c-1.067,20.267-1.067,69.333,1.067,86.4h-179.2c0,0-3.2-37.333,0-49.067s14.933-90.667-2.133-139.733c0,0-17.067,22.4-22.4,29.867  c-5.333,7.467-7.467,13.867-7.467,13.867s-10.667,1.067-21.333,2.133c-10.667,1.067-43.733-1.067-43.733,0c0,0,0-23.467,6.4-39.467  c5.333-16,23.467-61.867,29.867-75.733c5.333-13.867,16-35.2,25.6-44.8c9.6-9.6,42.667-30.933,54.4-35.2s14.933-7.467,14.933-7.467  l38.4,11.733L221.232,179.961z" data-original="#344A5E" class=""/><path style="fill:#F26F5A" d="M288.431,386.894v-1.067c2.133-4.267,8.533-10.667,11.733-12.8l1.067-1.067v-1.067l-2.133-2.133  c0,0,0-1.067,0-2.133c0,0,1.067,0,2.133,0l2.133,2.133c1.067,1.067,1.067,2.133,1.067,3.2s-1.067,2.133-2.133,3.2  c-4.267,2.133-9.6,8.533-10.667,11.733C289.498,386.894,289.498,386.894,288.431,386.894L288.431,386.894z" data-original="#F26F5A" class="" data-old_color="#0E609E"/><path style="fill:#67C5B8" d="M171.098,503.161l139.733-100.267c2.133-2.133,3.2-5.333,1.067-7.467l-69.333-109.867  c-2.133-3.2-5.333-3.2-8.533-1.067L101.765,384.761c-2.133,2.133-3.2,5.333-1.067,7.467l62.933,109.867  C164.698,504.227,168.965,505.294,171.098,503.161z" data-original="#67C5B8"/><polygon style="fill:#F3F3F3" points="305.498,397.561 171.098,501.027 109.231,397.561 232.965,293.027 " data-original="#F3F3F3"/><path style="fill:#425A6B" d="M276.698,373.027h-1.067c-2.133,0-3.2-1.067-4.267-3.2l-22.4-38.4c-2.133-3.2-1.067-6.4,2.133-8.533  l5.333-3.2c1.067-1.067,2.133-1.067,3.2-1.067s2.133,1.067,2.133,2.133l26.667,42.667c1.067,2.133,0,4.267-1.067,5.333l0,0  l-5.333,3.2C279.898,373.027,277.765,373.027,276.698,373.027z M257.498,321.827L257.498,321.827l-5.333,3.2  c-1.067,1.067-2.133,3.2-1.067,4.267l22.4,38.4c0,1.067,1.067,1.067,2.133,2.133c1.067,0,2.133,0,3.2,0l5.333-3.2  c0,0,1.067-1.067,0-1.067L257.498,321.827C258.565,321.827,258.565,321.827,257.498,321.827L257.498,321.827z" data-original="#425A6B" class=""/><path style="fill:#F26F5A" d="M300.165,360.227l-35.2,35.2c-6.4,6.4-11.733,12.8-16,20.267l0,0c7.467-4.267,14.933-9.6,20.267-16  l35.2-35.2L300.165,360.227z" data-original="#F26F5A" class="" data-old_color="#0E609E"/><g>
	<path style="fill:#344A5E" d="M304.431,363.427l-3.2-3.2l1.067-1.067c1.067-1.067,2.133-1.067,3.2,0l0,0   c1.067,1.067,1.067,2.133,0,3.2L304.431,363.427z" data-original="#344A5E" class=""/>
	
		<rect x="267.197" y="392.613" transform="matrix(-0.7071 0.7071 -0.7071 -0.7071 738.7471 485.6267)" style="fill:#344A5E" width="3.2" height="6.4" data-original="#344A5E" class=""/>
</g><g>
	<path style="fill:#425A6B" d="M178.565,141.561c0,0-11.733,6.4-11.733,9.6s7.467,7.467,14.933,10.667   c6.4,3.2,39.467,18.133,39.467,18.133s-25.6,19.2-28.8,20.267c0,0-13.867-5.333-22.4-12.8s-21.333-19.2-21.333-19.2   s6.4-5.333,8.533-9.6S165.765,140.494,178.565,141.561z" data-original="#425A6B" class=""/>
	<path style="fill:#425A6B" d="M241.498,158.627c0,0,13.867,16,16,18.133c2.133,2.133,7.467,19.2,7.467,19.2l-8.533-7.467   c0,0-11.733,14.933-12.8,19.2c0,0,2.133-29.867-3.2-37.333L241.498,158.627z" data-original="#425A6B" class=""/>
</g><path style="fill:#FFD15C" d="M88.965,367.694c0,0,18.133,19.2,23.467,26.667c5.333,7.467,23.467,24.533,30.933,28.8  s23.467,12.8,27.733,12.8c3.2,0,10.667-3.2,26.667,0c4.267,1.067,8.533,3.2,11.733,5.333c1.067,1.067,2.133,2.133,3.2,2.133  c3.2,1.067,11.733,5.333,12.8,9.6l7.467,6.4c0,0,0,6.4-5.333,6.4c0,0,4.267,3.2,3.2,8.533c-1.067,6.4-6.4,5.333-6.4,5.333  s0,4.267-3.2,5.333c-3.2,2.133-5.333,2.133-5.333,2.133s-4.267,7.467-13.867,7.467c0,0-8.533,7.467-18.133,4.267  c0,0-9.6-6.4-13.867-8.533c-4.267-2.133-11.733-14.933-14.933-17.067c-3.2-2.133-7.467-5.333-9.6-5.333  c-2.133-1.067-6.4-4.267-11.733-8.533c-4.267-4.267-51.2-23.467-59.733-32c-8.533-7.467-28.8-26.667-36.267-32  s-14.933-7.467-13.867-14.933c0-7.467,1.067-13.867,1.067-13.867L88.965,367.694z" data-original="#FFD15C" class=""/><path style="fill:#344A5E" d="M26.031,348.494c-2.133,11.733-2.133,22.4-2.133,22.4c1.067-1.067,34.133,1.067,43.733,0  c10.667-1.067,21.333-2.133,21.333-2.133s2.133-6.4,7.467-13.867c1.067-1.067,2.133-3.2,4.267-6.4H26.031z" data-original="#344A5E" class=""/><path style="fill:#F5B54C" d="M227.631,466.894c0,0,0,0-1.067,0s-2.133,0-4.267,0c-1.067,0-2.133,0-2.133-1.067  c-1.067,0-2.133-1.067-2.133-1.067c-2.133-1.067-3.2-2.133-5.333-3.2c-1.067-1.067-2.133-1.067-2.133-2.133l-1.067-1.067  l-1.067-1.067c-1.067-1.067-1.067-1.067-1.067-2.133c0,0-1.067,0-1.067-1.067l0,0c0,0,0,0-1.067,0  c-1.067-1.067-1.067-1.067-2.133-2.133c0-1.067-1.067-1.067-1.067-1.067c0-1.067,0-1.067,0-1.067s0,0,1.067,1.067l1.067,1.067  l1.067,1.067l0,0c0,0,0,0,1.067,0c0,0,1.067,0,1.067,1.067c1.067,0,2.133,1.067,2.133,2.133l1.067,1.067l1.067,1.067  c1.067,1.067,1.067,1.067,2.133,2.133c2.133,1.067,3.2,2.133,5.333,3.2c1.067,0,1.067,1.067,2.133,1.067  c1.067,0,1.067,1.067,2.133,1.067c1.067,1.067,2.133,1.067,3.2,1.067C226.565,466.894,227.631,466.894,227.631,466.894z" data-original="#F5B54C" class=""/><path style="fill:#FFFFFF" d="M231.898,459.427L231.898,459.427c0,4.267-4.267,5.333-4.267,5.333s-3.2-2.133-4.267-2.133  c-1.067-1.067-1.067-2.133,0-3.2c1.067-2.133,2.133-5.333,2.133-5.333L231.898,459.427z" data-original="#FFFFFF" class="active-path"/><g>
	<path style="fill:#F5B54C" d="M218.031,478.627c-2.133-1.067-4.267-1.067-6.4-1.067s-3.2,0-3.2,0s0,1.067,4.267,2.133   c4.267,0,9.6,1.067,11.733,1.067c0-1.067,0-1.067,0-1.067S220.165,479.694,218.031,478.627z" data-original="#F5B54C" class=""/>
	<path style="fill:#F5B54C" d="M215.898,487.161c0,0-6.4,1.067-8.533,1.067c-3.2,0-7.467,1.067-5.333,1.067s2.133,0,6.4,0   c2.133,0,4.267,0,6.4-1.067C215.898,487.161,215.898,487.161,215.898,487.161L215.898,487.161L215.898,487.161z" data-original="#F5B54C" class=""/>
	<path style="fill:#F5B54C" d="M202.031,493.561C202.031,493.561,202.031,494.627,202.031,493.561c-2.133,0-4.267,1.067-6.4,1.067   s-2.133,0-1.067,0C195.631,494.627,202.031,493.561,202.031,493.561z" data-original="#F5B54C" class=""/>
</g><path style="fill:#FFFFFF" d="M450.565,370.894c0,0,0,3.2,0,4.267c1.067,1.067,5.333,2.133,7.467,1.067  c0,0,1.067-2.133-1.067-4.267C455.898,370.894,451.632,369.827,450.565,370.894z" data-original="#FFFFFF" class="active-path"/></g> </svg>
