<?xml version="1.0"?>
<svg xmlns="http://www.w3.org/2000/svg" xmlns:xlink="http://www.w3.org/1999/xlink" version="1.1" id="Layer_1" x="0px" y="0px" viewBox="0 0 504.124 504.124" style="enable-background:new 0 0 504.124 504.124;" xml:space="preserve" width="512px" height="512px" class=""><g><path style="fill:#777777" d="M252.062,0.001c139.028,0,252.062,113.034,252.062,252.062S391.089,504.123,252.062,504.123  S0,391.484,0,252.063C0,113.035,113.034,0.001,252.062,0.001z" data-original="#CCD0D2" class="active-path" data-old_color="#7E7E7E"/><path style="fill:#F3F2F2" d="M252.062,23.238c126.425,0,228.825,102.4,228.825,228.825s-102.4,228.825-228.825,228.825  S23.237,378.487,23.237,252.063S125.637,23.238,252.062,23.238z" data-original="#EFEFEF" class="" data-old_color="#777777"/><path style="fill:#777777" d="M252.062,137.846c-63.015,0-114.215,51.2-114.215,114.215s51.2,114.215,114.215,114.215  s114.215-51.2,114.215-114.215S315.077,137.846,252.062,137.846z M252.062,350.523c-54.351,0-98.462-44.111-98.462-98.462  s44.111-98.462,98.462-98.462s98.462,44.111,98.462,98.462S306.412,350.523,252.062,350.523z" data-original="#CCD0D2" class="active-path" data-old_color="#7E7E7E"/><path style="fill:#4D90FD" d="M389.514,114.61c8.665,8.665-96.098,161.083-105.157,169.748  c-8.665,8.665-161.083,113.822-170.142,105.157c-8.665-8.665,96.492-161.477,105.157-169.748  C228.037,211.103,380.455,105.552,389.514,114.61z" data-original="#BF392B" class="" data-old_color="#4d90fd"/><path style="fill:#777777" d="M252.062,63.016c-6.695,0-11.815,5.12-11.815,11.815s5.12,11.815,11.815,11.815  c6.695,0,11.815-5.12,11.815-11.815C263.877,68.53,258.757,63.016,252.062,63.016z M252.062,417.477  c-6.695,0-11.815,5.12-11.815,11.815s5.12,11.815,11.815,11.815c6.695,0,11.815-5.12,11.815-11.815S258.757,417.477,252.062,417.477  z M429.292,240.247c-6.695,0-11.815,5.12-11.815,11.815c0,6.695,5.12,11.815,11.815,11.815s11.815-5.12,11.815-11.815  C441.108,245.76,435.988,240.247,429.292,240.247z M74.831,240.247c-6.695,0-11.815,5.12-11.815,11.815  c0,6.695,5.12,11.815,11.815,11.815s11.815-5.12,11.815-11.815C86.646,245.76,81.526,240.247,74.831,240.247z M369.822,365.883  c-4.726,4.726-4.726,12.209,0,16.935s12.209,4.726,16.935,0s4.726-12.209,0-16.935C382.031,361.158,374.548,361.158,369.822,365.883  z M117.76,121.699c-4.726,4.726-4.726,12.209,0,16.935s12.209,4.726,16.935,0s4.726-12.209,0-16.935  C129.575,116.973,122.092,116.973,117.76,121.699z" data-original="#CCD0D2" class="active-path" data-old_color="#7E7E7E"/><path style="fill:#4880DB" d="M286.72,282.388c16.935-21.268,111.458-159.114,102.794-167.385  c-9.058-9.058-153.994,90.978-168.96,103.975L286.72,282.388z" data-original="#E2574C" class="" data-old_color="#4D90FD"/><path style="fill:#3F6FBD" d="M219.766,219.767c-8.271,8.271-111.852,157.932-105.157,169.354L389.12,114.61  C376.517,108.309,228.037,211.495,219.766,219.767z" data-original="#C64D41" class="" data-old_color="#4D90FD"/><path style="fill:#5A8EE2" d="M220.554,218.979l32.689,31.508L389.12,114.61C376.911,108.309,235.52,206.376,220.554,218.979z" data-original="#E5685E" class="" data-old_color="#4D90FD"/><path style="fill:#1A4A96" d="M248.123,236.309c11.028,0,19.692,8.665,19.692,19.692c0,11.028-8.665,19.692-19.692,19.692  s-19.692-8.665-19.692-19.692C228.431,244.973,237.095,236.309,248.123,236.309z" data-original="#AC3327" class="" data-old_color="#1B4EA0"/><path style="fill:#4D90FD" d="M248.123,236.309c-11.028,0-19.692,8.665-19.692,19.692c0,5.12,1.969,10.24,5.514,13.785  l27.963-27.963C258.363,238.277,253.243,236.309,248.123,236.309z" data-original="#BF392B" class="" data-old_color="#4d90fd"/><path style="fill:#F3F2F2" d="M252.062,232.37c11.028,0,19.692,8.665,19.692,19.692c0,11.027-8.665,19.692-19.692,19.692  c-11.028,0-19.692-8.665-19.692-19.692C232.369,241.035,241.034,232.37,252.062,232.37z" data-original="#EFEFEF" class="" data-old_color="#777777"/></g> </svg>
