<svg height="512pt" viewBox="0 0 512 512" width="512pt" xmlns="http://www.w3.org/2000/svg" xmlns:xlink="http://www.w3.org/1999/xlink"><linearGradient id="a" gradientUnits="userSpaceOnUse" x1="-.000506" x2="511.999594" y1="256.0001" y2="256.0001"><stop offset="0" stop-color="#00f2fe"/><stop offset=".0208" stop-color="#03effe"/><stop offset=".2931" stop-color="#24d2fe"/><stop offset=".5538" stop-color="#3cbdfe"/><stop offset=".7956" stop-color="#4ab0fe"/><stop offset="1" stop-color="#4facfe"/></linearGradient><path d="m512 210c0 36.472656-9.5 72.402344-27.472656 103.910156-5.472656 9.59375-17.6875 12.9375-27.28125 7.460938-9.59375-5.472656-12.9375-17.6875-7.464844-27.28125 14.535156-25.480469 22.21875-54.558594 22.21875-84.089844 0-93.738281-76.261719-170-170-170s-170 76.261719-170 170 76.261719 170 170 170c29.171875 0 57.941406-7.507812 83.195312-21.710938 9.628907-5.417968 21.820313-1.996093 27.234376 7.628907 5.414062 9.628906 2 21.820312-7.628907 27.234375-31.226562 17.566406-66.773437 26.847656-102.800781 26.847656-50.476562 0-96.847656-17.90625-133.105469-47.695312l-134.800781 133.886718c-3.902344 3.875-9 5.808594-14.09375 5.808594-5.140625 0-10.28125-1.96875-14.191406-5.90625-7.78125-7.835938-7.738282-20.5.097656-28.285156l134.621094-133.703125c-30.289063-36.402344-48.527344-83.160157-48.527344-134.105469 0-115.792969 94.207031-210 210-210s210 94.207031 210 210zm-135.324219-75.5-82.546875 116.589844c-2.6875 3.09375-6.042968 3.765625-7.847656 3.882812-1.867188.125-5.472656-.113281-8.632812-3.121094-.101563-.097656-.199219-.191406-.300782-.28125l-52.859375-48.28125c-8.15625-7.449218-20.808593-6.878906-28.257812 1.277344s-6.875 20.804688 1.28125 28.253906l52.726562 48.160157c9.550781 9.007812 22.25 14.019531 35.3125 14.015625 1.128907 0 2.257813-.035156 3.390625-.109375 14.316406-.957031 27.679688-7.917969 36.667969-19.097657.253906-.316406.5-.640624.730469-.972656l82.984375-117.207031c6.382812-9.011719 4.246093-21.496094-4.769531-27.878906-9.015626-6.378907-21.496094-4.246094-27.878907 4.769531zm0 0" fill="url(#a)"/></svg>