<svg height="512pt" viewBox="-51 0 512 512" width="512pt" xmlns="http://www.w3.org/2000/svg" xmlns:xlink="http://www.w3.org/1999/xlink"><linearGradient id="a" gradientUnits="userSpaceOnUse" x1="-.0001" x2="409.9941" y1="256" y2="256"><stop offset="0" stop-color="#00f2fe"/><stop offset=".0208" stop-color="#03effe"/><stop offset=".2931" stop-color="#24d2fe"/><stop offset=".5538" stop-color="#3cbdfe"/><stop offset=".7956" stop-color="#4ab0fe"/><stop offset="1" stop-color="#4facfe"/></linearGradient><path d="m409.992188 204.761719c-.042969 44.816406-13.511719 85.328125-42.394532 127.535156-6.238281 9.113281-18.6875 11.445313-27.800781 5.210937-9.113281-6.238281-11.445313-18.6875-5.210937-27.804687 24.121093-35.246094 35.371093-68.59375 35.40625-104.9375-.101563-90.832031-74.121094-164.765625-164.996094-164.765625s-164.890625 73.933594-164.996094 164.804688c.070312 72.355468 44.390625 120.894531 95.710938 177.09375 23.605468 25.851562 47.890624 52.449218 69.285156 83.039062 21.394531-30.59375 45.683594-57.191406 69.289062-83.039062l3.085938-3.378907c7.445312-8.160156 20.097656-8.738281 28.253906-1.292969 8.15625 7.449219 8.734375 20.097657 1.289062 28.257813l-3.09375 3.386719c-26.546874 29.070312-53.996093 59.132812-75.917968 93.816406-3.664063 5.796875-10.046875 9.3125-16.90625 9.3125h-12c-6.859375 0-13.238282-3.515625-16.90625-9.3125-21.921875-34.683594-49.371094-64.746094-75.917969-93.816406-27.074219-29.648438-52.644531-57.652344-72.332031-89.753906-22.730469-37.066407-33.8007815-74.460938-33.839844-114.3125.0625-54.75 21.414062-106.171876 60.121094-144.839844 38.707031-38.667969 90.160156-59.964844 144.875-59.964844s106.167968 21.296875 144.878906 59.964844c38.703125 38.664062 60.058594 90.085937 60.117188 144.796875zm-85.996094.238281c0 66.167969-53.832032 120-120 120-66.167969 0-120-53.832031-120-120s53.832031-120 120-120c66.167968 0 120 53.832031 120 120zm-71.183594-63.3125c3.402344 13.054688 5.703125 27.777344 6.765625 43.3125h21.886719c-4.507813-17.453125-14.785156-32.597656-28.652344-43.3125zm-48.816406 141.21875c5.214844-7.175781 13.015625-26.96875 15.484375-57.90625h-30.96875c2.46875 30.9375 10.269531 50.730469 15.484375 57.90625zm15.484375-97.90625c-2.46875-30.9375-10.269531-50.730469-15.484375-57.90625-5.214844 7.175781-13.015625 26.96875-15.484375 57.90625zm-92.953125 0h21.886718c1.066407-15.535156 3.363282-30.257812 6.765626-43.3125-13.867188 10.714844-24.144532 25.859375-28.652344 43.3125zm28.652344 83.3125c-3.398438-13.054688-5.699219-27.777344-6.765626-43.3125h-21.886718c4.507812 17.453125 14.785156 32.597656 28.652344 43.3125zm126.285156-43.3125h-21.886719c-1.0625 15.535156-3.363281 30.257812-6.765625 43.3125 13.867188-10.714844 24.144531-25.859375 28.652344-43.3125zm0 0" fill="url(#a)"/></svg>