<svg height="512pt" viewBox="0 0 512 512" width="512pt" xmlns="http://www.w3.org/2000/svg" xmlns:xlink="http://www.w3.org/1999/xlink"><linearGradient id="a" gradientUnits="userSpaceOnUse" x1="0" x2="512" y1="256" y2="256"><stop offset="0" stop-color="#00f2fe"/><stop offset=".0208" stop-color="#03effe"/><stop offset=".2931" stop-color="#24d2fe"/><stop offset=".5538" stop-color="#3cbdfe"/><stop offset=".7956" stop-color="#4ab0fe"/><stop offset="1" stop-color="#4facfe"/></linearGradient><path d="m512 246v20c0 33.085938-26.914062 60-60 60h-10.074219c-2.648437 0-5.050781 1.667969-6.117187 4.25l-.136719.335938c-1.089844 2.625-.578125 5.511718 1.296875 7.386718 7.808594 7.808594 7.808594 20.472656 0 28.285156-7.8125 7.808594-20.472656 7.8125-28.285156 0-13.367188-13.367187-17.277344-33.378906-9.964844-50.980468l.121094-.300782c7.269531-17.597656 24.179687-28.976562 43.085937-28.976562h10.074219c11.027344 0 20-8.972656 20-20v-20c0-11.027344-8.972656-20-20-20h-10.074219c-18.90625 0-35.816406-11.378906-43.089843-28.984375l-.121094-.292969c-7.308594-17.601562-3.398438-37.613281 9.96875-50.980468l7.125-7.121094c7.796875-7.796875 7.796875-20.484375 0-28.285156l-14.144532-14.140626c-3.777343-3.777343-8.800781-5.859374-14.140624-5.859374-5.34375 0-10.367188 2.082031-14.140626 5.859374l-7.125 7.121094c-13.367187 13.367188-33.378906 17.28125-50.980468 9.96875l-.296875-.125c-17.601563-7.269531-28.980469-24.179687-28.980469-43.085937v-10.074219c0-11.027344-8.972656-20-20-20h-20c-11.027344 0-20 8.972656-20 20v10.074219c0 18.90625-11.378906 35.816406-28.984375 43.085937l-.253906.105469c-17.644531 7.328125-37.652344 3.414063-51.019531-9.949219l-7.125-7.125c-3.773438-3.777344-8.796876-5.855468-14.140626-5.855468-5.339843 0-10.363281 2.078124-14.140624 5.855468l-14.144532 14.144532c-7.796875 7.796874-7.796875 20.484374 0 28.285156l7.125 7.121094c13.367188 13.367187 17.277344 33.378906 9.964844 50.984374l-.121094.296876c-7.269531 17.597656-24.179687 28.976562-43.085937 28.976562h-10.074219c-11.027344 0-20 8.972656-20 20v20c0 11.027344 8.972656 20 20 20h10.074219c18.902343 0 35.816406 11.378906 43.085937 28.984375l.136719.324219c7.296875 17.570312 3.382813 37.582031-9.984375 50.949218l-7.121094 7.121094c-3.777344 3.777344-5.855468 8.800782-5.855468 14.144532 0 5.339843 2.078124 10.363281 5.855468 14.140624l14.144532 14.140626c7.796874 7.800781 20.484374 7.800781 28.28125 0l7.125-7.121094c13.363281-13.367188 33.375-17.277344 50.980468-9.964844l.296875.121094c17.601563 7.269531 28.980469 24.179687 28.980469 43.085937v10.074219c0 11.027344 8.972656 20 20 20h20c11.027344 0 20-8.972656 20-20v-10.074219c0-18.90625 11.378906-35.816406 28.984375-43.085937l.253906-.105469c17.640625-7.328125 37.652344-3.417969 51.019531 9.949219l7.121094 7.121094c7.800782 7.800781 20.488282 7.800781 28.285156 0 7.8125-7.808594 20.472657-7.808594 28.285157 0 7.808593 7.8125 7.808593 20.476562 0 28.285156-23.394531 23.394531-61.460938 23.394531-84.855469 0l-7.121094-7.121094c-1.875-1.875-4.761718-2.390625-7.355468-1.3125l-.359376.152344c-2.589843 1.066406-4.257812 3.46875-4.257812 6.117187v10.074219c0 33.085938-26.917969 60-60 60h-20c-33.085938 0-60-26.914062-60-60v-10.074219c0-2.648437-1.667969-5.050781-4.25-6.117187l-.40625-.167969c-2.558594-1.0625-5.441406-.546875-7.316406 1.328125l-7.125 7.121094c-23.390625 23.394531-61.457032 23.394531-84.851563 0l-14.140625-14.140625c-11.332031-11.335938-17.574218-26.402344-17.574218-42.425781 0-16.027344 6.242187-31.09375 17.574218-42.429688l7.121094-7.121094c1.875-1.875 2.390625-4.761718 1.3125-7.355468l-.148438-.359376c-1.070312-2.589843-3.472656-4.257812-6.121093-4.257812h-10.074219c-33.085938 0-60-26.914062-60-60v-20c0-33.082031 26.914062-60 60-60h10.074219c2.648437 0 5.050781-1.667969 6.117187-4.25l.148438-.363281c1.082031-2.597657.566406-5.484375-1.308594-7.359375l-7.121094-7.121094c-23.394531-23.394531-23.394531-61.457031 0-84.851562l14.140625-14.144532c11.335938-11.332031 26.402344-17.574218 42.425781-17.574218 16.027344 0 31.09375 6.242187 42.429688 17.574218l7.121094 7.121094c1.875 1.875 4.761718 2.390625 7.355468 1.3125l.359376-.152344c2.589843-1.066406 4.257812-3.46875 4.257812-6.117187v-10.074219c0-33.085938 26.917969-60 60-60h20c33.085938 0 60 26.914062 60 60v10.074219c0 2.648437 1.667969 5.050781 4.25 6.117187l.40625.167969c2.558594 1.0625 5.445312.546875 7.316406-1.328125l7.125-7.121094c11.332032-11.335937 26.398438-17.574218 42.425782-17.574218 16.023437 0 31.09375 6.238281 42.425781 17.574218l14.140625 14.140625c23.394531 23.394531 23.394531 61.460938 0 84.851563l-7.121094 7.125c-1.875 1.871094-2.390625 4.757812-1.3125 7.355468l.148438.359376c1.070312 2.585937 3.472656 4.257812 6.121093 4.257812h10.074219c33.085938 0 60 26.914062 60 60zm-256.019531 140c11.046875 0 20-8.953125 20-20v-11.582031c27.511719-3.84375 48.019531-26.472657 48.019531-54.667969v-9.5c0-31.042969-25.285156-56.296875-56.367188-56.296875h-18.324218c-8.964844 0-16.253906-7.421875-16.253906-16.542969v-2.703125c0-8.953125 6.984374-15.707031 16.253906-15.707031h17.328125c5.09375 0 10.363281 3.410156 10.363281 9.117188 0 11.042968 8.953125 20 20 20s20-8.957032 20-20c0-23.96875-17.699219-43.972657-41.019531-48.257813v-12.859375c0-11.046875-8.953125-20-20-20s-20 8.953125-20 20v13.546875c-9.898438 2.339844-18.964844 7.273437-26.320313 14.46875-10.710937 10.480469-16.605468 24.574219-16.605468 39.691406v2.703125c0 31.179688 25.234374 56.542969 56.253906 56.542969h18.324218c9.023438 0 16.367188 7.3125 16.367188 16.296875v9.5c0 8.691406-7.035156 15.25-16.367188 15.25h-29.78125c-5.640624 0-9.890624-4.035156-9.890624-9.390625 0-11.042969-8.953126-20-20-20-11.046876 0-20 8.957031-20 20 0 13.398437 5.25 25.898437 14.78125 35.207031 8.929687 8.714844 20.671874 13.6875 33.238281 14.140625v11.042969c0 11.046875 8.953125 20 20 20zm0 0" fill="url(#a)"/></svg>