<svg height="512pt" viewBox="-53 0 512 512" width="512pt" xmlns="http://www.w3.org/2000/svg" xmlns:xlink="http://www.w3.org/1999/xlink"><linearGradient id="a" gradientUnits="userSpaceOnUse" x1="-.0003" x2="405.8883" y1="256" y2="256"><stop offset="0" stop-color="#00f2fe"/><stop offset=".0208" stop-color="#03effe"/><stop offset=".2931" stop-color="#24d2fe"/><stop offset=".5538" stop-color="#3cbdfe"/><stop offset=".7956" stop-color="#4ab0fe"/><stop offset="1" stop-color="#4facfe"/></linearGradient><path d="m365.886719 332v-221c0-22.054688-17.941407-40-40-40h-125.886719v143c0 33.085938-26.914062 60-60 60s-60-26.914062-60-60v-86c0-11.046875 8.953125-20 20-20s20 8.953125 20 20v86c0 11.027344 8.972656 20 20 20s20-8.972656 20-20v-154c0-11.027344-8.972656-20-20-20-9.230469 0-17.429688 6.511719-19.492188 15.480469-2.242187 9.761719-11.285156 16.175781-20.976562 15.441406-.503906.039063-1.011719.078125-1.53125.078125h-18c-22.054688 0-40 17.945312-40 40v321c0 22.054688 17.945312 40 40 40h245.890625c22.054687 0 40-17.945312 40-40 0-11.046875 8.953125-20 20-20 11.042969 0 20 8.953125 20 20 0 44.113281-35.890625 80-80 80h-245.890625c-44.113281 0-80-35.886719-80-80v-321c0-44.113281 35.886719-80 80-80h7.429688c10.304687-18.824219 30.132812-31 52.570312-31 22.570312 0 42.261719 12.53125 52.503906 31h133.382813c44.113281 0 80 35.886719 80 80v221c0 11.046875-8.953125 20-20 20-11.042969 0-20-8.953125-20-20zm-265.886719 60c-11.046875 0-20 8.953125-20 20s8.953125 20 20 20h145c11.046875 0 20-8.953125 20-20s-8.953125-20-20-20zm225-59c0-11.046875-8.953125-20-20-20h-205c-11.046875 0-20 8.953125-20 20s8.953125 20 20 20h205c11.046875 0 20-8.953125 20-20zm-20-98h-46c-11.046875 0-20 8.953125-20 20s8.953125 20 20 20h46c11.046875 0 20-8.953125 20-20s-8.953125-20-20-20zm0-79h-46c-11.046875 0-20 8.953125-20 20s8.953125 20 20 20h46c11.046875 0 20-8.953125 20-20s-8.953125-20-20-20zm0 0" fill="url(#a)"/></svg>